<svg xmlns="http://www.w3.org/2000/svg" viewBox="0 0 64 64">
  <defs>
    <radialGradient id="ocean" cx="38%" cy="34%" r="75%">
      <stop offset="0%" stop-color="#0a3a5c" />
      <stop offset="55%" stop-color="#062a44" />
      <stop offset="100%" stop-color="#021628" />
    </radialGradient>
    <radialGradient id="atmo" cx="50%" cy="50%" r="55%">
      <stop offset="78%" stop-color="#22d3ee" stop-opacity="0" />
      <stop offset="92%" stop-color="#22d3ee" stop-opacity="0.45" />
      <stop offset="100%" stop-color="#22d3ee" stop-opacity="0" />
    </radialGradient>
    <linearGradient id="landN" x1="0" y1="0" x2="0" y2="1">
      <stop offset="0%" stop-color="#1ea578" />
      <stop offset="100%" stop-color="#0d6b4a" />
    </linearGradient>
    <clipPath id="globe">
      <circle cx="32" cy="32" r="24" />
    </clipPath>
    <filter id="glow" x="-50%" y="-50%" width="200%" height="200%">
      <feGaussianBlur stdDeviation="0.8" result="b" />
      <feMerge>
        <feMergeNode in="b" />
        <feMergeNode in="SourceGraphic" />
      </feMerge>
    </filter>
  </defs>

  <circle cx="32" cy="32" r="30" fill="url(#atmo)" />
  <circle cx="32" cy="32" r="24" fill="url(#ocean)" stroke="#22d3ee" stroke-width="0.6" stroke-opacity="0.7" />

  <g clip-path="url(#globe)">
    <g fill="url(#landN)" opacity="0.92">
      <path d="M 55.2 33.7 L 55.2 33.9 L 55.2 33.9 L 55.2 34.0 L 55.2 34.1 L 55.2 34.2 L 55.2 34.4 L 55.1 34.6 L 55.1 34.7 L 55.1 34.9 L 55.1 34.9 L 55.1 34.8 L 55.1 34.8 L 55.1 34.9 L 55.1 35.0 L 55.1 35.1 L 55.1 35.1 L 55.1 35.3 L 55.0 35.4 L 55.0 35.6 L 55.0 35.7 L 55.0 35.8 L 54.9 35.9 L 54.9 36.0 L 54.9 36.1 L 54.9 36.4 L 54.8 36.7 L 54.8 36.8 L 54.8 36.9 L 54.7 37.0 L 54.7 37.1 L 54.7 37.2 L 54.7 37.2 L 54.7 37.2 L 54.7 37.2 L 54.7 37.3 L 54.6 37.4 L 54.6 37.5 L 54.6 37.5 L 54.6 37.6 L 54.6 37.6 L 54.6 37.7 L 54.6 37.8 L 54.5 37.8 L 54.5 37.9 L 54.5 38.1 L 54.4 38.2 L 54.4 38.3 L 54.3 38.5 L 54.3 38.7 L 54.3 38.8 L 54.3 38.8 L 54.3 38.8 L 54.3 38.6 L 54.3 38.6 L 54.3 38.7 L 54.3 38.8 L 54.3 38.8 L 54.3 38.7 L 54.3 38.8 L 54.2 39.2 L 54.1 39.3 L 54.1 39.4 L 54.0 39.5 L 54.0 39.6 L 54.0 39.7 L 53.9 39.9 L 53.9 40.0 L 53.8 40.0 L 53.8 40.1 L 53.8 40.3 L 53.7 40.4 L 53.6 40.6 L 53.6 40.7 L 53.5 40.9 L 53.3 41.3 L 53.2 41.6 L 53.1 41.8 L 53.0 42.1 L 52.9 42.2 L 52.8 42.4 L 52.7 42.7 L 52.6 42.9 L 52.5 43.1 L 52.4 43.3 L 52.3 43.5 L 52.1 43.7 L 52.0 43.9 L 52.0 44.0 L 51.9 44.0 L 51.9 44.0 L 51.9 44.0 L 51.9 44.1 L 51.8 44.2 L 51.8 44.3 L 51.7 44.3 L 51.7 44.4 L 51.7 44.5 L 51.6 44.5 L 51.6 44.5 L 51.6 44.5 L 51.6 44.6 L 51.5 44.7 L 51.4 44.8 L 51.3 45.0 L 51.3 45.0 L 51.3 45.0 L 51.3 45.0 L 51.3 45.0 L 51.3 45.0 L 51.2 45.2 L 51.1 45.3 L 51.0 45.4 L 50.9 45.6 L 50.8 45.7 L 50.7 45.9 L 50.6 45.9 L 50.6 46.0 L 50.6 46.0 L 50.6 46.0 L 50.6 46.0 L 50.6 46.0 L 50.5 46.1 L 50.4 46.2 L 50.4 46.2 L 50.4 46.2 L 50.4 46.3 L 50.4 46.3 L 50.3 46.4 L 50.3 46.4 L 50.3 46.4 L 50.4 46.3 L 50.4 46.3 L 50.4 46.2 L 50.5 46.1 L 50.5 46.1 L 50.6 46.1 L 50.6 46.0 L 50.6 46.0 L 50.6 46.0 L 50.6 46.0 L 50.6 46.0 L 50.6 46.0 L 50.6 46.0 L 50.7 45.9 L 50.7 45.8 L 50.7 45.9 L 50.7 45.9 L 50.7 45.9 L 50.6 45.9 L 50.6 46.0 L 50.6 46.1 L 50.5 46.1 L 50.6 46.1 L 50.6 46.0 L 50.7 45.9 L 50.7 45.9 L 50.7 45.8 L 50.7 45.8 L 50.8 45.7 L 50.9 45.7 L 51.0 45.5 L 51.1 45.3 L 51.1 45.3 L 51.2 45.1 L 51.3 45.0 L 51.4 44.8 L 51.5 44.7 L 51.5 44.6 L 51.6 44.6 L 51.5 44.7 L 51.6 44.6 L 51.6 44.6 L 51.6 44.6 L 51.6 44.6 L 51.6 44.6 L 51.6 44.6 L 51.5 44.7 L 51.6 44.6 L 51.6 44.5 L 51.8 44.3 L 51.8 44.2 L 51.9 44.1 L 51.9 44.1 L 51.8 44.3 L 51.7 44.4 L 51.7 44.4 L 51.7 44.5 L 51.7 44.5 L 51.7 44.3 L 51.7 44.3 L 51.8 44.3 L 51.8 44.2 L 51.9 44.1 L 52.0 43.9 L 52.1 43.8 L 52.1 43.7 L 52.2 43.6 L 52.3 43.5 L 52.3 43.4 L 52.2 43.5 L 52.2 43.6 L 52.1 43.7 L 52.0 43.8 L 52.0 43.9 L 52.0 43.9 L 52.0 44.0 L 51.8 44.2 L 51.8 44.2 L 51.8 44.3 L 51.7 44.3 L 51.8 44.3 L 51.7 44.3 L 51.8 44.2 L 51.8 44.2 L 51.8 44.2 L 51.9 44.1 L 51.8 44.2 L 51.8 44.2 L 51.9 44.1 L 51.9 44.0 L 52.0 43.9 L 52.1 43.8 L 52.1 43.7 L 52.2 43.6 L 52.2 43.5 L 52.3 43.4 L 52.3 43.4 L 52.3 43.3 L 52.4 43.2 L 52.4 43.2 L 52.4 43.1 L 52.4 43.2 L 52.5 43.0 L 52.5 43.0 L 52.5 43.0 L 52.5 43.0 L 52.5 43.1 L 52.5 43.1 L 52.4 43.3 L 52.3 43.3 L 52.3 43.4 L 52.3 43.4 L 52.2 43.5 L 52.2 43.6 L 52.1 43.7 L 52.1 43.8 L 52.0 43.9 L 51.9 44.1 L 51.9 44.1 L 51.9 44.1 L 51.9 44.1 L 51.9 44.1 L 51.9 44.1 L 51.9 44.2 L 51.8 44.2 L 51.8 44.2 L 51.7 44.4 L 51.7 44.4 L 51.6 44.5 L 51.5 44.6 L 51.5 44.7 L 51.5 44.7 L 51.5 44.7 L 51.5 44.7 L 51.6 44.5 L 51.6 44.5 L 51.6 44.5 L 51.7 44.4 L 51.8 44.3 L 51.8 44.3 L 51.8 44.2 L 51.9 44.1 L 52.0 43.9 L 52.0 43.9 L 52.2 43.6 L 52.3 43.5 L 52.4 43.3 L 52.5 43.1 L 52.6 42.9 L 52.6 42.8 L 52.7 42.6 L 52.7 42.6 L 52.8 42.4 L 52.9 42.3 L 53.0 42.1 L 53.1 41.8 L 53.1 41.8 L 53.1 41.8 L 53.1 41.8 L 53.2 41.7 L 53.2 41.7 L 53.1 41.8 L 53.1 41.9 L 53.1 41.8 L 53.1 41.7 L 53.2 41.7 L 53.2 41.6 L 53.2 41.5 L 53.2 41.6 L 53.2 41.6 L 53.2 41.7 L 53.2 41.7 L 53.2 41.6 L 53.2 41.7 L 53.1 41.8 L 53.2 41.7 L 53.2 41.6 L 53.3 41.5 L 53.4 41.3 L 53.4 41.1 L 53.5 41.0 L 53.5 40.9 L 53.6 40.7 L 53.6 40.6 L 53.7 40.5 L 53.7 40.4 L 53.8 40.1 L 53.8 40.1 L 53.8 40.2 L 53.7 40.3 L 53.8 40.3 L 53.8 40.2 L 53.9 40.0 L 53.9 39.9 L 53.9 39.8 L 54.0 39.7 L 54.1 39.4 L 54.1 39.4 L 54.1 39.4 L 54.1 39.4 L 54.1 39.3 L 54.1 39.2 L 54.2 39.1 L 54.2 39.0 L 54.2 38.9 L 54.3 38.8 L 54.3 38.7 L 54.3 38.6 L 54.4 38.4 L 54.4 38.3 L 54.4 38.2 L 54.5 38.0 L 54.5 38.0 L 54.5 38.0 L 54.5 37.8 L 54.6 37.7 L 54.6 37.6 L 54.6 37.5 L 54.6 37.4 L 54.7 37.3 L 54.7 37.3 L 54.6 37.4 L 54.6 37.6 L 54.6 37.7 L 54.6 37.7 L 54.6 37.5 L 54.6 37.5 L 54.6 37.5 L 54.6 37.5 L 54.6 37.4 L 54.6 37.4 L 54.7 37.4 L 54.7 37.3 L 54.7 37.3 L 54.7 37.2 L 54.7 37.2 L 54.7 37.1 L 54.7 37.2 L 54.7 37.1 L 54.7 37.1 L 54.7 37.2 L 54.7 37.1 L 54.7 37.1 L 54.7 37.1 L 54.7 37.1 L 54.7 37.1 L 54.7 37.0 L 54.7 37.0 L 54.7 36.9 L 54.8 36.9 L 54.7 37.0 L 54.8 36.9 L 54.8 36.8 L 54.8 36.8 L 54.8 36.7 L 54.8 36.7 L 54.8 36.7 L 54.8 36.7 L 54.8 36.7 L 54.8 36.7 L 54.8 36.6 L 54.8 36.6 L 54.8 36.6 L 54.8 36.5 L 54.8 36.5 L 54.8 36.6 L 54.8 36.5 L 54.8 36.5 L 54.9 36.4 L 54.9 36.3 L 54.9 36.3 L 54.9 36.3 L 54.9 36.2 L 54.9 36.2 L 54.9 36.3 L 54.9 36.3 L 54.9 36.2 L 54.9 36.3 L 54.9 36.3 L 54.9 36.2 L 54.9 36.2 L 54.9 36.1 L 54.9 36.1 L 54.9 36.0 L 54.9 36.1 L 54.9 36.1 L 54.9 36.0 L 54.9 36.1 L 54.9 36.0 L 55.0 35.9 L 55.0 35.9 L 54.9 35.9 L 54.9 36.0 L 54.9 36.0 L 54.9 36.2 L 54.9 36.2 L 54.9 36.3 L 54.9 36.4 L 54.9 36.4 L 54.9 36.4 L 54.9 36.3 L 54.9 36.3 L 54.9 36.2 L 54.9 36.2 L 54.9 36.2 L 54.9 36.2 L 54.9 36.3 L 54.9 36.2 L 54.9 36.2 L 54.9 36.2 L 54.9 36.2 L 54.9 36.2 L 54.9 36.1 L 54.9 36.1 L 54.9 36.1 L 54.9 36.1 L 54.9 36.0 L 54.9 36.0 L 54.9 35.9 L 55.0 35.8 L 55.0 35.7 L 55.0 35.6 L 55.0 35.6 L 55.0 35.5 L 55.0 35.4 L 55.0 35.3 L 55.0 35.3 L 55.1 35.1 L 55.1 35.1 L 55.1 35.0 L 55.1 35.0 L 55.1 35.0 L 55.1 35.0 L 55.1 35.0 L 55.1 34.9 L 55.1 34.9 L 55.1 34.8 L 55.1 34.8 L 55.1 34.8 L 55.1 34.8 L 55.1 34.8 L 55.1 34.8 L 55.1 34.8 L 55.1 34.7 L 55.1 34.7 L 55.1 34.7 L 55.1 34.6 L 55.1 34.5 L 55.2 34.4 L 55.1 34.5 L 55.2 34.4 L 55.2 34.4 L 55.2 34.4 L 55.2 34.4 L 55.2 34.4 L 55.2 34.3 L 55.2 34.4 L 55.2 34.4 L 55.2 34.4 L 55.1 34.5 L 55.1 34.5 L 55.1 34.5 L 55.1 34.5 L 55.1 34.5 L 55.1 34.5 L 55.1 34.5 L 55.1 34.5 L 55.1 34.5 L 55.2 34.4 L 55.2 34.3 L 55.2 34.3 L 55.2 34.4 L 55.2 34.4 L 55.1 34.5 L 55.1 34.5 L 55.2 34.4 L 55.1 34.5 L 55.1 34.5 L 55.1 34.5 L 55.2 34.4 L 55.2 34.3 L 55.2 34.4 L 55.2 34.4 L 55.2 34.4 L 55.1 34.7 L 55.1 34.8 L 55.1 34.9 L 55.1 34.9 L 55.1 34.9 L 55.1 35.1 L 55.1 35.2 L 55.0 35.4 L 55.0 35.6 L 55.0 35.7 L 55.0 35.7 L 55.0 35.8 L 55.0 35.9 L 54.9 36.0 L 54.9 36.0 L 54.9 36.0 L 54.9 36.0 L 54.9 36.0 L 54.9 36.1 L 54.9 36.0 L 54.9 36.1 L 54.9 36.1 L 54.9 36.3 L 54.9 36.4 L 54.9 36.4 L 54.9 36.4 L 54.8 36.5 L 54.8 36.6 L 54.8 36.7 L 54.8 36.7 L 54.8 36.7 L 54.8 36.6 L 54.9 36.4 L 54.9 36.1 L 54.9 35.9 L 55.0 35.8 L 55.0 35.4 L 55.1 35.3 L 55.1 35.0 L 55.1 34.9 L 55.1 34.8 L 55.1 34.6 L 55.2 34.3 L 55.2 34.3 L 55.2 34.3 L 55.2 34.2 L 55.2 34.2 L 55.2 34.1 L 55.2 34.1 L 55.2 33.9 L 55.2 33.9 L 55.2 33.8 L 55.2 33.5 L 55.2 33.3 L 55.2 33.2 L 55.2 33.2 L 55.2 33.3 L 55.2 33.4 L 55.2 33.5 L 55.2 33.6 L 55.2 33.7 L 55.2 33.7 L 55.2 33.7 Z M 48.6 48.3 L 48.6 48.4 L 48.6 48.3 L 48.5 48.4 L 48.4 48.5 L 48.4 48.5 L 48.4 48.6 L 48.2 48.7 L 48.2 48.7 L 48.2 48.8 L 48.2 48.8 L 48.1 48.8 L 48.1 48.9 L 47.9 49.0 L 47.9 49.0 L 47.8 49.1 L 47.9 49.0 L 47.7 49.2 L 47.5 49.3 L 47.5 49.4 L 47.4 49.5 L 47.3 49.5 L 47.3 49.5 L 47.2 49.6 L 47.2 49.6 L 47.2 49.7 L 47.1 49.8 L 47.0 49.8 L 46.9 49.9 L 46.9 49.9 L 47.1 49.8 L 47.1 49.7 L 47.2 49.6 L 47.2 49.6 L 47.3 49.6 L 47.2 49.6 L 47.0 49.8 L 47.0 49.8 L 46.8 50.0 L 46.6 50.2 L 46.6 50.2 L 46.5 50.2 L 46.5 50.2 L 46.4 50.3 L 46.2 50.5 L 46.0 50.6 L 45.9 50.7 L 45.9 50.7 L 45.9 50.7 L 45.9 50.7 L 45.8 50.7 L 45.7 50.8 L 45.6 50.9 L 45.6 50.9 L 45.4 51.1 L 45.3 51.1 L 45.4 51.1 L 45.3 51.1 L 45.2 51.2 L 45.2 51.2 L 45.2 51.2 L 45.3 51.1 L 45.4 51.0 L 45.5 51.0 L 45.4 51.0 L 45.4 51.1 L 45.3 51.1 L 45.2 51.2 L 45.1 51.2 L 45.1 51.3 L 45.0 51.3 L 45.0 51.3 L 44.9 51.4 L 44.9 51.4 L 45.0 51.3 L 45.0 51.3 L 45.0 51.3 L 45.1 51.2 L 45.2 51.2 L 45.2 51.2 L 45.3 51.1 L 45.3 51.1 L 45.3 51.1 L 45.3 51.1 L 45.3 51.1 L 45.3 51.1 L 45.4 51.0 L 45.5 51.0 L 45.6 50.9 L 45.8 50.8 L 45.9 50.6 L 46.1 50.6 L 46.2 50.4 L 46.4 50.3 L 46.4 50.3 L 46.5 50.2 L 46.5 50.2 L 46.4 50.3 L 46.4 50.3 L 46.4 50.3 L 46.5 50.2 L 46.7 50.1 L 46.7 50.0 L 46.8 50.0 L 46.8 50.0 L 47.0 49.8 L 47.0 49.8 L 47.1 49.7 L 47.2 49.6 L 47.2 49.6 L 47.1 49.7 L 47.1 49.7 L 47.2 49.6 L 47.3 49.6 L 47.3 49.6 L 47.4 49.5 L 47.5 49.4 L 47.6 49.3 L 47.5 49.4 L 47.6 49.3 L 47.6 49.3 L 47.7 49.2 L 47.7 49.2 L 47.7 49.2 L 47.7 49.2 L 47.9 49.0 L 47.9 49.0 L 47.8 49.1 L 47.7 49.2 L 47.7 49.2 L 47.8 49.1 L 48.3 48.7 L 48.3 48.6 L 48.3 48.6 L 48.3 48.6 L 48.3 48.6 L 48.3 48.6 L 48.4 48.6 L 48.4 48.5 L 48.5 48.5 L 48.5 48.4 L 48.6 48.3 L 48.8 48.1 L 48.9 48.0 L 48.8 48.1 L 48.8 48.2 L 48.6 48.3 L 48.6 48.3 L 48.6 48.3 Z M 45.8 50.8 L 45.7 50.8 L 45.7 50.8 L 45.7 50.8 L 45.7 50.8 L 45.6 50.9 L 45.7 50.9 L 45.6 50.9 L 45.6 50.9 L 45.6 50.9 L 45.6 50.9 L 45.6 50.9 L 45.6 50.9 L 45.6 50.9 L 45.6 50.9 L 45.5 51.0 L 45.5 51.0 L 45.5 51.0 L 45.5 51.0 L 45.4 51.0 L 45.4 51.0 L 45.4 51.0 L 45.4 51.0 L 45.3 51.1 L 45.3 51.1 L 45.2 51.2 L 45.2 51.2 L 45.2 51.2 L 45.1 51.2 L 45.1 51.2 L 45.0 51.3 L 45.0 51.3 L 45.0 51.3 L 45.0 51.3 L 45.0 51.3 L 45.0 51.3 L 45.0 51.3 L 45.0 51.3 L 44.9 51.4 L 44.9 51.4 L 44.8 51.4 L 44.7 51.5 L 44.7 51.5 L 44.7 51.5 L 44.7 51.5 L 44.8 51.4 L 44.9 51.4 L 44.9 51.4 L 44.9 51.4 L 44.9 51.4 L 44.9 51.4 L 45.0 51.3 L 45.0 51.3 L 44.9 51.4 L 44.9 51.4 L 44.9 51.3 L 45.0 51.3 L 45.0 51.3 L 45.0 51.3 L 45.0 51.3 L 44.9 51.4 L 44.8 51.4 L 44.8 51.4 L 44.7 51.5 L 44.7 51.5 L 44.6 51.5 L 44.6 51.6 L 44.5 51.6 L 44.5 51.7 L 44.5 51.7 L 44.5 51.6 L 44.5 51.6 L 44.5 51.6 L 44.5 51.7 L 44.5 51.6 L 44.6 51.6 L 44.7 51.5 L 44.7 51.5 L 44.7 51.5 L 44.8 51.5 L 44.8 51.4 L 44.9 51.4 L 44.9 51.4 L 45.0 51.3 L 45.1 51.3 L 45.1 51.2 L 45.1 51.2 L 45.2 51.2 L 45.3 51.1 L 45.3 51.1 L 45.3 51.1 L 45.4 51.1 L 45.4 51.0 L 45.4 51.0 L 45.5 51.0 L 45.4 51.0 L 45.5 51.0 L 45.5 51.0 L 45.5 51.0 L 45.6 50.9 L 45.5 50.9 L 45.6 50.9 L 45.5 50.9 L 45.5 50.9 L 45.5 50.9 L 45.5 50.9 L 45.6 50.9 L 45.6 50.9 L 45.6 50.9 L 45.6 50.9 L 45.7 50.8 L 45.6 50.9 L 45.6 50.9 L 45.7 50.8 L 45.7 50.8 L 45.7 50.8 L 45.6 50.9 L 45.7 50.8 L 45.7 50.8 L 45.8 50.8 L 45.7 50.8 L 45.7 50.8 L 45.7 50.8 L 45.7 50.9 L 45.7 50.8 L 45.7 50.8 L 45.7 50.8 L 45.7 50.8 L 45.7 50.8 L 45.7 50.8 L 45.7 50.8 L 45.7 50.8 L 45.7 50.8 L 45.7 50.8 L 45.7 50.8 L 45.7 50.8 L 45.6 50.9 L 45.7 50.8 L 45.7 50.8 L 45.7 50.8 L 45.7 50.8 L 45.7 50.8 L 45.6 50.9 L 45.7 50.9 L 45.8 50.8 L 45.7 50.8 L 45.8 50.8 L 45.8 50.7 L 45.9 50.7 L 46.0 50.6 L 45.9 50.6 L 45.9 50.6 L 46.0 50.6 L 46.2 50.5 L 46.2 50.4 L 46.2 50.4 L 46.1 50.5 L 46.2 50.5 L 46.1 50.5 L 46.0 50.6 L 45.9 50.7 L 45.8 50.7 L 45.8 50.8 Z M 53.7 23.7 L 53.8 23.7 L 53.8 23.7 L 53.7 23.7 L 53.7 23.6 L 53.7 23.6 L 53.7 23.7 L 53.8 23.7 L 53.8 23.9 L 53.8 23.9 L 53.9 24.0 L 53.9 24.0 L 53.9 24.1 L 53.9 24.1 L 53.9 24.1 L 54.0 24.4 L 54.0 24.5 L 54.1 24.5 L 54.1 24.6 L 54.1 24.7 L 54.1 24.7 L 54.1 24.8 L 54.2 24.8 L 54.2 24.9 L 54.2 25.0 L 54.2 25.0 L 54.2 25.1 L 54.2 25.1 L 54.3 25.2 L 54.3 25.3 L 54.3 25.3 L 54.3 25.3 L 54.3 25.3 L 54.3 25.2 L 54.3 25.2 L 54.2 25.1 L 54.2 25.1 L 54.2 25.1 L 54.2 25.1 L 54.3 25.2 L 54.3 25.2 L 54.3 25.2 L 54.3 25.2 L 54.2 25.1 L 54.2 25.1 L 54.2 25.1 L 54.2 25.1 L 54.2 25.1 L 54.3 25.2 L 54.3 25.3 L 54.3 25.3 L 54.3 25.4 L 54.3 25.4 L 54.3 25.4 L 54.3 25.4 L 54.4 25.6 L 54.4 25.6 L 54.3 25.5 L 54.3 25.5 L 54.4 25.5 L 54.3 25.5 L 54.3 25.5 L 54.3 25.4 L 54.3 25.4 L 54.3 25.3 L 54.3 25.3 L 54.3 25.3 L 54.3 25.3 L 54.3 25.3 L 54.3 25.4 L 54.3 25.4 L 54.4 25.5 L 54.3 25.5 L 54.3 25.4 L 54.3 25.4 L 54.3 25.3 L 54.3 25.3 L 54.3 25.4 L 54.3 25.5 L 54.4 25.5 L 54.4 25.5 L 54.3 25.5 L 54.4 25.5 L 54.3 25.4 L 54.3 25.3 L 54.3 25.2 L 54.2 25.1 L 54.2 25.1 L 54.2 25.1 L 54.3 25.2 L 54.3 25.3 L 54.3 25.3 L 54.3 25.2 L 54.3 25.2 L 54.3 25.2 L 54.2 25.1 L 54.2 25.1 L 54.2 25.0 L 54.1 24.8 L 54.1 24.8 L 54.1 24.8 L 54.1 24.7 L 54.1 24.7 L 54.1 24.7 L 54.1 24.7 L 54.1 24.7 L 54.1 24.7 L 54.1 24.6 L 54.1 24.5 L 54.0 24.4 L 54.0 24.3 L 53.9 24.2 L 53.9 24.2 L 53.8 23.9 L 53.8 23.8 L 53.8 23.8 L 53.8 23.7 L 53.7 23.7 L 53.7 23.7 Z M 55.2 29.7 L 55.2 29.7 L 55.2 29.7 L 55.2 29.7 L 55.2 29.8 L 55.2 29.9 L 55.2 29.9 L 55.2 30.0 L 55.2 30.1 L 55.2 30.2 L 55.2 30.3 L 55.2 30.5 L 55.2 30.4 L 55.2 30.3 L 55.2 30.4 L 55.2 30.5 L 55.2 30.5 L 55.2 30.6 L 55.2 30.6 L 55.2 30.6 L 55.2 30.6 L 55.2 30.5 L 55.2 30.4 L 55.2 30.3 L 55.2 30.2 L 55.2 30.1 L 55.2 30.0 L 55.2 29.9 L 55.2 29.8 L 55.2 29.8 L 55.2 29.7 L 55.2 29.6 L 55.1 29.5 L 55.1 29.5 L 55.1 29.5 L 55.2 29.6 L 55.2 29.6 L 55.2 29.6 L 55.2 29.6 L 55.2 29.6 L 55.2 29.6 L 55.2 29.6 L 55.2 29.6 L 55.2 29.6 L 55.2 29.6 L 55.2 29.6 L 55.2 29.6 L 55.2 29.7 L 55.2 29.7 L 55.2 29.6 L 55.2 29.7 L 55.2 29.7 L 55.2 29.7 L 55.2 29.7 L 55.2 29.7 L 55.2 29.7 L 55.2 29.8 L 55.2 29.8 L 55.2 29.9 L 55.2 29.9 L 55.2 30.0 L 55.2 30.3 L 55.2 30.3 L 55.2 30.3 L 55.2 30.4 L 55.2 30.4 L 55.2 30.4 L 55.2 30.4 L 55.2 30.5 L 55.2 30.5 L 55.2 30.6 L 55.2 30.7 L 55.2 30.8 L 55.3 30.9 L 55.3 31.0 L 55.3 31.1 L 55.3 31.2 L 55.3 31.3 L 55.3 31.3 L 55.3 31.4 L 55.3 31.5 L 55.3 31.6 L 55.3 31.6 L 55.3 31.8 L 55.3 31.8 L 55.3 31.7 L 55.3 31.7 L 55.3 31.8 L 55.3 31.9 L 55.3 32.0 L 55.3 31.9 L 55.3 32.0 L 55.3 32.0 L 55.3 32.0 L 55.3 32.1 L 55.3 32.2 L 55.3 32.2 L 55.3 32.2 L 55.3 32.2 L 55.3 32.2 L 55.3 32.2 L 55.3 32.3 L 55.3 32.3 L 55.3 32.4 L 55.3 32.4 L 55.3 32.4 L 55.3 32.4 L 55.3 32.3 L 55.3 32.3 L 55.3 32.3 L 55.3 32.4 L 55.3 32.3 L 55.3 32.4 L 55.3 32.4 L 55.3 32.4 L 55.3 32.4 L 55.3 32.4 L 55.3 32.3 L 55.3 32.2 L 55.3 32.1 L 55.3 32.1 L 55.3 32.0 L 55.3 32.0 L 55.3 31.9 L 55.3 31.8 L 55.3 31.7 L 55.3 31.6 L 55.3 31.6 L 55.3 31.5 L 55.3 31.5 L 55.3 31.6 L 55.3 31.5 L 55.3 31.5 L 55.3 31.5 L 55.3 31.5 L 55.3 31.5 L 55.3 31.5 L 55.3 31.6 L 55.3 31.6 L 55.3 31.6 L 55.3 31.6 L 55.3 31.6 L 55.3 31.5 L 55.3 31.6 L 55.3 31.7 L 55.3 31.8 L 55.3 31.8 L 55.3 31.8 L 55.3 31.8 L 55.3 31.9 L 55.3 32.0 L 55.3 32.0 L 55.3 32.0 L 55.3 32.1 L 55.3 32.0 L 55.3 32.0 L 55.3 32.0 L 55.3 32.0 L 55.3 32.1 L 55.3 32.0 L 55.3 32.1 L 55.3 32.1 L 55.3 32.2 L 55.3 32.3 L 55.3 32.3 L 55.3 32.4 L 55.3 32.5 L 55.3 32.5 L 55.3 32.5 L 55.3 32.6 L 55.3 32.6 L 55.3 32.6 L 55.3 32.6 L 55.3 32.5 L 55.3 32.4 L 55.3 32.3 L 55.3 32.2 L 55.3 32.2 L 55.3 32.2 L 55.3 32.2 L 55.3 32.3 L 55.3 32.3 L 55.3 32.3 L 55.3 32.3 L 55.3 32.4 L 55.3 32.4 L 55.3 32.3 L 55.3 32.2 L 55.3 32.1 L 55.3 32.1 L 55.3 32.1 L 55.3 32.0 L 55.3 32.0 L 55.3 31.9 L 55.3 31.9 L 55.3 31.9 L 55.3 31.9 L 55.3 31.9 L 55.3 31.8 L 55.3 31.8 L 55.3 31.7 L 55.3 31.7 L 55.3 31.6 L 55.3 31.5 L 55.3 31.4 L 55.3 31.4 L 55.3 31.3 L 55.3 31.3 L 55.3 31.3 L 55.3 31.3 L 55.3 31.3 L 55.3 31.2 L 55.3 31.2 L 55.3 31.2 L 55.3 31.1 L 55.3 31.1 L 55.3 31.1 L 55.3 31.1 L 55.3 31.1 L 55.3 31.1 L 55.3 31.1 L 55.3 31.0 L 55.3 31.1 L 55.3 31.1 L 55.3 31.0 L 55.3 31.0 L 55.3 30.9 L 55.3 30.9 L 55.3 31.0 L 55.3 31.0 L 55.3 31.0 L 55.3 30.9 L 55.3 31.0 L 55.3 31.0 L 55.3 30.9 L 55.3 30.9 L 55.2 30.8 L 55.2 30.7 L 55.2 30.7 L 55.2 30.7 L 55.2 30.8 L 55.3 30.8 L 55.3 30.9 L 55.3 31.0 L 55.3 31.1 L 55.3 31.2 L 55.3 31.2 L 55.3 31.2 L 55.3 31.1 L 55.3 31.0 L 55.3 30.9 L 55.2 30.8 L 55.2 30.8 L 55.2 30.8 L 55.2 30.7 L 55.2 30.7 L 55.2 30.7 L 55.2 30.6 L 55.2 30.5 L 55.2 30.5 L 55.2 30.5 L 55.2 30.5 L 55.2 30.4 L 55.2 30.4 L 55.2 30.4 L 55.2 30.3 L 55.2 30.3 L 55.2 30.2 L 55.2 30.3 L 55.2 30.4 L 55.2 30.4 L 55.2 30.5 L 55.2 30.5 L 55.2 30.4 L 55.2 30.4 L 55.2 30.3 L 55.2 30.2 L 55.2 30.2 L 55.2 30.3 L 55.2 30.3 L 55.2 30.3 L 55.2 30.2 L 55.2 30.2 L 55.2 30.1 L 55.2 30.0 L 55.2 30.0 L 55.2 29.9 L 55.2 29.8 L 55.2 29.8 L 55.2 29.7 L 55.2 29.7 L 55.2 29.7 L 55.2 29.7 Z M 55.2 30.0 L 55.2 30.1 L 55.2 30.2 L 55.2 30.3 L 55.2 30.3 L 55.2 30.4 L 55.2 30.4 L 55.2 30.5 L 55.2 30.4 L 55.2 30.4 L 55.2 30.5 L 55.2 30.6 L 55.2 30.6 L 55.2 30.7 L 55.2 30.7 L 55.2 30.7 L 55.2 30.7 L 55.3 30.9 L 55.3 31.0 L 55.3 31.1 L 55.3 31.2 L 55.3 31.3 L 55.3 31.3 L 55.3 31.4 L 55.3 31.4 L 55.3 31.4 L 55.3 31.3 L 55.3 31.2 L 55.3 31.1 L 55.3 31.1 L 55.3 31.1 L 55.3 31.1 L 55.3 31.0 L 55.3 31.0 L 55.3 31.0 L 55.3 30.9 L 55.3 30.9 L 55.3 30.9 L 55.2 30.8 L 55.3 30.8 L 55.3 31.0 L 55.3 31.0 L 55.3 31.0 L 55.3 31.0 L 55.3 31.0 L 55.3 31.1 L 55.3 31.3 L 55.3 31.3 L 55.3 31.5 L 55.3 31.5 L 55.3 31.5 L 55.3 31.5 L 55.3 31.6 L 55.3 31.6 L 55.3 31.6 L 55.3 31.7 L 55.3 31.8 L 55.3 31.9 L 55.3 31.9 L 55.3 31.9 L 55.3 32.0 L 55.3 32.1 L 55.3 32.1 L 55.3 32.2 L 55.3 32.2 L 55.3 32.2 L 55.3 32.3 L 55.3 32.3 L 55.3 32.3 L 55.3 32.3 L 55.3 32.3 L 55.3 32.4 L 55.3 32.4 L 55.3 32.4 L 55.3 32.4 L 55.3 32.4 L 55.3 32.5 L 55.3 32.6 L 55.3 32.7 L 55.3 32.7 L 55.3 32.7 L 55.3 32.6 L 55.3 32.5 L 55.3 32.4 L 55.3 32.4 L 55.3 32.4 L 55.3 32.2 L 55.3 32.2 L 55.3 32.1 L 55.3 32.0 L 55.3 31.9 L 55.3 31.9 L 55.3 32.0 L 55.3 32.1 L 55.3 32.2 L 55.3 32.2 L 55.3 32.4 L 55.3 32.5 L 55.3 32.7 L 55.3 32.9 L 55.3 33.0 L 55.3 33.1 L 55.3 33.1 L 55.3 33.1 L 55.3 33.2 L 55.2 33.2 L 55.2 33.2 L 55.2 33.2 L 55.3 33.1 L 55.3 33.0 L 55.3 32.9 L 55.3 32.8 L 55.3 32.6 L 55.3 32.5 L 55.3 32.5 L 55.3 32.4 L 55.3 32.4 L 55.3 32.4 L 55.3 32.4 L 55.3 32.4 L 55.3 32.3 L 55.3 32.2 L 55.3 32.2 L 55.3 32.1 L 55.3 32.1 L 55.3 32.0 L 55.3 31.9 L 55.3 31.8 L 55.3 31.7 L 55.3 31.6 L 55.3 31.5 L 55.3 31.3 L 55.3 31.3 L 55.3 31.3 L 55.3 31.2 L 55.3 31.0 L 55.3 31.0 L 55.3 30.9 L 55.2 30.8 L 55.2 30.7 L 55.2 30.6 L 55.2 30.6 L 55.2 30.5 L 55.2 30.5 L 55.2 30.6 L 55.2 30.5 L 55.2 30.5 L 55.2 30.4 L 55.2 30.3 L 55.2 30.3 L 55.2 30.3 L 55.2 30.3 L 55.2 30.3 L 55.2 30.3 L 55.2 30.3 L 55.2 30.3 L 55.2 30.3 L 55.2 30.3 L 55.2 30.3 L 55.2 30.2 L 55.2 30.2 L 55.2 30.2 L 55.2 30.0 L 55.2 29.9 L 55.2 29.9 L 55.2 29.8 L 55.2 29.7 L 55.2 29.7 L 55.2 29.8 L 55.2 29.8 L 55.2 29.9 L 55.2 30.0 L 55.2 30.0 Z M 55.2 31.3 L 55.3 31.3 L 55.3 31.3 L 55.3 31.2 L 55.3 31.2 L 55.4 31.3 L 55.4 31.4 L 55.4 31.4 L 55.4 31.5 L 55.4 31.6 L 55.5 31.6 L 55.5 31.7 L 55.5 31.7 L 55.6 31.8 L 55.6 31.9 L 55.6 31.9 L 55.6 32.0 L 55.6 32.1 L 55.7 32.1 L 55.7 32.1 L 55.7 32.2 L 55.7 32.1 L 55.7 32.1 L 55.7 32.0 L 55.7 32.1 L 55.7 32.2 L 55.7 32.2 L 55.7 32.2 L 55.8 32.3 L 55.8 32.3 L 55.8 32.4 L 55.8 32.5 L 55.8 32.5 L 55.8 32.5 L 55.8 32.6 L 55.8 32.7 L 55.8 32.7 L 55.8 32.6 L 55.8 32.5 L 55.8 32.5 L 55.8 32.5 L 55.9 32.6 L 55.9 32.7 L 55.8 32.8 L 55.8 32.8 L 55.8 32.9 L 55.8 32.9 L 55.8 33.0 L 55.9 33.0 L 55.9 33.1 L 55.9 33.0 L 55.9 33.0 L 55.9 33.2 L 55.9 33.3 L 55.9 33.4 L 55.9 33.4 L 55.9 33.4 L 55.9 33.5 L 55.9 33.6 L 55.9 33.6 L 55.9 33.6 L 55.9 33.5 L 55.9 33.5 L 55.9 33.5 L 55.9 33.5 L 55.9 33.7 L 55.9 33.7 L 55.9 33.8 L 55.9 33.9 L 55.9 34.0 L 55.9 34.0 L 55.9 34.1 L 55.9 34.3 L 55.8 34.5 L 55.8 34.8 L 55.8 34.8 L 55.8 34.8 L 55.8 34.8 L 55.8 34.8 L 55.8 34.9 L 55.8 34.8 L 55.8 34.8 L 55.8 34.9 L 55.8 35.0 L 55.8 34.9 L 55.8 34.9 L 55.8 34.8 L 55.8 34.7 L 55.8 34.6 L 55.8 34.6 L 55.7 34.5 L 55.7 34.3 L 55.7 34.2 L 55.7 34.2 L 55.7 34.1 L 55.7 34.0 L 55.7 33.9 L 55.7 33.9 L 55.7 33.6 L 55.7 33.4 L 55.6 33.3 L 55.6 33.2 L 55.6 33.1 L 55.6 33.1 L 55.6 33.1 L 55.6 33.0 L 55.5 32.8 L 55.5 32.5 L 55.5 32.5 L 55.5 32.4 L 55.4 32.4 L 55.4 32.3 L 55.4 32.2 L 55.4 32.2 L 55.4 32.1 L 55.3 32.0 L 55.3 31.9 L 55.3 31.9 L 55.3 31.8 L 55.2 31.7 L 55.1 31.6 L 55.1 31.4 L 55.1 31.4 L 55.1 31.3 L 55.1 31.3 L 55.1 31.3 L 55.2 31.3 L 55.2 31.3 L 55.2 31.3 L 55.2 31.3 Z M 55.0 28.7 L 55.0 28.7 L 55.0 28.6 L 55.0 28.5 L 55.0 28.5 L 55.0 28.6 L 55.0 28.6 L 55.0 28.6 L 55.0 28.7 L 55.0 28.7 L 55.1 28.8 L 55.1 28.9 L 55.1 28.8 L 55.1 28.8 L 55.1 28.8 L 55.1 28.9 L 55.1 28.9 L 55.1 28.9 L 55.1 28.8 L 55.1 28.8 L 55.1 28.9 L 55.1 28.9 L 55.1 28.9 L 55.1 28.9 L 55.1 28.9 L 55.1 29.0 L 55.1 29.0 L 55.1 29.1 L 55.1 29.1 L 55.1 29.1 L 55.1 29.2 L 55.1 29.3 L 55.1 29.4 L 55.1 29.4 L 55.1 29.4 L 55.1 29.5 L 55.1 29.5 L 55.1 29.5 L 55.2 29.6 L 55.2 29.6 L 55.2 29.7 L 55.2 29.7 L 55.2 29.7 L 55.2 29.7 L 55.2 29.8 L 55.2 29.8 L 55.2 29.8 L 55.2 29.8 L 55.2 29.8 L 55.2 29.9 L 55.2 30.0 L 55.2 30.0 L 55.2 30.0 L 55.2 30.0 L 55.2 30.0 L 55.2 30.1 L 55.2 30.1 L 55.2 30.1 L 55.2 30.2 L 55.2 30.2 L 55.2 30.3 L 55.2 30.3 L 55.2 30.4 L 55.2 30.4 L 55.2 30.5 L 55.2 30.5 L 55.2 30.6 L 55.2 30.7 L 55.2 30.7 L 55.2 30.8 L 55.2 30.8 L 55.2 30.7 L 55.2 30.8 L 55.3 30.8 L 55.3 30.9 L 55.3 31.1 L 55.3 31.3 L 55.3 31.4 L 55.3 31.5 L 55.3 31.5 L 55.3 31.6 L 55.3 31.7 L 55.3 31.8 L 55.3 31.7 L 55.3 31.7 L 55.3 31.7 L 55.3 31.8 L 55.3 31.8 L 55.3 31.9 L 55.3 31.9 L 55.3 32.0 L 55.3 32.0 L 55.3 32.0 L 55.3 32.1 L 55.3 32.2 L 55.3 32.2 L 55.3 32.2 L 55.3 32.3 L 55.3 32.3 L 55.3 32.3 L 55.3 32.3 L 55.3 32.4 L 55.3 32.5 L 55.3 32.5 L 55.3 32.5 L 55.3 32.6 L 55.3 32.6 L 55.3 32.7 L 55.3 32.8 L 55.3 33.1 L 55.3 33.1 L 55.3 32.9 L 55.3 32.9 L 55.3 32.9 L 55.3 32.9 L 55.3 32.8 L 55.3 32.9 L 55.3 32.9 L 55.3 32.9 L 55.3 33.0 L 55.3 32.9 L 55.3 32.9 L 55.3 32.9 L 55.3 32.9 L 55.3 32.8 L 55.3 33.0 L 55.3 33.1 L 55.3 33.1 L 55.2 33.2 L 55.2 33.2 L 55.3 33.1 L 55.3 33.0 L 55.3 33.0 L 55.3 33.0 L 55.3 33.0 L 55.3 33.1 L 55.3 33.1 L 55.3 33.1 L 55.3 33.1 L 55.3 33.1 L 55.3 33.1 L 55.3 33.1 L 55.3 33.1 L 55.3 33.0 L 55.3 32.8 L 55.3 32.7 L 55.3 32.6 L 55.3 32.5 L 55.3 32.5 L 55.3 32.4 L 56.0 32.4 L 56.0 32.4 L 56.0 32.4 L 56.0 32.3 L 56.0 32.3 L 56.0 32.3 L 56.0 32.2 L 56.0 32.1 L 56.0 32.1 L 56.0 32.1 L 56.0 32.0 L 56.0 32.0 L 56.0 31.8 L 56.0 31.7 L 56.0 31.6 L 56.0 31.6 L 56.0 31.6 L 56.0 31.5 L 56.0 31.4 L 56.0 31.3 L 56.0 31.3 L 56.0 31.3 L 56.0 31.3 L 56.0 31.3 L 56.0 31.3 L 55.3 31.3 L 55.3 31.3 L 55.3 31.3 L 55.3 31.3 L 55.3 31.3 L 55.3 31.2 L 55.3 31.1 L 55.3 31.1 L 55.3 31.0 L 55.3 30.9 L 55.3 30.9 L 55.3 30.9 L 55.3 30.9 L 55.2 30.8 L 55.2 30.7 L 55.2 30.6 L 55.2 30.5 L 55.2 30.4 L 55.2 30.3 L 55.2 30.0 L 55.2 29.9 L 55.2 29.8 L 55.2 29.8 L 55.2 29.8 L 55.2 29.7 L 55.2 29.6 L 55.2 29.6 L 55.1 29.5 L 55.2 29.5 L 55.1 29.5 L 55.1 29.4 L 55.1 29.4 L 55.1 29.3 L 55.1 29.2 L 55.1 29.2 L 55.1 29.2 L 55.1 29.2 L 55.1 29.1 L 55.1 28.9 L 55.0 28.7 L 55.0 28.5 L 55.0 28.6 L 55.0 28.7 L 55.0 28.7 Z M 47.3 14.4 L 47.2 14.4 L 47.3 14.5 L 47.4 14.5 L 47.4 14.6 L 47.5 14.6 L 47.5 14.7 L 47.6 14.7 L 47.6 14.7 L 47.7 14.8 L 47.8 14.9 L 47.8 14.9 L 47.8 14.9 L 47.8 14.9 L 47.9 15.0 L 47.9 15.0 L 48.0 15.1 L 48.0 15.1 L 48.1 15.2 L 48.1 15.2 L 48.2 15.3 L 48.2 15.3 L 48.4 15.5 L 48.5 15.5 L 48.5 15.6 L 48.6 15.7 L 48.6 15.7 L 48.7 15.7 L 48.7 15.8 L 48.8 15.8 L 48.8 15.9 L 48.9 16.0 L 48.9 16.0 L 49.0 16.0 L 49.0 16.1 L 49.1 16.2 L 49.1 16.2 L 49.1 16.2 L 49.0 16.1 L 49.0 16.1 L 48.9 16.0 L 48.9 16.0 L 48.9 16.0 L 48.9 16.0 L 48.9 16.0 L 48.9 16.0 L 49.0 16.1 L 49.0 16.1 L 49.0 16.1 L 49.0 16.1 L 49.0 16.1 L 49.1 16.2 L 49.1 16.2 L 49.2 16.3 L 49.2 16.4 L 49.3 16.4 L 49.3 16.4 L 49.2 16.3 L 49.2 16.3 L 49.2 16.3 L 49.2 16.3 L 49.3 16.4 L 49.4 16.5 L 49.4 16.5 L 49.4 16.5 L 49.5 16.6 L 49.4 16.6 L 49.4 16.5 L 49.4 16.6 L 49.4 16.6 L 49.4 16.6 L 49.5 16.6 L 49.4 16.6 L 49.4 16.5 L 49.4 16.5 L 49.4 16.5 L 49.5 16.6 L 49.5 16.7 L 49.5 16.7 L 49.6 16.7 L 49.6 16.8 L 49.7 16.9 L 49.8 17.0 L 49.9 17.1 L 49.9 17.1 L 49.8 17.0 L 49.8 17.0 L 49.7 16.9 L 49.7 16.9 L 49.7 16.8 L 49.6 16.8 L 49.7 16.8 L 49.7 16.8 L 49.7 16.9 L 49.7 16.9 L 49.7 16.9 L 49.8 17.0 L 49.8 17.0 L 49.9 17.1 L 49.9 17.1 L 49.9 17.2 L 50.0 17.2 L 50.0 17.2 L 50.0 17.2 L 50.1 17.3 L 50.1 17.4 L 50.1 17.4 L 50.2 17.4 L 50.2 17.5 L 50.2 17.5 L 50.2 17.5 L 50.2 17.4 L 50.1 17.4 L 50.1 17.4 L 50.1 17.3 L 50.0 17.3 L 50.0 17.2 L 49.9 17.1 L 49.9 17.1 L 49.8 17.0 L 49.7 16.9 L 49.7 16.8 L 49.6 16.8 L 49.6 16.8 L 49.6 16.8 L 49.6 16.7 L 49.5 16.7 L 49.5 16.6 L 49.4 16.5 L 49.4 16.5 L 49.4 16.6 L 49.4 16.6 L 49.4 16.5 L 49.4 16.5 L 49.3 16.4 L 49.2 16.4 L 49.2 16.3 L 49.1 16.2 L 49.0 16.1 L 48.9 16.0 L 48.8 15.9 L 48.7 15.8 L 48.7 15.8 L 48.8 15.9 L 48.9 15.9 L 48.9 16.0 L 48.9 16.0 L 48.9 16.0 L 48.9 16.0 L 48.9 15.9 L 48.8 15.9 L 48.7 15.8 L 48.6 15.7 L 48.6 15.6 L 48.5 15.6 L 48.4 15.5 L 48.3 15.4 L 48.3 15.3 L 48.2 15.3 L 48.1 15.2 L 48.0 15.1 L 48.0 15.1 L 47.9 15.0 L 47.9 15.0 L 47.8 14.9 L 47.8 14.9 L 47.8 14.9 L 47.8 14.9 L 47.8 14.9 L 47.7 14.8 L 47.7 14.8 L 47.6 14.8 L 47.6 14.7 L 47.6 14.7 L 47.5 14.7 L 47.5 14.6 L 47.5 14.6 L 47.4 14.6 L 47.4 14.5 L 47.4 14.5 L 47.4 14.5 L 47.5 14.6 L 47.5 14.6 L 47.4 14.6 L 47.4 14.5 L 47.4 14.5 L 47.3 14.5 L 47.3 14.5 L 47.3 14.5 L 47.3 14.5 L 47.3 14.4 L 47.3 14.4 L 47.3 14.4 L 47.3 14.4 Z M 43.6 42.3 L 43.6 42.3 L 43.7 42.5 L 43.7 42.6 L 43.7 42.8 L 43.7 43.1 L 43.7 43.2 L 43.7 43.4 L 43.6 43.5 L 43.6 43.5 L 43.6 43.5 L 43.5 43.4 L 43.5 43.4 L 43.4 43.4 L 43.4 43.5 L 43.4 43.6 L 43.5 43.6 L 43.5 43.7 L 43.4 43.8 L 43.4 43.9 L 43.4 43.9 L 43.3 44.0 L 43.3 44.1 L 43.2 44.3 L 43.1 44.5 L 43.0 44.7 L 42.9 45.0 L 42.8 45.2 L 42.6 45.5 L 42.4 45.9 L 42.3 46.0 L 42.3 46.2 L 42.2 46.4 L 42.1 46.5 L 42.0 46.6 L 42.0 46.7 L 41.9 46.8 L 41.8 46.9 L 41.7 46.9 L 41.5 47.0 L 41.4 47.0 L 41.2 47.1 L 41.1 47.0 L 41.0 47.0 L 41.0 47.0 L 40.9 46.9 L 40.9 46.9 L 40.8 46.9 L 40.8 46.8 L 40.8 46.7 L 40.8 46.6 L 40.8 46.5 L 40.9 46.4 L 40.8 46.4 L 40.8 46.3 L 40.8 46.2 L 40.8 46.1 L 40.8 46.0 L 40.8 45.9 L 40.9 45.9 L 40.9 45.7 L 41.0 45.7 L 41.1 45.6 L 41.2 45.5 L 41.2 45.4 L 41.3 45.3 L 41.3 45.1 L 41.4 45.0 L 41.3 44.9 L 41.3 44.9 L 41.3 44.8 L 41.3 44.7 L 41.3 44.5 L 41.3 44.4 L 41.5 44.1 L 41.5 44.0 L 41.5 43.9 L 41.6 43.9 L 41.7 43.9 L 41.8 43.8 L 41.9 43.8 L 41.9 43.8 L 41.9 43.8 L 42.0 43.8 L 42.0 43.7 L 42.1 43.7 L 42.2 43.7 L 42.2 43.7 L 42.3 43.7 L 42.2 43.7 L 42.2 43.6 L 42.3 43.6 L 42.5 43.4 L 42.5 43.4 L 42.5 43.5 L 42.5 43.5 L 42.6 43.5 L 42.5 43.4 L 42.6 43.4 L 42.6 43.3 L 42.7 43.2 L 42.7 43.2 L 42.7 43.3 L 42.7 43.3 L 42.7 43.3 L 42.8 43.2 L 42.8 43.2 L 42.9 43.2 L 42.8 43.1 L 42.9 42.9 L 42.9 42.9 L 42.9 42.9 L 42.9 42.8 L 43.0 42.8 L 43.0 42.8 L 43.1 42.8 L 43.1 42.7 L 43.3 42.6 L 43.3 42.5 L 43.3 42.4 L 43.3 42.3 L 43.3 42.3 L 43.5 42.2 L 43.5 42.2 L 43.5 42.2 L 43.6 42.3 L 43.6 42.3 Z M 23.5 53.7 L 23.5 53.7 L 23.5 53.7 L 23.7 53.7 L 23.8 53.8 L 24.0 53.9 L 24.1 53.9 L 24.2 53.9 L 24.3 54.0 L 24.5 54.0 L 24.6 54.1 L 24.7 54.1 L 24.8 54.1 L 24.8 54.2 L 24.8 54.1 L 24.8 54.1 L 24.8 54.1 L 24.8 54.1 L 24.8 54.1 L 24.7 54.1 L 24.7 54.1 L 24.7 54.1 L 24.7 54.1 L 24.7 54.1 L 24.7 54.1 L 24.7 54.1 L 24.6 54.1 L 24.6 54.1 L 24.7 54.1 L 24.7 54.1 L 24.6 54.1 L 24.6 54.1 L 24.5 54.1 L 24.5 54.0 L 24.5 54.0 L 24.5 54.0 L 24.4 54.0 L 24.5 54.0 L 24.5 54.0 L 24.5 54.0 L 24.5 54.0 L 24.5 54.1 L 24.6 54.1 L 24.6 54.1 L 24.6 54.1 L 24.6 54.1 L 24.6 54.1 L 24.5 54.1 L 24.5 54.0 L 24.5 54.0 L 24.4 54.0 L 24.4 54.0 L 24.4 54.0 L 24.4 54.0 L 24.4 54.0 L 24.4 54.0 L 24.4 54.0 L 24.3 54.0 L 24.3 54.0 L 24.3 54.0 L 24.4 54.0 L 24.4 54.0 L 24.4 54.0 L 24.3 54.0 L 24.3 54.0 L 24.3 54.0 L 24.3 54.0 L 24.3 54.0 L 24.2 53.9 L 24.2 53.9 L 24.2 53.9 L 24.2 53.9 L 24.2 53.9 L 24.2 53.9 L 24.2 53.9 L 24.2 53.9 L 24.2 53.9 L 24.1 53.9 L 24.1 53.9 L 24.1 53.9 L 24.1 53.9 L 24.1 53.9 L 24.0 53.9 L 23.9 53.8 L 23.9 53.8 L 24.0 53.8 L 24.0 53.8 L 23.9 53.8 L 23.8 53.8 L 23.9 53.8 L 23.9 53.8 L 23.8 53.8 L 23.8 53.8 L 23.7 53.8 L 23.6 53.7 L 23.5 53.7 L 23.5 53.7 L 23.5 53.7 L 23.4 53.6 L 23.4 53.6 L 23.4 53.6 L 23.3 53.6 L 23.4 53.6 L 23.5 53.7 L 23.5 53.7 Z M 11.0 22.0 L 11.0 22.0 L 10.9 22.1 L 10.9 22.1 L 10.9 22.1 L 10.9 22.2 L 10.9 22.2 L 10.9 22.2 L 10.8 22.3 L 10.8 22.3 L 10.8 22.4 L 10.8 22.5 L 10.7 22.5 L 10.7 22.6 L 10.7 22.6 L 10.7 22.6 L 10.6 22.8 L 10.6 22.9 L 10.6 22.9 L 10.6 22.9 L 10.6 22.9 L 10.5 23.0 L 10.5 23.0 L 10.5 23.0 L 10.5 23.0 L 10.5 23.1 L 10.5 23.0 L 10.5 23.1 L 10.5 23.1 L 10.5 23.2 L 10.5 23.2 L 10.4 23.2 L 10.4 23.3 L 9.7 23.1 L 9.7 23.1 L 9.7 23.2 L 9.7 23.2 L 9.7 23.2 L 9.7 23.2 L 9.6 23.3 L 9.6 23.3 L 9.6 23.4 L 9.6 23.5 L 9.6 23.5 L 9.6 23.5 L 9.5 23.6 L 9.5 23.6 L 9.5 23.6 L 9.5 23.6 L 9.5 23.6 L 9.5 23.6 L 9.5 23.5 L 9.5 23.6 L 9.5 23.5 L 10.2 23.8 L 10.3 23.7 L 10.3 23.7 L 10.3 23.7 L 10.3 23.6 L 10.3 23.5 L 10.3 23.5 L 10.3 23.4 L 10.4 23.4 L 10.4 23.4 L 10.4 23.3 L 10.4 23.3 L 10.4 23.2 L 10.5 23.1 L 10.5 23.1 L 10.6 22.9 L 10.6 22.9 L 10.6 22.8 L 10.6 22.8 L 10.7 22.6 L 10.7 22.6 L 10.7 22.5 L 10.7 22.5 L 10.8 22.5 L 10.8 22.4 L 10.8 22.4 L 10.8 22.4 L 10.8 22.4 L 10.8 22.3 L 10.8 22.3 L 10.9 22.2 L 10.9 22.2 L 10.9 22.2 L 10.9 22.2 L 10.9 22.1 L 10.9 22.1 L 10.9 22.1 L 10.9 22.1 L 10.9 22.1 L 10.9 22.1 L 10.9 22.1 L 10.9 22.1 L 10.9 22.1 L 10.9 22.2 L 10.9 22.2 L 10.9 22.2 L 10.9 22.1 L 10.9 22.1 L 10.9 22.1 L 10.9 22.1 L 10.9 22.1 L 10.9 22.1 L 10.9 22.1 L 11.0 22.0 L 11.0 22.0 L 11.0 21.9 L 11.0 21.9 L 11.0 21.9 L 11.0 21.9 L 11.0 22.0 Z M 31.8 10.3 L 31.8 10.3 L 31.8 10.3 L 31.8 10.3 L 31.8 10.3 L 31.8 10.3 L 31.8 10.3 L 31.8 10.3 L 31.8 10.3 L 31.9 10.3 L 31.9 10.3 L 31.9 10.3 L 31.9 10.4 L 31.9 10.4 L 31.9 10.4 L 31.9 10.4 L 31.9 10.4 L 32.0 10.4 L 32.0 10.4 L 32.0 10.4 L 32.0 10.4 L 32.0 10.4 L 32.1 10.5 L 32.1 10.5 L 32.1 10.5 L 32.1 10.5 L 32.0 10.5 L 32.0 10.5 L 31.9 10.5 L 31.9 10.6 L 31.9 10.6 L 31.9 10.6 L 31.9 10.6 L 31.9 10.6 L 31.9 10.6 L 31.9 10.7 L 31.8 10.7 L 31.8 10.7 L 31.8 10.8 L 31.7 10.8 L 31.7 10.8 L 31.7 10.8 L 31.7 10.9 L 31.7 10.9 L 31.7 10.9 L 31.6 10.9 L 31.6 10.9 L 31.5 10.8 L 31.5 10.8 L 31.5 10.7 L 31.5 10.7 L 31.5 10.7 L 31.5 10.7 L 31.5 10.7 L 31.5 10.7 L 31.7 10.7 L 31.7 10.7 L 31.7 10.6 L 31.7 10.6 L 31.6 10.6 L 31.6 10.6 L 31.5 10.7 L 31.5 10.7 L 31.5 10.6 L 31.5 10.6 L 31.5 10.6 L 31.5 10.6 L 31.5 10.6 L 31.5 10.6 L 31.6 10.6 L 31.6 10.6 L 31.6 10.6 L 31.7 10.5 L 31.7 10.5 L 31.8 10.5 L 31.7 10.5 L 31.7 10.5 L 31.7 10.5 L 31.7 10.5 L 31.7 10.5 L 31.6 10.5 L 31.6 10.5 L 31.6 10.5 L 31.6 10.5 L 31.6 10.5 L 31.6 10.5 L 31.6 10.5 L 31.6 10.5 L 31.6 10.5 L 31.6 10.5 L 31.5 10.5 L 31.5 10.5 L 31.5 10.5 L 31.5 10.5 L 31.5 10.6 L 31.5 10.6 L 31.4 10.6 L 31.4 10.5 L 31.4 10.5 L 31.4 10.5 L 31.3 10.5 L 31.3 10.5 L 31.3 10.5 L 31.3 10.4 L 31.3 10.4 L 31.4 10.4 L 31.4 10.4 L 31.4 10.4 L 31.4 10.4 L 31.4 10.4 L 31.4 10.4 L 31.4 10.4 L 31.4 10.4 L 31.3 10.4 L 31.3 10.4 L 31.3 10.4 L 31.3 10.4 L 31.3 10.3 L 31.3 10.3 L 31.3 10.3 L 31.3 10.3 L 31.3 10.3 L 31.3 10.3 L 31.3 10.3 L 31.4 10.3 L 31.4 10.3 L 31.4 10.3 L 31.4 10.3 L 31.4 10.3 L 31.5 10.3 L 31.5 10.3 L 31.6 10.3 L 31.5 10.3 L 31.5 10.3 L 31.5 10.3 L 31.5 10.3 L 31.5 10.3 L 31.5 10.4 L 31.5 10.4 L 31.5 10.3 L 31.5 10.3 L 31.6 10.3 L 31.6 10.3 L 31.6 10.3 L 31.6 10.4 L 31.7 10.4 L 31.7 10.4 L 31.7 10.4 L 31.7 10.3 L 31.7 10.3 L 31.7 10.3 L 31.7 10.3 L 31.7 10.2 L 31.7 10.2 L 31.8 10.3 L 31.8 10.3 Z M 27.1 15.2 L 27.1 15.2 L 27.0 15.3 L 26.9 15.3 L 26.8 15.4 L 26.8 15.4 L 26.8 15.4 L 26.7 15.5 L 26.8 15.5 L 26.9 15.4 L 27.0 15.5 L 27.0 15.5 L 27.1 15.5 L 27.2 15.5 L 27.2 15.5 L 27.2 15.6 L 27.1 15.6 L 27.1 15.6 L 27.0 15.7 L 26.9 15.8 L 26.9 15.8 L 26.8 15.8 L 26.8 15.9 L 26.8 15.9 L 26.8 15.9 L 26.9 15.9 L 26.8 15.9 L 26.7 16.0 L 26.7 16.0 L 26.6 15.9 L 26.6 16.0 L 26.7 16.0 L 26.8 16.0 L 26.9 16.1 L 27.0 16.1 L 27.0 16.2 L 27.0 16.3 L 27.0 16.4 L 27.1 16.5 L 27.1 16.5 L 27.1 16.6 L 27.1 16.6 L 27.1 16.7 L 27.1 16.8 L 27.2 16.8 L 27.1 16.8 L 27.1 16.8 L 27.0 16.8 L 27.0 16.7 L 27.1 16.8 L 27.2 16.9 L 27.1 17.0 L 27.1 17.0 L 27.1 17.1 L 27.1 17.1 L 27.2 17.0 L 27.2 17.0 L 27.3 17.0 L 27.4 17.1 L 27.4 17.1 L 27.4 17.2 L 27.4 17.2 L 27.4 17.3 L 27.3 17.3 L 27.3 17.4 L 27.2 17.4 L 27.2 17.4 L 27.2 17.4 L 27.2 17.4 L 27.1 17.4 L 27.1 17.5 L 27.1 17.5 L 27.0 17.5 L 27.0 17.5 L 27.0 17.5 L 27.1 17.6 L 27.2 17.6 L 27.2 17.6 L 27.2 17.6 L 27.1 17.7 L 27.1 17.7 L 27.0 17.7 L 26.9 17.7 L 26.9 17.7 L 26.7 17.7 L 26.6 17.7 L 26.5 17.7 L 26.5 17.7 L 26.4 17.7 L 26.4 17.7 L 26.3 17.7 L 26.3 17.7 L 26.3 17.7 L 26.2 17.7 L 26.2 17.7 L 26.1 17.7 L 26.1 17.7 L 25.9 17.7 L 25.9 17.8 L 25.8 17.8 L 25.7 17.8 L 25.7 17.8 L 25.7 17.8 L 25.6 17.8 L 25.6 17.8 L 25.5 17.8 L 25.4 17.8 L 25.4 17.8 L 25.3 17.8 L 25.3 17.8 L 25.4 17.8 L 25.5 17.7 L 25.6 17.7 L 25.6 17.7 L 25.7 17.6 L 25.7 17.5 L 25.8 17.5 L 25.9 17.5 L 26.0 17.5 L 26.1 17.5 L 26.2 17.5 L 26.2 17.4 L 26.3 17.4 L 26.3 17.4 L 26.2 17.4 L 26.1 17.4 L 26.0 17.4 L 26.0 17.4 L 25.9 17.4 L 25.9 17.4 L 25.9 17.3 L 25.9 17.3 L 25.8 17.3 L 25.8 17.3 L 25.7 17.3 L 25.7 17.3 L 25.7 17.2 L 25.7 17.2 L 25.9 17.2 L 26.0 17.1 L 26.0 17.1 L 26.1 17.0 L 26.1 17.0 L 26.1 17.0 L 26.1 17.0 L 26.1 16.9 L 26.0 16.9 L 26.0 16.9 L 25.9 16.9 L 26.0 16.9 L 26.0 16.9 L 26.1 16.8 L 26.2 16.8 L 26.2 16.8 L 26.3 16.8 L 26.4 16.8 L 26.4 16.8 L 26.4 16.8 L 26.4 16.8 L 26.4 16.8 L 26.4 16.8 L 26.4 16.7 L 26.5 16.7 L 26.5 16.7 L 26.5 16.6 L 26.5 16.6 L 26.5 16.6 L 26.5 16.6 L 26.4 16.5 L 26.4 16.4 L 26.5 16.3 L 26.6 16.3 L 26.5 16.3 L 26.5 16.3 L 26.4 16.3 L 26.4 16.3 L 26.4 16.3 L 26.3 16.3 L 26.3 16.3 L 26.3 16.3 L 26.2 16.3 L 26.2 16.3 L 26.2 16.3 L 26.1 16.3 L 26.1 16.2 L 26.2 16.2 L 26.3 16.1 L 26.3 16.1 L 26.3 16.1 L 26.3 16.0 L 26.4 16.0 L 26.4 16.0 L 26.4 15.9 L 26.4 15.9 L 26.4 15.9 L 26.3 15.9 L 26.3 15.9 L 26.3 15.9 L 26.3 16.0 L 26.3 15.9 L 26.3 15.9 L 26.3 15.9 L 26.2 15.9 L 26.2 15.9 L 26.2 16.0 L 26.1 16.1 L 26.1 16.1 L 26.1 16.1 L 26.1 16.1 L 26.1 16.0 L 26.2 16.0 L 26.2 16.0 L 26.2 16.0 L 26.2 15.9 L 26.3 15.8 L 26.3 15.8 L 26.3 15.8 L 26.4 15.7 L 26.4 15.7 L 26.3 15.7 L 26.2 15.7 L 26.2 15.7 L 26.2 15.7 L 26.2 15.7 L 26.3 15.6 L 26.3 15.6 L 26.4 15.6 L 26.4 15.5 L 26.4 15.5 L 26.4 15.5 L 26.4 15.4 L 26.4 15.4 L 26.4 15.4 L 26.5 15.4 L 26.5 15.3 L 26.5 15.3 L 26.6 15.4 L 26.6 15.3 L 26.6 15.3 L 26.6 15.3 L 26.6 15.2 L 26.7 15.2 L 26.7 15.2 L 26.7 15.2 L 26.7 15.2 L 26.7 15.2 L 26.7 15.2 L 26.8 15.2 L 26.8 15.2 L 26.8 15.2 L 26.9 15.2 L 27.0 15.2 L 27.1 15.2 L 27.1 15.2 L 27.1 15.2 Z M 25.7 16.2 L 25.8 16.2 L 25.8 16.1 L 25.8 16.1 L 25.9 16.1 L 26.0 16.1 L 26.0 16.2 L 26.0 16.3 L 26.0 16.3 L 25.9 16.3 L 26.0 16.3 L 26.0 16.3 L 26.0 16.4 L 26.0 16.4 L 26.0 16.4 L 26.0 16.4 L 26.0 16.4 L 25.9 16.5 L 25.9 16.5 L 25.9 16.5 L 25.8 16.5 L 25.8 16.5 L 25.8 16.5 L 25.7 16.5 L 25.7 16.5 L 25.7 16.6 L 25.7 16.6 L 25.7 16.7 L 25.7 16.7 L 25.7 16.7 L 25.7 16.8 L 25.6 16.9 L 25.6 16.9 L 25.6 17.0 L 25.5 17.0 L 25.5 17.1 L 25.4 17.1 L 25.4 17.1 L 25.3 17.1 L 25.3 17.1 L 25.3 17.1 L 25.2 17.1 L 25.2 17.1 L 25.1 17.1 L 25.1 17.1 L 25.1 17.2 L 25.0 17.2 L 25.0 17.1 L 25.0 17.1 L 25.0 17.1 L 24.9 17.2 L 24.9 17.2 L 24.8 17.2 L 24.7 17.2 L 24.7 17.2 L 24.6 17.2 L 24.6 17.2 L 24.7 17.2 L 24.7 17.2 L 24.5 17.2 L 24.5 17.2 L 24.6 17.1 L 24.6 17.1 L 24.6 17.1 L 24.5 17.1 L 24.5 17.1 L 24.6 17.0 L 24.6 17.0 L 24.6 17.0 L 24.5 17.0 L 24.6 17.0 L 24.6 16.9 L 24.7 17.0 L 24.7 17.0 L 24.7 16.9 L 24.7 16.9 L 24.8 16.9 L 24.9 16.9 L 25.0 16.9 L 25.0 16.8 L 24.9 16.9 L 24.8 16.9 L 24.8 16.9 L 24.8 16.9 L 24.8 16.8 L 24.9 16.8 L 24.9 16.8 L 24.9 16.7 L 25.0 16.7 L 25.0 16.7 L 25.0 16.7 L 25.0 16.7 L 24.9 16.7 L 24.9 16.7 L 24.9 16.6 L 24.9 16.6 L 24.9 16.6 L 24.9 16.6 L 24.8 16.6 L 24.8 16.6 L 24.8 16.5 L 24.9 16.5 L 24.9 16.5 L 24.9 16.5 L 24.9 16.5 L 25.0 16.5 L 25.0 16.5 L 24.9 16.5 L 25.0 16.4 L 25.0 16.4 L 25.0 16.4 L 25.0 16.4 L 25.0 16.3 L 25.0 16.3 L 25.1 16.3 L 25.1 16.3 L 25.2 16.4 L 25.2 16.3 L 25.3 16.4 L 25.3 16.4 L 25.3 16.3 L 25.4 16.3 L 25.4 16.3 L 25.5 16.3 L 25.3 16.2 L 25.4 16.2 L 25.4 16.2 L 25.4 16.2 L 25.5 16.1 L 25.5 16.1 L 25.5 16.1 L 25.6 16.1 L 25.6 16.1 L 25.6 16.1 L 25.7 16.1 L 25.7 16.1 L 25.6 16.1 L 25.6 16.2 L 25.7 16.2 L 25.7 16.1 L 25.7 16.1 L 25.7 16.1 L 25.7 16.1 L 25.8 16.1 L 25.8 16.1 L 25.7 16.1 L 25.7 16.2 L 25.7 16.2 Z M 34.9 8.9 L 34.6 8.9 L 34.4 8.8 L 34.3 8.8 L 34.2 8.8 L 34.1 8.8 L 33.8 8.8 L 33.7 8.8 L 33.9 8.8 L 34.1 8.8 L 34.2 8.8 L 34.3 8.8 L 34.6 8.9 L 35.1 8.9 L 35.1 8.9 L 35.2 8.9 L 36.0 9.1 L 36.1 9.1 L 35.8 9.0 L 35.8 9.0 L 35.9 9.1 L 36.2 9.1 L 37.1 9.3 L 37.5 9.4 L 38.0 9.5 L 38.7 9.7 L 39.0 9.8 L 39.7 10.0 L 39.9 10.1 L 39.9 10.1 L 40.7 10.4 L 41.4 10.7 L 42.3 11.1 L 41.3 10.7 L 40.3 10.3 L 39.0 9.8 L 38.3 9.6 L 38.6 9.7 L 39.2 9.9 L 39.2 9.8 L 39.5 10.0 L 40.5 10.3 L 40.9 10.5 L 40.9 10.5 L 41.2 10.6 L 41.6 10.8 L 42.9 11.4 L 44.1 12.1 L 44.2 12.2 L 44.3 12.2 L 43.9 12.0 L 44.1 12.1 L 45.0 12.7 L 45.7 13.2 L 47.1 14.2 L 47.8 14.9 L 48.1 15.1 L 48.6 15.7 L 49.2 16.3 L 49.8 16.9 L 50.2 17.5 L 50.3 17.6 L 50.5 17.8 L 50.2 17.5 L 49.9 17.2 L 49.8 17.0 L 49.7 16.9 L 49.6 16.8 L 49.3 16.5 L 49.5 16.6 L 50.3 16.5 L 50.0 16.1 L 50.0 16.2 L 50.6 16.9 L 50.9 17.2 L 50.1 17.3 L 50.2 17.5 L 51.1 17.4 L 51.4 17.8 L 51.3 18.9 L 51.4 19.2 L 51.6 19.5 L 51.8 19.7 L 51.9 20.0 L 52.2 20.4 L 52.5 21.0 L 52.6 21.1 L 52.8 21.4 L 52.9 21.8 L 53.1 22.2 L 53.9 22.2 L 54.1 22.6 L 54.1 22.8 L 54.1 22.7 L 54.2 23.1 L 54.3 23.2 L 54.4 23.6 L 54.5 23.9 L 54.3 23.5 L 54.3 23.5 L 54.4 23.9 L 54.5 24.5 L 54.8 25.3 L 55.0 25.8 L 55.3 26.5 L 55.5 27.3 L 55.6 28.1 L 55.6 28.2 L 55.6 28.5 L 55.6 28.6 L 55.4 28.4 L 55.3 28.0 L 55.2 27.8 L 55.0 27.9 L 55.3 29.4 L 55.5 30.0 L 55.6 30.1 L 55.8 31.5 L 55.8 32.1 L 55.6 31.5 L 55.4 30.2 L 55.3 29.9 L 55.1 28.7 L 55.0 28.2 L 54.7 27.4 L 54.4 26.6 L 54.3 26.7 L 54.3 27.1 L 54.2 27.0 L 54.0 26.3 L 53.7 26.0 L 53.6 25.8 L 53.5 25.6 L 53.0 24.9 L 52.8 24.7 L 53.0 25.2 L 52.9 25.3 L 52.8 25.5 L 52.7 25.6 L 52.6 25.8 L 52.6 26.6 L 52.5 27.3 L 52.2 28.4 L 52.2 29.4 L 52.3 30.5 L 52.4 31.4 L 51.7 31.7 L 51.4 30.9 L 50.9 29.6 L 50.2 28.4 L 50.0 27.8 L 49.8 26.9 L 49.6 26.8 L 49.0 27.2 L 49.0 26.6 L 48.5 26.4 L 48.1 26.4 L 47.7 25.9 L 46.9 26.2 L 46.1 26.3 L 45.0 26.2 L 44.2 26.2 L 42.9 25.6 L 42.2 25.0 L 41.9 25.2 L 41.9 25.4 L 42.4 26.2 L 42.8 26.7 L 43.2 26.6 L 43.4 27.3 L 44.4 27.1 L 44.8 26.2 L 45.6 27.2 L 46.2 27.8 L 45.8 28.8 L 45.2 29.9 L 44.3 30.8 L 43.1 31.7 L 41.8 32.4 L 41.0 31.6 L 40.8 30.8 L 40.0 29.6 L 39.2 28.4 L 38.5 27.6 L 37.3 26.4 L 36.8 26.2 L 36.7 26.1 L 37.6 27.6 L 38.5 28.8 L 38.9 30.2 L 39.8 31.6 L 40.9 32.3 L 41.1 33.0 L 42.8 33.0 L 44.2 32.5 L 44.1 33.1 L 43.2 35.7 L 40.9 38.3 L 40.3 39.0 L 39.8 39.9 L 39.9 41.0 L 40.1 41.8 L 40.2 42.5 L 40.2 43.1 L 40.2 43.6 L 39.5 44.4 L 38.4 45.1 L 37.7 45.7 L 37.9 46.5 L 36.8 47.5 L 36.4 48.5 L 34.6 49.9 L 32.9 50.1 L 31.8 50.2 L 31.4 50.1 L 31.4 49.5 L 30.2 47.9 L 29.9 46.7 L 28.7 44.5 L 29.5 42.5 L 29.3 41.6 L 28.9 40.5 L 28.5 39.9 L 27.7 39.1 L 27.6 38.8 L 27.4 38.4 L 27.6 38.0 L 27.7 37.5 L 27.7 36.5 L 27.4 36.2 L 27.1 36.2 L 26.5 36.1 L 26.3 36.3 L 26.0 35.8 L 25.6 35.4 L 24.2 35.5 L 22.6 35.6 L 22.0 35.5 L 20.8 35.6 L 19.2 34.1 L 19.1 33.7 L 18.9 33.2 L 18.6 32.6 L 18.4 32.4 L 18.5 32.2 L 18.0 31.8 L 18.0 31.5 L 18.1 31.5 L 17.9 30.9 L 18.6 29.0 L 18.5 28.2 L 19.2 27.2 L 20.4 25.8 L 21.7 24.8 L 23.6 23.0 L 24.4 23.3 L 25.5 23.0 L 27.5 22.9 L 28.6 22.9 L 28.9 23.2 L 28.6 24.1 L 29.1 24.5 L 30.5 25.2 L 32.0 25.1 L 33.2 24.9 L 34.8 25.3 L 35.8 25.1 L 36.3 25.2 L 37.1 25.0 L 37.4 23.5 L 37.2 23.0 L 36.0 23.1 L 35.0 23.1 L 34.7 23.0 L 34.3 22.7 L 34.1 22.3 L 34.3 22.2 L 34.0 21.9 L 34.5 21.7 L 34.9 21.4 L 36.7 21.0 L 37.8 21.3 L 38.4 20.5 L 37.1 19.8 L 37.1 19.6 L 37.1 19.2 L 37.2 19.0 L 36.4 19.4 L 36.6 19.7 L 36.4 19.9 L 35.7 19.8 L 35.4 19.4 L 35.4 19.3 L 35.1 19.4 L 34.8 20.0 L 34.6 20.4 L 34.6 21.3 L 34.0 21.8 L 33.5 21.5 L 33.3 21.7 L 33.1 21.8 L 33.1 22.2 L 33.0 22.3 L 33.1 22.6 L 33.0 22.8 L 32.8 23.2 L 32.4 22.7 L 33.0 22.6 L 32.5 22.5 L 32.4 22.2 L 31.8 21.7 L 31.6 21.0 L 31.1 20.6 L 30.6 20.2 L 30.1 19.8 L 29.7 19.8 L 30.1 20.8 L 31.4 21.6 L 30.9 21.9 L 30.6 22.5 L 30.4 21.7 L 30.0 21.4 L 29.3 20.9 L 28.7 20.1 L 27.6 20.5 L 27.2 20.3 L 26.8 21.0 L 25.6 21.7 L 25.2 22.5 L 23.9 22.7 L 23.4 22.6 L 22.8 22.4 L 22.8 21.8 L 22.9 21.5 L 23.4 20.6 L 23.4 20.3 L 23.9 20.0 L 25.0 20.2 L 25.8 19.8 L 26.0 19.4 L 25.9 18.9 L 25.6 18.7 L 25.4 18.4 L 25.9 18.4 L 26.3 18.1 L 27.0 18.0 L 27.9 17.6 L 27.9 17.5 L 28.6 17.0 L 29.1 17.0 L 29.3 16.8 L 29.3 16.3 L 29.6 15.9 L 29.8 15.7 L 29.9 16.1 L 29.5 16.4 L 29.7 16.7 L 30.3 16.7 L 30.5 16.9 L 31.5 16.6 L 32.1 16.6 L 32.3 16.5 L 32.7 15.8 L 32.9 15.5 L 32.8 15.2 L 33.7 15.1 L 34.1 15.0 L 33.5 14.9 L 33.2 14.9 L 32.7 15.0 L 32.5 15.0 L 32.3 14.9 L 32.3 14.5 L 32.3 14.1 L 32.7 13.8 L 32.9 13.5 L 32.5 13.4 L 32.3 13.5 L 32.2 13.7 L 31.9 14.0 L 31.7 14.2 L 31.5 14.3 L 31.4 14.6 L 31.6 14.9 L 31.6 15.2 L 31.5 15.3 L 31.2 15.7 L 31.0 16.2 L 30.3 16.4 L 30.3 16.0 L 30.1 15.3 L 30.0 15.1 L 29.7 15.3 L 29.1 15.5 L 29.0 15.3 L 29.0 15.1 L 29.0 15.0 L 29.2 14.8 L 29.0 14.9 L 29.0 14.6 L 29.5 14.5 L 29.0 14.5 L 29.3 14.4 L 29.4 14.2 L 29.6 14.2 L 29.8 14.1 L 30.0 14.0 L 30.3 13.9 L 30.1 14.0 L 30.5 13.6 L 30.6 13.5 L 30.9 13.3 L 31.1 13.0 L 31.3 13.0 L 31.3 12.8 L 31.4 12.7 L 31.6 12.6 L 31.8 12.5 L 32.0 12.4 L 32.3 12.4 L 32.4 12.3 L 32.7 12.1 L 32.8 12.3 L 33.0 12.1 L 33.2 12.3 L 33.4 12.2 L 33.5 12.3 L 33.9 12.4 L 34.0 12.5 L 34.8 12.6 L 35.4 12.9 L 34.3 13.1 L 34.1 13.1 L 34.5 13.4 L 35.1 13.8 L 34.9 13.5 L 35.5 13.5 L 35.8 13.0 L 35.9 12.9 L 35.7 12.5 L 36.2 12.9 L 36.4 12.6 L 36.7 12.3 L 36.9 12.3 L 37.1 12.2 L 37.6 12.2 L 37.4 11.9 L 38.6 12.0 L 38.1 11.7 L 37.7 11.5 L 37.5 11.0 L 38.4 11.4 L 39.2 11.9 L 39.3 12.3 L 39.5 12.3 L 39.1 11.7 L 39.8 11.8 L 39.0 11.6 L 38.1 11.2 L 38.0 11.0 L 38.5 11.1 L 38.3 11.1 L 38.2 10.9 L 38.8 11.0 L 39.1 11.1 L 38.9 10.9 L 38.3 10.8 L 38.1 10.5 L 38.4 10.5 L 37.9 10.4 L 37.7 10.2 L 37.6 9.9 L 37.6 9.9 L 37.6 9.8 L 37.5 9.7 L 37.3 9.6 L 37.4 9.5 L 37.5 9.5 L 37.7 9.4 L 37.9 9.4 L 38.4 9.7 L 39.0 10.0 L 38.7 9.7 L 38.7 9.7 L 39.1 9.8 L 38.8 9.7 L 38.9 9.5 L 38.7 9.4 L 38.6 9.3 L 38.6 9.2 L 38.9 9.3 L 39.3 9.4 L 38.9 9.2 L 38.8 9.1 L 38.6 9.1 L 38.4 9.0 L 37.9 8.8 L 38.0 8.8 L 38.2 8.9 L 37.9 8.8 L 37.8 8.7 L 37.1 9.3 L 37.2 9.3 L 36.3 9.1 L 36.0 9.1 L 35.2 8.9 L 34.9 8.9 Z M 26.4 12.8 L 26.4 12.8 L 26.5 12.8 L 26.5 12.8 L 26.5 12.8 L 26.5 12.8 L 26.4 12.8 L 26.4 12.9 L 26.4 12.9 L 26.4 12.9 L 26.4 12.9 L 26.4 12.9 L 26.4 12.9 L 26.4 13.0 L 26.4 13.0 L 26.4 13.0 L 26.4 13.0 L 26.4 13.0 L 26.4 13.0 L 26.5 13.0 L 26.5 13.0 L 26.5 13.0 L 26.5 13.1 L 26.5 13.1 L 26.4 13.1 L 26.4 13.1 L 26.4 13.1 L 26.4 13.1 L 26.4 13.1 L 26.4 13.1 L 26.4 13.2 L 26.4 13.2 L 26.4 13.2 L 26.3 13.2 L 26.3 13.2 L 26.3 13.2 L 26.2 13.2 L 26.2 13.2 L 26.2 13.3 L 26.2 13.3 L 26.1 13.3 L 26.1 13.3 L 26.0 13.3 L 25.9 13.3 L 25.8 13.3 L 25.7 13.4 L 25.7 13.4 L 25.6 13.4 L 25.5 13.4 L 25.5 13.4 L 25.4 13.4 L 25.4 13.4 L 25.4 13.4 L 25.4 13.4 L 25.4 13.4 L 25.4 13.4 L 25.2 13.4 L 25.2 13.4 L 25.1 13.4 L 25.1 13.3 L 25.1 13.3 L 25.1 13.3 L 25.1 13.3 L 25.1 13.3 L 25.1 13.3 L 25.1 13.3 L 25.1 13.3 L 25.1 13.2 L 25.1 13.2 L 25.0 13.2 L 25.0 13.2 L 24.8 13.2 L 24.8 13.2 L 24.9 13.2 L 24.9 13.1 L 24.9 13.2 L 24.9 13.2 L 25.0 13.2 L 25.0 13.2 L 25.0 13.1 L 25.1 13.1 L 25.1 13.1 L 25.1 13.1 L 25.0 13.1 L 25.0 13.1 L 25.1 13.1 L 25.1 13.1 L 25.1 13.1 L 25.2 13.0 L 25.2 13.0 L 25.1 13.1 L 25.1 13.0 L 25.1 13.0 L 25.1 13.0 L 25.1 13.0 L 25.1 13.0 L 25.0 12.9 L 24.9 12.9 L 24.9 12.9 L 24.9 12.9 L 24.9 12.9 L 25.0 12.9 L 25.0 12.9 L 25.0 12.9 L 25.1 12.9 L 25.1 12.9 L 25.1 12.9 L 25.1 12.9 L 25.1 12.9 L 25.2 12.9 L 25.3 12.9 L 25.3 12.9 L 25.2 12.9 L 25.2 12.9 L 25.2 12.9 L 25.3 12.9 L 25.3 12.8 L 25.3 12.8 L 25.3 12.8 L 25.2 12.8 L 25.2 12.8 L 25.1 12.8 L 25.1 12.8 L 25.0 12.7 L 25.1 12.7 L 25.1 12.7 L 25.1 12.8 L 25.1 12.7 L 25.1 12.7 L 25.1 12.7 L 25.2 12.7 L 25.2 12.7 L 25.2 12.7 L 25.2 12.7 L 25.2 12.7 L 25.2 12.7 L 25.2 12.7 L 25.2 12.6 L 25.3 12.6 L 25.3 12.6 L 25.3 12.7 L 25.3 12.6 L 25.3 12.6 L 25.3 12.6 L 25.3 12.6 L 25.4 12.6 L 25.3 12.7 L 25.3 12.7 L 25.4 12.7 L 25.4 12.7 L 25.4 12.7 L 25.4 12.7 L 25.4 12.7 L 25.4 12.7 L 25.4 12.7 L 25.4 12.7 L 25.4 12.6 L 25.4 12.6 L 25.4 12.6 L 25.5 12.6 L 25.5 12.6 L 25.5 12.6 L 25.4 12.6 L 25.4 12.6 L 25.5 12.6 L 25.5 12.6 L 25.5 12.6 L 25.5 12.6 L 25.5 12.6 L 25.5 12.7 L 25.5 12.7 L 25.5 12.7 L 25.5 12.7 L 25.5 12.7 L 25.5 12.8 L 25.4 12.8 L 25.4 12.8 L 25.4 12.8 L 25.4 12.8 L 25.4 12.8 L 25.4 12.8 L 25.4 12.8 L 25.4 12.9 L 25.4 12.9 L 25.4 12.9 L 25.5 12.9 L 25.5 12.9 L 25.5 12.8 L 25.6 12.8 L 25.5 12.8 L 25.6 12.8 L 25.6 12.8 L 25.7 12.8 L 25.7 12.7 L 25.7 12.7 L 25.7 12.8 L 25.7 12.8 L 25.7 12.8 L 25.7 12.8 L 25.8 12.8 L 25.8 12.8 L 25.9 12.8 L 25.9 12.7 L 25.9 12.8 L 25.9 12.8 L 25.9 12.8 L 25.9 12.9 L 25.9 12.9 L 25.9 12.9 L 26.0 12.8 L 26.0 12.8 L 26.0 12.8 L 26.0 12.8 L 26.0 12.8 L 26.1 12.8 L 26.1 12.8 L 26.2 12.8 L 26.2 12.8 L 26.2 12.8 L 26.2 12.8 L 26.3 12.8 L 26.3 12.7 L 26.3 12.7 L 26.4 12.7 L 26.4 12.8 L 26.4 12.8 L 26.4 12.8 L 26.4 12.8 Z M 24.5 9.5 L 24.5 9.5 L 24.5 9.5 L 24.5 9.5 L 24.5 9.5 L 24.5 9.5 L 24.4 9.6 L 24.5 9.6 L 24.6 9.5 L 24.7 9.5 L 24.7 9.5 L 24.7 9.5 L 24.7 9.5 L 24.8 9.5 L 24.8 9.4 L 24.9 9.4 L 24.9 9.4 L 24.9 9.4 L 24.9 9.5 L 24.8 9.5 L 24.9 9.5 L 24.9 9.4 L 25.0 9.4 L 25.0 9.4 L 25.0 9.4 L 25.0 9.4 L 25.0 9.4 L 25.1 9.4 L 25.1 9.4 L 25.2 9.4 L 25.2 9.4 L 25.2 9.4 L 25.2 9.4 L 25.1 9.4 L 25.3 9.3 L 25.4 9.3 L 25.4 9.3 L 25.3 9.4 L 25.4 9.3 L 25.4 9.3 L 25.4 9.4 L 25.4 9.4 L 25.4 9.4 L 25.4 9.4 L 25.4 9.4 L 25.2 9.4 L 25.2 9.5 L 25.2 9.5 L 25.1 9.5 L 25.0 9.5 L 25.0 9.5 L 25.0 9.5 L 24.9 9.5 L 24.8 9.5 L 24.9 9.5 L 24.9 9.6 L 24.8 9.6 L 24.8 9.6 L 24.7 9.6 L 24.8 9.6 L 24.7 9.6 L 24.7 9.6 L 24.7 9.6 L 24.7 9.6 L 24.7 9.6 L 24.8 9.6 L 24.8 9.6 L 24.8 9.6 L 24.8 9.6 L 24.9 9.6 L 24.9 9.6 L 24.8 9.6 L 24.8 9.6 L 24.8 9.6 L 24.7 9.6 L 24.7 9.6 L 24.6 9.7 L 24.6 9.7 L 24.7 9.7 L 24.7 9.6 L 24.8 9.6 L 24.8 9.6 L 24.8 9.7 L 24.7 9.7 L 24.7 9.7 L 24.8 9.6 L 24.9 9.6 L 24.9 9.6 L 24.9 9.6 L 24.9 9.6 L 24.9 9.6 L 24.9 9.7 L 24.9 9.7 L 24.8 9.7 L 24.8 9.7 L 24.8 9.7 L 24.7 9.7 L 24.7 9.8 L 24.6 9.8 L 24.5 9.8 L 24.5 9.8 L 24.5 9.8 L 24.6 9.8 L 24.6 9.8 L 24.6 9.8 L 24.6 9.8 L 24.6 9.8 L 24.6 9.8 L 24.5 9.8 L 24.5 9.8 L 24.5 9.8 L 24.5 9.8 L 24.5 9.8 L 24.4 9.8 L 24.4 9.9 L 24.3 9.9 L 24.3 9.9 L 24.4 9.8 L 24.5 9.8 L 24.5 9.8 L 24.5 9.9 L 24.5 9.9 L 24.4 9.9 L 24.4 9.9 L 24.4 9.9 L 24.4 9.9 L 24.3 9.9 L 24.3 9.9 L 24.4 9.9 L 24.5 9.9 L 24.4 9.9 L 24.4 9.9 L 24.4 9.9 L 24.4 10.0 L 24.3 10.0 L 24.3 10.0 L 24.2 10.0 L 24.2 10.0 L 24.2 10.0 L 24.2 10.0 L 24.1 10.0 L 24.1 10.0 L 24.2 10.0 L 24.2 10.0 L 24.2 10.0 L 24.2 10.0 L 24.2 10.0 L 24.2 10.1 L 24.1 10.1 L 24.1 10.1 L 24.0 10.1 L 24.0 10.1 L 24.0 10.1 L 24.0 10.1 L 24.0 10.1 L 24.0 10.1 L 24.0 10.1 L 24.0 10.1 L 23.8 10.1 L 23.9 10.1 L 24.0 10.1 L 24.1 10.1 L 24.1 10.1 L 24.1 10.1 L 24.1 10.1 L 24.1 10.1 L 24.1 10.2 L 24.0 10.2 L 24.0 10.2 L 24.0 10.2 L 24.0 10.2 L 23.9 10.2 L 23.9 10.2 L 23.9 10.2 L 23.9 10.2 L 23.8 10.2 L 23.8 10.2 L 23.9 10.2 L 23.9 10.2 L 23.9 10.2 L 23.9 10.2 L 23.8 10.2 L 23.8 10.3 L 23.8 10.3 L 23.8 10.3 L 23.8 10.3 L 23.8 10.3 L 23.9 10.3 L 23.9 10.2 L 23.9 10.2 L 23.9 10.3 L 23.8 10.3 L 23.7 10.3 L 23.7 10.4 L 23.7 10.4 L 23.7 10.3 L 23.7 10.3 L 23.7 10.3 L 23.7 10.3 L 23.6 10.3 L 23.6 10.3 L 23.6 10.3 L 23.6 10.4 L 23.6 10.4 L 23.6 10.4 L 23.6 10.4 L 23.5 10.4 L 23.5 10.4 L 23.5 10.5 L 23.5 10.4 L 23.5 10.4 L 23.5 10.4 L 23.5 10.4 L 23.5 10.4 L 23.4 10.4 L 23.5 10.4 L 23.4 10.4 L 23.4 10.5 L 23.3 10.5 L 23.3 10.4 L 23.3 10.4 L 23.3 10.4 L 23.4 10.4 L 23.3 10.4 L 23.3 10.5 L 23.3 10.5 L 23.3 10.5 L 23.2 10.5 L 23.2 10.5 L 23.2 10.5 L 23.2 10.5 L 23.2 10.6 L 23.2 10.6 L 23.2 10.6 L 23.1 10.6 L 23.1 10.6 L 23.1 10.6 L 23.0 10.6 L 23.1 10.6 L 23.0 10.6 L 23.1 10.6 L 23.1 10.6 L 23.0 10.7 L 23.0 10.7 L 23.0 10.7 L 23.0 10.7 L 23.1 10.7 L 23.0 10.7 L 23.0 10.7 L 23.0 10.7 L 23.0 10.7 L 23.0 10.7 L 22.9 10.7 L 22.9 10.7 L 23.0 10.7 L 23.1 10.7 L 23.1 10.7 L 23.0 10.7 L 23.0 10.7 L 23.0 10.7 L 23.0 10.7 L 23.0 10.8 L 22.9 10.8 L 22.9 10.8 L 22.8 10.8 L 22.8 10.8 L 22.8 10.8 L 22.8 10.9 L 22.8 10.9 L 22.8 10.9 L 22.8 10.9 L 22.8 10.9 L 22.8 10.9 L 22.7 10.9 L 22.7 10.9 L 22.6 11.0 L 22.7 11.0 L 22.7 11.0 L 22.7 11.0 L 22.7 11.0 L 22.7 11.0 L 22.6 11.1 L 22.6 11.1 L 22.6 11.1 L 22.6 11.1 L 22.6 11.1 L 22.6 11.1 L 22.5 11.1 L 22.5 11.1 L 22.5 11.1 L 22.5 11.1 L 22.5 11.1 L 22.4 11.1 L 22.4 11.1 L 22.4 11.2 L 22.3 11.2 L 22.3 11.2 L 22.3 11.1 L 22.3 11.2 L 22.3 11.2 L 22.2 11.2 L 22.2 11.2 L 22.2 11.2 L 22.2 11.2 L 22.2 11.1 L 22.2 11.2 L 22.2 11.2 L 22.2 11.2 L 22.1 11.2 L 22.0 11.3 L 21.9 11.3 L 21.9 11.3 L 22.0 11.2 L 22.0 11.2 L 22.0 11.2 L 22.0 11.2 L 22.1 11.2 L 22.0 11.2 L 22.0 11.2 L 22.0 11.2 L 22.1 11.1 L 22.1 11.1 L 22.2 11.1 L 22.2 11.1 L 22.2 11.0 L 22.3 11.0 L 22.3 11.0 L 22.4 11.0 L 22.4 11.0 L 22.4 11.0 L 22.3 11.0 L 22.3 11.0 L 22.3 11.0 L 22.3 11.0 L 22.3 11.0 L 22.3 11.0 L 22.3 11.0 L 22.3 10.9 L 22.4 10.9 L 22.4 10.9 L 22.5 10.9 L 22.5 10.8 L 22.5 10.9 L 22.5 10.9 L 22.4 10.9 L 22.4 10.9 L 22.4 10.9 L 22.4 10.9 L 22.4 10.8 L 22.4 10.9 L 22.3 10.9 L 22.3 10.9 L 22.2 11.0 L 22.2 10.9 L 22.2 10.9 L 22.3 10.8 L 22.3 10.8 L 22.3 10.9 L 22.3 10.9 L 22.2 10.9 L 22.2 10.9 L 22.2 10.9 L 22.2 11.0 L 22.1 11.0 L 22.1 11.0 L 22.1 11.0 L 22.1 11.0 L 22.1 11.0 L 22.1 11.0 L 22.0 11.0 L 22.0 11.1 L 22.0 11.1 L 21.9 11.1 L 21.9 11.1 L 21.9 11.1 L 21.9 11.1 L 21.9 11.1 L 21.8 11.2 L 21.9 11.1 L 21.9 11.2 L 21.8 11.2 L 21.8 11.2 L 21.8 11.2 L 21.8 11.2 L 21.8 11.2 L 21.8 11.2 L 21.8 11.2 L 21.8 11.3 L 21.7 11.3 L 21.7 11.3 L 21.7 11.3 L 21.6 11.3 L 21.6 11.3 L 21.6 11.3 L 21.6 11.4 L 21.5 11.4 L 21.5 11.4 L 21.5 11.4 L 21.5 11.4 L 21.5 11.4 L 21.5 11.4 L 21.5 11.4 L 21.4 11.5 L 21.4 11.5 L 21.4 11.5 L 21.3 11.5 L 21.2 11.6 L 21.3 11.6 L 21.4 11.5 L 21.4 11.4 L 21.4 11.5 L 21.3 11.5 L 21.3 11.5 L 21.2 11.5 L 21.2 11.6 L 21.1 11.6 L 21.1 11.6 L 21.1 11.6 L 21.1 11.6 L 21.1 11.6 L 21.0 11.7 L 21.0 11.6 L 21.1 11.6 L 21.1 11.6 L 21.1 11.6 L 21.1 11.6 L 21.1 11.5 L 21.2 11.5 L 21.1 11.5 L 21.1 11.5 L 21.2 11.5 L 21.2 11.5 L 21.2 11.5 L 21.1 11.5 L 21.2 11.5 L 21.2 11.5 L 21.2 11.4 L 21.2 11.4 L 21.2 11.4 L 21.3 11.3 L 21.4 11.3 L 21.3 11.4 L 21.3 11.4 L 21.3 11.3 L 21.4 11.3 L 21.4 11.3 L 21.3 11.3 L 21.2 11.4 L 21.2 11.4 L 21.1 11.4 L 21.1 11.4 L 21.1 11.5 L 21.1 11.5 L 21.1 11.5 L 21.0 11.6 L 21.0 11.6 L 20.9 11.6 L 20.9 11.7 L 20.8 11.7 L 20.8 11.7 L 20.8 11.7 L 20.7 11.7 L 20.7 11.7 L 20.7 11.7 L 20.7 11.7 L 20.8 11.7 L 20.8 11.6 L 20.8 11.6 L 20.8 11.5 L 20.9 11.5 L 20.9 11.5 L 21.0 11.4 L 21.0 11.4 L 21.0 11.4 L 21.1 11.3 L 21.1 11.3 L 21.1 11.3 L 21.2 11.3 L 21.1 11.3 L 21.2 11.2 L 21.3 11.2 L 21.3 11.2 L 21.3 11.2 L 21.3 11.2 L 21.3 11.2 L 21.3 11.2 L 21.4 11.1 L 21.4 11.1 L 21.4 11.1 L 21.4 11.1 L 21.4 11.1 L 21.4 11.1 L 21.5 11.1 L 21.5 11.0 L 21.5 11.0 L 21.6 11.0 L 21.6 10.9 L 21.7 10.9 L 21.7 10.9 L 21.7 10.9 L 21.7 10.9 L 21.7 10.9 L 21.7 10.9 L 21.7 10.9 L 21.7 10.9 L 21.7 10.8 L 21.8 10.8 L 21.8 10.8 L 21.8 10.8 L 21.8 10.8 L 21.8 10.8 L 21.8 10.8 L 21.7 10.9 L 21.7 10.9 L 21.7 10.8 L 21.7 10.8 L 21.7 10.8 L 21.7 10.8 L 21.7 10.8 L 21.7 10.8 L 21.6 10.8 L 21.7 10.8 L 21.7 10.8 L 21.7 10.8 L 21.7 10.7 L 21.8 10.7 L 21.8 10.7 L 21.9 10.7 L 21.9 10.6 L 22.0 10.6 L 22.0 10.6 L 22.0 10.6 L 22.1 10.6 L 22.1 10.6 L 22.1 10.6 L 22.1 10.6 L 22.1 10.6 L 22.0 10.7 L 22.0 10.7 L 21.9 10.7 L 21.9 10.7 L 21.9 10.8 L 21.8 10.8 L 21.9 10.8 L 21.9 10.7 L 21.9 10.7 L 22.0 10.7 L 22.0 10.7 L 22.0 10.7 L 22.0 10.7 L 22.0 10.7 L 22.0 10.7 L 22.0 10.7 L 22.1 10.7 L 22.1 10.7 L 22.1 10.7 L 22.1 10.7 L 22.2 10.7 L 22.3 10.6 L 22.3 10.6 L 22.3 10.6 L 22.5 10.6 L 22.5 10.6 L 22.5 10.6 L 22.5 10.6 L 22.6 10.6 L 22.7 10.5 L 22.7 10.5 L 22.7 10.5 L 22.8 10.5 L 22.9 10.4 L 23.1 10.4 L 23.1 10.3 L 23.2 10.3 L 23.1 10.3 L 23.2 10.3 L 23.2 10.3 L 23.3 10.3 L 23.3 10.3 L 23.3 10.2 L 23.3 10.2 L 23.3 10.3 L 23.2 10.3 L 23.3 10.3 L 23.3 10.2 L 23.3 10.2 L 23.3 10.2 L 23.4 10.2 L 23.4 10.2 L 23.4 10.2 L 23.4 10.2 L 23.4 10.2 L 23.5 10.2 L 23.4 10.2 L 23.4 10.2 L 23.4 10.2 L 23.4 10.2 L 23.3 10.2 L 23.3 10.1 L 23.4 10.1 L 23.4 10.1 L 23.4 10.1 L 23.5 10.1 L 23.5 10.1 L 23.5 10.1 L 23.5 10.1 L 23.6 10.1 L 23.6 10.1 L 23.6 10.1 L 23.6 10.0 L 23.7 10.0 L 23.7 10.0 L 23.7 10.0 L 23.7 10.0 L 23.7 10.0 L 23.7 10.0 L 23.7 10.0 L 23.7 10.0 L 23.8 10.0 L 23.8 10.0 L 23.8 10.0 L 23.8 10.0 L 23.9 9.9 L 23.9 9.9 L 24.0 9.9 L 24.0 9.9 L 24.0 9.9 L 24.0 9.9 L 24.1 9.8 L 24.1 9.8 L 24.1 9.8 L 24.1 9.8 L 24.1 9.8 L 24.0 9.8 L 24.0 9.9 L 23.9 9.9 L 23.9 9.9 L 23.9 9.9 L 23.9 9.9 L 23.9 9.8 L 23.9 9.8 L 24.0 9.8 L 24.0 9.8 L 24.0 9.8 L 24.0 9.8 L 23.9 9.8 L 23.9 9.8 L 23.8 9.8 L 23.9 9.8 L 23.9 9.8 L 24.0 9.7 L 24.0 9.7 L 24.0 9.7 L 24.1 9.7 L 24.1 9.7 L 24.1 9.6 L 24.2 9.6 L 24.2 9.6 L 24.3 9.6 L 24.3 9.6 L 24.3 9.6 L 24.3 9.6 L 24.3 9.5 L 24.3 9.6 L 24.3 9.6 L 24.3 9.5 L 24.3 9.5 L 24.3 9.5 L 24.4 9.5 L 24.4 9.5 L 24.5 9.4 L 24.6 9.4 L 24.7 9.4 L 24.6 9.4 L 24.6 9.4 L 24.6 9.5 L 24.5 9.5 L 24.5 9.5 L 24.6 9.5 L 24.6 9.4 L 24.7 9.4 L 24.8 9.4 L 24.8 9.4 L 24.9 9.3 L 25.0 9.3 L 25.0 9.3 L 25.1 9.3 L 25.1 9.3 L 25.1 9.3 L 25.2 9.3 L 25.2 9.3 L 25.3 9.2 L 25.3 9.2 L 25.4 9.2 L 25.4 9.2 L 25.5 9.2 L 25.5 9.2 L 25.5 9.2 L 25.6 9.2 L 25.6 9.2 L 25.6 9.2 L 25.6 9.3 L 25.5 9.3 L 25.5 9.3 L 25.5 9.3 L 25.4 9.3 L 25.4 9.3 L 25.2 9.3 L 25.2 9.3 L 25.1 9.3 L 25.1 9.4 L 25.0 9.4 L 24.9 9.4 L 24.8 9.4 L 24.7 9.5 L 24.7 9.5 L 24.6 9.5 L 24.6 9.5 L 24.5 9.5 L 24.5 9.5 L 24.5 9.5 Z M 29.1 9.0 L 29.1 9.0 L 29.1 9.0 L 29.1 9.0 L 29.1 9.0 L 29.0 9.0 L 28.9 9.0 L 28.9 9.0 L 28.9 9.0 L 29.0 9.0 L 29.0 9.1 L 29.0 9.1 L 29.0 9.1 L 29.0 9.1 L 29.0 9.1 L 29.0 9.1 L 29.0 9.1 L 29.0 9.1 L 29.0 9.1 L 29.0 9.1 L 29.0 9.1 L 29.0 9.1 L 28.9 9.1 L 28.9 9.1 L 28.9 9.1 L 28.9 9.1 L 28.9 9.1 L 28.8 9.2 L 28.7 9.2 L 28.7 9.2 L 28.6 9.1 L 28.6 9.1 L 28.6 9.1 L 28.5 9.1 L 28.5 9.1 L 28.5 9.1 L 28.5 9.1 L 28.4 9.1 L 28.4 9.1 L 28.5 9.1 L 28.4 9.2 L 28.3 9.2 L 28.2 9.2 L 28.1 9.1 L 28.0 9.2 L 28.0 9.1 L 28.0 9.1 L 28.1 9.1 L 27.9 9.1 L 27.9 9.1 L 27.9 9.1 L 27.9 9.1 L 27.9 9.1 L 27.9 9.1 L 27.9 9.1 L 27.9 9.2 L 27.8 9.2 L 27.8 9.2 L 27.7 9.2 L 27.7 9.2 L 27.7 9.1 L 27.8 9.1 L 27.8 9.1 L 27.8 9.1 L 27.7 9.1 L 27.7 9.1 L 27.7 9.1 L 27.6 9.1 L 27.6 9.1 L 27.6 9.1 L 27.6 9.1 L 27.6 9.1 L 27.6 9.1 L 27.7 9.1 L 27.7 9.1 L 27.6 9.1 L 27.6 9.1 L 27.5 9.1 L 27.5 9.1 L 27.5 9.1 L 27.5 9.1 L 27.5 9.1 L 27.5 9.1 L 27.5 9.1 L 27.5 9.1 L 27.5 9.1 L 27.5 9.1 L 27.5 9.1 L 27.5 9.1 L 27.4 9.1 L 27.5 9.1 L 27.5 9.1 L 27.4 9.1 L 27.4 9.1 L 27.3 9.2 L 27.3 9.2 L 27.3 9.2 L 27.2 9.2 L 27.3 9.1 L 27.2 9.2 L 27.2 9.2 L 27.1 9.2 L 27.0 9.2 L 27.0 9.2 L 27.0 9.2 L 27.0 9.1 L 27.0 9.2 L 26.9 9.2 L 26.8 9.2 L 26.8 9.2 L 26.8 9.2 L 26.8 9.2 L 26.8 9.1 L 26.9 9.1 L 26.9 9.1 L 26.9 9.1 L 26.9 9.1 L 26.8 9.1 L 26.8 9.1 L 26.8 9.1 L 26.8 9.1 L 26.8 9.1 L 26.8 9.1 L 26.7 9.2 L 26.8 9.2 L 26.7 9.2 L 26.7 9.2 L 26.6 9.2 L 26.6 9.2 L 26.6 9.2 L 26.6 9.2 L 26.6 9.2 L 26.5 9.2 L 26.4 9.2 L 26.4 9.2 L 26.4 9.2 L 26.4 9.2 L 26.4 9.2 L 26.4 9.2 L 26.4 9.2 L 26.5 9.2 L 26.5 9.2 L 26.5 9.2 L 26.5 9.2 L 26.6 9.1 L 26.6 9.1 L 26.6 9.1 L 26.6 9.1 L 26.6 9.1 L 26.5 9.2 L 26.5 9.1 L 26.6 9.1 L 26.5 9.1 L 26.5 9.1 L 26.6 9.1 L 26.7 9.0 L 26.6 9.0 L 26.6 9.0 L 26.7 9.0 L 26.6 9.0 L 26.7 9.0 L 26.7 9.0 L 26.7 9.0 L 26.7 9.0 L 26.8 9.0 L 26.9 9.0 L 26.9 9.0 L 26.9 9.0 L 26.9 9.0 L 26.9 9.0 L 26.9 9.0 L 27.0 9.0 L 27.0 9.0 L 27.0 9.0 L 27.1 8.9 L 27.2 8.9 L 27.2 8.9 L 27.2 9.0 L 27.1 9.0 L 27.0 9.0 L 27.0 9.0 L 26.9 9.0 L 26.9 9.0 L 26.9 9.1 L 27.0 9.1 L 27.0 9.1 L 27.1 9.0 L 27.1 9.0 L 27.0 9.0 L 27.0 9.0 L 27.0 9.0 L 27.0 9.0 L 27.0 9.0 L 27.2 9.0 L 27.2 9.0 L 27.2 9.0 L 27.2 9.0 L 27.3 9.0 L 27.3 9.0 L 27.2 9.0 L 27.2 9.0 L 27.3 9.0 L 27.3 8.9 L 27.3 8.9 L 27.3 8.9 L 27.4 8.9 L 27.5 8.9 L 27.5 8.9 L 27.5 8.9 L 27.5 8.9 L 27.5 9.0 L 27.5 9.0 L 27.5 9.0 L 27.5 9.0 L 27.5 9.0 L 27.5 9.0 L 27.5 9.0 L 27.5 9.0 L 27.5 9.0 L 27.5 9.0 L 27.6 9.0 L 27.6 8.9 L 27.6 8.9 L 27.6 8.9 L 27.6 9.0 L 27.6 9.0 L 27.7 8.9 L 27.7 8.9 L 27.8 8.9 L 27.9 8.9 L 27.9 8.9 L 28.0 8.9 L 28.1 8.9 L 28.1 8.9 L 28.1 8.9 L 28.0 8.9 L 27.9 8.9 L 27.8 9.0 L 27.8 9.0 L 27.8 9.0 L 27.7 9.0 L 27.8 9.0 L 27.8 9.0 L 27.8 9.0 L 27.9 9.0 L 28.0 8.9 L 28.1 8.9 L 28.1 8.9 L 28.1 8.9 L 28.1 9.0 L 28.2 9.0 L 28.2 9.0 L 28.2 9.0 L 28.2 9.0 L 28.3 9.0 L 28.3 9.0 L 28.3 9.0 L 28.4 9.0 L 28.4 9.0 L 28.4 8.9 L 28.3 8.9 L 28.3 8.9 L 28.3 8.9 L 28.3 8.9 L 28.2 8.9 L 28.2 8.9 L 28.2 8.9 L 28.2 8.9 L 28.2 8.9 L 28.2 8.9 L 28.2 8.9 L 28.2 8.9 L 28.2 8.9 L 28.2 8.9 L 28.2 8.9 L 28.2 8.8 L 28.2 8.8 L 28.3 8.8 L 28.3 8.8 L 28.4 8.8 L 28.4 8.9 L 28.4 8.9 L 28.4 8.8 L 28.3 8.8 L 28.3 8.8 L 28.3 8.8 L 28.4 8.8 L 28.4 8.8 L 28.4 8.8 L 28.4 8.8 L 28.4 8.8 L 28.4 8.8 L 28.5 8.8 L 28.5 8.8 L 28.5 8.8 L 28.5 8.8 L 28.5 8.8 L 28.5 8.8 L 28.6 8.8 L 28.6 8.8 L 28.6 8.8 L 28.6 8.8 L 28.6 8.8 L 28.6 8.8 L 28.7 8.8 L 28.6 8.8 L 28.7 8.8 L 28.7 8.8 L 28.7 8.8 L 28.7 8.7 L 28.7 8.7 L 28.7 8.7 L 28.8 8.7 L 28.8 8.7 L 28.8 8.7 L 28.8 8.8 L 28.8 8.8 L 28.9 8.8 L 28.9 8.8 L 28.8 8.8 L 28.8 8.8 L 28.8 8.8 L 28.8 8.8 L 28.8 8.8 L 28.8 8.8 L 28.8 8.8 L 28.8 8.8 L 28.9 8.8 L 28.9 8.8 L 28.9 8.8 L 29.0 8.8 L 28.9 8.8 L 28.9 8.8 L 28.8 8.8 L 28.8 8.8 L 28.8 8.9 L 28.8 8.8 L 28.8 8.8 L 28.8 8.8 L 28.8 8.9 L 28.7 8.9 L 28.7 8.9 L 28.6 8.9 L 28.7 8.9 L 28.8 8.9 L 28.9 8.8 L 28.9 8.8 L 28.9 8.9 L 29.0 8.8 L 29.0 8.8 L 29.0 8.8 L 29.0 8.9 L 29.0 8.9 L 29.0 8.9 L 29.0 8.9 L 29.0 8.9 L 29.0 8.9 L 29.0 8.9 L 29.1 8.9 L 29.1 8.9 L 29.1 8.9 L 29.1 8.9 L 29.1 8.9 L 29.0 8.9 L 28.9 8.9 L 28.9 8.9 L 28.9 8.9 L 29.0 8.9 L 29.0 8.9 L 29.1 8.9 L 29.1 8.9 L 29.1 8.9 L 29.0 8.9 L 29.0 9.0 L 29.0 9.0 L 29.0 8.9 L 29.1 8.9 L 29.1 8.9 L 29.1 9.0 L 29.0 9.0 L 29.0 9.0 L 29.1 9.0 L 29.1 9.0 L 29.1 9.0 L 29.1 9.0 L 29.1 9.0 L 29.1 9.0 Z M 25.2 9.2 L 24.8 9.3 L 24.5 9.4 L 24.4 9.4 L 24.2 9.5 L 24.1 9.5 L 23.7 9.7 L 24.0 9.6 L 23.5 9.8 L 23.1 9.9 L 23.5 9.8 L 23.7 9.8 L 24.0 9.7 L 23.9 9.8 L 23.6 9.9 L 23.4 10.0 L 23.3 10.0 L 22.8 10.2 L 22.7 10.1 L 22.9 10.0 L 22.6 10.2 L 22.8 10.0 L 22.4 10.2 L 22.8 10.0 L 22.8 10.0 L 22.1 10.3 L 22.1 10.2 L 22.0 10.3 L 22.2 10.2 L 22.3 10.1 L 21.9 10.3 L 21.8 10.3 L 21.7 10.3 L 21.7 10.4 L 21.6 10.4 L 21.3 10.5 L 20.7 10.8 L 20.5 11.0 L 19.9 11.3 L 19.5 11.5 L 18.8 12.0 L 18.7 12.2 L 18.1 12.5 L 17.6 12.9 L 17.3 13.2 L 17.2 13.3 L 17.2 13.3 L 17.5 13.1 L 18.0 12.7 L 18.2 12.6 L 18.5 12.4 L 19.5 11.9 L 19.9 11.6 L 20.1 11.5 L 20.4 11.4 L 20.7 11.2 L 20.9 11.2 L 20.9 11.3 L 20.7 11.4 L 20.6 11.5 L 20.4 11.7 L 20.3 11.8 L 20.0 11.9 L 19.7 12.1 L 19.6 12.2 L 19.5 12.3 L 19.5 12.3 L 19.3 12.5 L 19.5 12.4 L 19.7 12.4 L 19.8 12.3 L 20.0 12.2 L 20.1 12.2 L 19.9 12.4 L 19.7 12.5 L 19.5 12.6 L 19.4 12.7 L 19.2 12.9 L 19.1 13.0 L 18.9 13.1 L 18.7 13.3 L 18.7 13.4 L 18.5 13.6 L 18.4 13.8 L 18.3 13.9 L 18.0 13.9 L 17.8 14.0 L 18.2 13.9 L 18.1 14.2 L 18.0 14.4 L 17.8 14.6 L 17.3 14.7 L 16.8 14.8 L 16.7 14.5 L 16.4 14.6 L 16.1 14.6 L 15.6 15.0 L 15.2 15.2 L 15.4 15.1 L 15.8 14.9 L 16.4 14.8 L 16.0 15.1 L 15.9 15.2 L 15.7 15.4 L 15.4 15.8 L 15.4 16.0 L 15.3 16.2 L 15.0 16.2 L 14.9 16.2 L 14.7 16.3 L 15.0 16.0 L 15.1 16.0 L 15.3 15.8 L 15.2 15.8 L 15.1 15.8 L 14.9 15.9 L 14.8 15.9 L 14.7 15.9 L 14.7 16.0 L 14.4 16.2 L 14.2 16.4 L 14.2 16.5 L 14.1 16.5 L 14.0 16.5 L 13.9 16.5 L 13.6 16.8 L 13.4 17.0 L 13.7 16.7 L 13.3 17.1 L 13.1 17.4 L 13.2 17.2 L 13.4 17.0 L 13.5 16.9 L 13.6 16.7 L 13.5 16.8 L 13.3 17.0 L 13.3 17.0 L 13.3 17.0 L 13.3 17.1 L 13.1 17.3 L 13.1 17.3 L 12.6 17.9 L 12.8 17.7 L 12.7 17.8 L 12.5 18.0 L 12.5 18.1 L 12.4 18.2 L 12.3 18.3 L 12.2 18.5 L 12.7 19.0 L 12.6 19.1 L 12.5 19.2 L 12.4 19.4 L 11.8 20.3 L 11.8 20.4 L 11.3 21.4 L 11.5 21.0 L 11.7 20.7 L 11.9 20.3 L 12.4 19.5 L 12.4 19.4 L 12.6 19.1 L 12.7 19.0 L 12.7 18.9 L 12.8 18.8 L 12.8 18.8 L 12.7 18.9 L 12.5 19.2 L 12.7 18.9 L 12.8 18.9 L 12.9 18.7 L 13.1 18.4 L 13.2 18.3 L 13.0 18.5 L 13.1 18.5 L 13.0 18.5 L 12.7 19.0 L 12.0 20.1 L 11.8 20.4 L 11.2 21.6 L 10.9 22.2 L 10.8 22.4 L 10.8 22.3 L 11.1 21.8 L 11.0 21.9 L 10.8 22.3 L 10.7 22.6 L 10.6 22.9 L 10.4 23.2 L 10.2 23.8 L 10.1 24.1 L 10.0 24.3 L 9.9 24.7 L 9.8 24.9 L 9.6 25.6 L 9.5 25.9 L 9.3 26.7 L 9.2 27.2 L 9.2 27.3 L 9.1 27.8 L 9.1 27.9 L 9.2 27.4 L 9.2 27.3 L 8.6 26.9 L 8.5 27.3 L 8.3 28.1 L 8.4 27.5 L 8.5 27.2 L 8.5 27.7 L 8.4 28.4 L 8.6 28.4 L 8.6 28.7 L 8.6 28.8 L 8.6 29.1 L 8.5 29.5 L 8.7 30.1 L 8.7 30.7 L 8.8 31.2 L 9.1 31.5 L 9.3 32.1 L 9.4 33.0 L 9.4 33.7 L 9.2 34.4 L 9.3 34.4 L 9.5 34.9 L 9.6 34.9 L 9.7 34.6 L 9.9 34.7 L 10.2 35.1 L 10.3 35.5 L 10.3 35.9 L 10.6 35.8 L 11.2 36.2 L 12.0 37.4 L 12.5 38.5 L 12.4 39.5 L 12.2 39.9 L 12.0 40.4 L 12.2 41.2 L 12.4 42.6 L 12.5 43.4 L 12.3 43.6 L 12.2 43.5 L 12.0 43.7 L 11.8 44.0 L 11.9 44.3 L 12.3 45.0 L 12.6 45.9 L 12.5 45.6 L 12.4 45.4 L 12.6 45.9 L 13.0 46.6 L 12.7 46.2 L 12.3 45.7 L 12.7 46.2 L 13.4 47.2 L 14.0 46.8 L 14.5 47.3 L 14.4 47.3 L 14.8 47.7 L 14.8 47.7 L 15.1 48.0 L 15.5 48.4 L 16.2 49.1 L 16.6 49.4 L 16.8 49.6 L 17.2 49.9 L 17.5 50.2 L 17.9 50.5 L 17.8 50.4 L 17.7 50.4 L 17.5 50.2 L 17.6 50.3 L 17.4 50.1 L 17.3 50.1 L 17.4 50.1 L 17.1 49.9 L 17.1 49.9 L 16.8 49.6 L 16.8 49.6 L 16.6 49.5 L 16.4 49.3 L 16.3 49.2 L 16.0 48.9 L 15.9 48.9 L 15.8 48.7 L 15.5 48.5 L 15.5 48.4 L 15.2 48.2 L 15.4 48.3 L 15.4 48.3 L 15.1 48.0 L 14.6 47.5 L 14.3 47.2 L 14.2 47.0 L 13.8 46.6 L 13.1 45.6 L 12.7 45.0 L 12.1 44.1 L 11.4 42.8 L 10.9 41.9 L 10.5 41.0 L 10.1 39.8 L 9.7 38.6 L 9.4 37.5 L 9.1 36.4 L 8.9 35.0 L 8.8 33.3 L 8.7 32.4 L 8.7 31.8 L 8.7 31.7 L 8.7 31.0 L 8.8 30.4 L 8.8 30.1 L 8.8 29.7 L 8.9 29.4 L 9.0 28.6 L 9.1 27.9 L 9.1 27.8 L 9.2 27.5 L 9.1 28.0 L 9.1 27.7 L 9.2 27.3 L 9.3 27.0 L 9.4 26.5 L 9.5 26.1 L 9.8 25.0 L 9.9 24.8 L 10.0 24.4 L 10.6 22.9 L 10.6 22.8 L 10.7 22.7 L 11.3 21.3 L 12.0 20.1 L 12.4 19.5 L 13.1 18.4 L 13.6 17.7 L 13.9 17.4 L 14.1 17.1 L 14.6 16.5 L 15.3 15.8 L 15.9 15.2 L 16.3 14.8 L 15.8 15.3 L 15.2 15.9 L 14.5 16.6 L 14.1 17.1 L 13.7 17.5 L 13.4 18.0 L 14.2 17.0 L 14.8 16.3 L 15.4 15.7 L 15.3 15.8 L 16.3 14.8 L 16.9 14.3 L 17.6 13.7 L 18.3 13.2 L 19.0 12.7 L 19.4 12.4 L 19.3 12.5 L 19.5 12.3 L 20.2 11.9 L 20.6 11.7 L 21.3 11.3 L 21.8 11.1 L 21.9 11.0 L 22.1 10.9 L 22.2 10.9 L 22.0 11.0 L 22.0 11.0 L 21.9 11.0 L 21.8 11.1 L 22.0 11.0 L 22.1 10.9 L 22.3 10.8 L 22.4 10.8 L 22.5 10.7 L 22.6 10.7 L 22.7 10.6 L 23.1 10.5 L 23.2 10.4 L 23.4 10.4 L 23.7 10.2 L 23.9 10.2 L 23.9 10.2 L 24.0 10.1 L 24.1 10.1 L 24.3 10.0 L 24.4 10.0 L 24.5 9.9 L 24.8 9.9 L 25.1 9.8 L 25.1 9.8 L 25.2 9.7 L 25.3 9.7 L 25.6 9.6 L 25.6 9.6 L 26.0 9.5 L 26.3 9.4 L 26.5 9.4 L 26.9 9.3 L 26.7 9.3 L 27.0 9.3 L 27.2 9.2 L 27.0 9.3 L 27.3 9.2 L 27.8 9.1 L 27.7 9.1 L 28.2 9.0 L 28.7 9.0 L 28.9 8.9 L 29.2 8.9 L 29.4 8.9 L 29.6 8.8 L 29.7 8.8 L 29.6 8.8 L 29.6 8.8 L 29.8 8.8 L 30.0 8.8 L 30.1 8.8 L 30.2 8.8 L 30.1 8.8 L 30.0 8.8 L 30.2 8.8 L 30.4 8.8 L 30.6 8.8 L 30.7 8.8 L 30.6 8.8 L 30.9 8.7 L 31.2 8.7 L 31.4 8.7 L 31.6 8.7 L 31.7 8.7 L 32.0 8.7 L 32.4 8.7 L 32.5 8.7 L 32.7 8.7 L 32.7 8.7 L 32.2 8.7 L 32.1 8.7 L 31.7 8.7 L 31.5 8.7 L 31.4 8.7 L 31.7 8.7 L 31.8 8.7 L 32.3 8.7 L 32.4 8.7 L 32.5 8.7 L 33.1 8.7 L 32.8 8.7 L 33.0 8.7 L 33.1 8.7 L 33.2 8.7 L 32.9 8.7 L 32.7 8.7 L 32.4 8.7 L 32.2 8.7 L 32.6 8.7 L 32.9 8.7 L 33.1 8.7 L 33.1 8.7 L 32.6 8.7 L 32.3 8.7 L 32.4 8.7 L 32.1 8.7 L 32.6 8.7 L 32.9 8.7 L 32.3 8.7 L 32.0 8.7 L 31.9 8.7 L 31.5 8.7 L 31.3 8.7 L 31.0 8.7 L 30.6 8.8 L 30.0 8.8 L 29.4 8.9 L 28.4 9.0 L 28.6 9.0 L 28.4 9.0 L 28.2 9.0 L 28.1 9.0 L 28.1 9.1 L 28.2 9.0 L 28.2 9.0 L 28.0 9.1 L 27.9 9.1 L 27.9 9.1 L 27.5 9.2 L 27.4 9.2 L 27.3 9.2 L 27.2 9.2 L 26.5 9.4 L 26.2 9.5 L 25.9 9.5 L 25.6 9.6 L 25.1 9.0 L 24.8 9.1 L 24.7 9.1 L 24.5 9.2 L 24.7 9.1 L 24.9 9.1 L 24.9 9.1 L 25.0 9.1 L 25.0 9.0 L 24.7 9.2 L 24.3 9.3 L 24.0 9.4 L 23.9 9.5 L 24.1 9.4 L 24.2 9.4 L 24.0 9.5 L 23.6 9.6 L 23.6 9.6 L 23.6 9.6 L 23.9 9.5 L 24.1 9.5 L 24.3 9.4 L 24.3 9.4 L 24.7 9.3 L 25.0 9.2 L 25.1 9.2 L 25.2 9.2 Z M 26.3 8.9 L 26.1 8.9 L 26.1 8.9 L 26.1 8.9 L 26.1 8.9 L 26.1 8.9 L 26.1 8.9 L 26.0 9.0 L 26.0 9.0 L 26.0 9.0 L 26.0 9.0 L 26.0 9.0 L 26.0 9.0 L 25.9 9.0 L 25.9 9.0 L 25.9 9.0 L 25.9 9.0 L 25.9 9.0 L 25.8 9.0 L 25.8 9.0 L 25.8 9.0 L 25.8 9.0 L 25.8 9.0 L 25.8 9.0 L 25.7 9.0 L 25.7 9.0 L 25.7 9.0 L 25.7 9.0 L 25.6 9.0 L 25.6 9.0 L 25.6 9.0 L 25.6 9.0 L 25.6 9.1 L 25.5 9.1 L 25.5 9.1 L 25.5 9.1 L 25.5 9.1 L 25.4 9.1 L 25.4 9.1 L 25.4 9.1 L 25.4 9.1 L 25.3 9.1 L 25.3 9.1 L 25.3 9.1 L 25.3 9.1 L 25.4 9.1 L 25.4 9.1 L 25.4 9.1 L 25.4 9.1 L 25.4 9.1 L 25.3 9.1 L 25.3 9.1 L 25.2 9.1 L 25.3 9.1 L 25.3 9.1 L 25.3 9.1 L 25.4 9.0 L 25.5 9.0 L 25.6 9.0 L 25.7 9.0 L 25.7 8.9 L 25.7 8.9 L 25.8 8.9 L 25.8 8.9 L 25.8 8.9 L 25.8 8.9 L 25.9 8.9 L 26.0 8.9 L 26.0 8.9 L 26.1 8.9 L 26.1 8.9 L 26.1 8.9 L 26.1 8.9 L 26.0 8.9 L 26.0 8.9 L 26.0 8.9 L 25.9 8.9 L 25.9 8.9 L 25.9 8.9 L 25.9 8.9 L 25.9 8.9 L 25.9 8.9 L 25.9 8.9 L 26.0 8.9 L 26.0 8.9 L 26.0 8.9 L 26.0 8.9 L 26.0 8.9 L 26.0 8.9 L 26.0 8.9 L 26.0 8.9 L 26.1 8.9 L 26.1 8.9 L 26.1 8.9 L 26.2 8.9 L 26.2 8.8 L 26.2 8.9 L 26.2 8.9 L 26.1 8.9 L 26.1 8.9 L 26.2 8.9 L 26.2 8.9 L 26.2 8.9 L 26.2 8.8 L 26.3 8.8 L 26.2 8.9 L 26.2 8.9 L 26.2 8.9 L 26.2 8.9 L 26.3 8.9 L 26.3 8.9 Z M 28.6 8.7 L 28.4 8.8 L 28.4 8.8 L 28.3 8.8 L 28.3 8.8 L 28.3 8.8 L 28.3 8.8 L 28.3 8.8 L 28.3 8.8 L 28.2 8.8 L 28.2 8.8 L 28.2 8.8 L 28.2 8.8 L 28.1 8.8 L 28.1 8.8 L 28.1 8.8 L 28.1 8.8 L 28.2 8.8 L 28.2 8.8 L 28.2 8.8 L 28.2 8.8 L 28.2 8.8 L 28.1 8.8 L 28.1 8.8 L 28.1 8.8 L 28.0 8.8 L 28.0 8.9 L 27.9 8.9 L 27.9 8.9 L 27.9 8.9 L 27.9 8.9 L 27.9 8.9 L 27.8 8.9 L 27.8 8.9 L 27.8 8.9 L 27.8 8.9 L 27.8 8.9 L 27.7 8.9 L 27.7 8.9 L 27.6 8.9 L 27.6 8.9 L 27.6 8.9 L 27.6 8.9 L 27.6 8.9 L 27.5 8.9 L 27.5 8.9 L 27.6 8.9 L 27.6 8.9 L 27.7 8.9 L 27.6 8.9 L 27.6 8.9 L 27.5 8.9 L 27.5 8.9 L 27.5 8.9 L 27.5 8.9 L 27.5 8.9 L 27.4 8.9 L 27.5 8.9 L 27.5 8.9 L 27.5 8.9 L 27.4 8.9 L 27.4 8.9 L 27.4 8.9 L 27.4 8.9 L 27.5 8.9 L 27.5 8.9 L 27.5 8.9 L 27.4 8.9 L 27.4 8.9 L 27.4 8.9 L 27.4 8.9 L 27.4 8.9 L 27.4 8.9 L 27.5 8.9 L 27.4 8.9 L 27.4 8.9 L 27.4 8.9 L 27.4 8.9 L 27.5 8.8 L 27.5 8.8 L 27.6 8.8 L 27.6 8.8 L 27.6 8.8 L 27.6 8.8 L 27.6 8.8 L 27.7 8.8 L 27.7 8.8 L 27.7 8.8 L 27.7 8.8 L 27.8 8.8 L 27.8 8.8 L 27.8 8.8 L 27.8 8.8 L 27.8 8.8 L 27.9 8.8 L 27.9 8.8 L 27.9 8.8 L 27.9 8.8 L 27.9 8.8 L 27.9 8.8 L 27.9 8.8 L 27.9 8.7 L 28.0 8.8 L 28.0 8.7 L 28.0 8.7 L 28.0 8.7 L 28.0 8.7 L 28.0 8.7 L 28.1 8.7 L 28.1 8.7 L 28.1 8.7 L 28.1 8.7 L 28.1 8.7 L 28.1 8.7 L 28.2 8.7 L 28.3 8.7 L 28.3 8.7 L 28.3 8.7 L 28.2 8.7 L 28.2 8.7 L 28.3 8.7 L 28.3 8.7 L 28.3 8.7 L 28.3 8.7 L 28.3 8.7 L 28.4 8.7 L 28.4 8.7 L 28.4 8.7 L 28.4 8.7 L 28.4 8.7 L 28.4 8.7 L 28.5 8.7 L 28.5 8.7 L 28.5 8.7 L 28.4 8.7 L 28.4 8.7 L 28.4 8.7 L 28.5 8.7 L 28.5 8.7 L 28.6 8.7 L 28.6 8.7 L 28.6 8.7 L 28.6 8.7 L 28.6 8.7 L 28.6 8.7 L 28.6 8.7 L 28.7 8.7 L 28.7 8.7 L 28.7 8.7 L 28.7 8.7 L 28.7 8.7 L 28.7 8.7 L 28.6 8.7 L 28.6 8.7 L 28.6 8.7 Z M 27.0 8.8 L 27.0 8.8 L 27.0 8.9 L 27.0 8.9 L 26.9 8.9 L 26.9 8.9 L 26.9 8.9 L 26.9 8.9 L 26.8 8.9 L 26.9 8.9 L 26.9 8.9 L 26.9 8.9 L 26.8 8.9 L 26.8 8.9 L 26.8 8.9 L 26.8 8.9 L 26.8 8.9 L 26.8 8.9 L 26.8 8.9 L 26.6 9.0 L 26.6 9.0 L 26.6 9.0 L 26.6 9.0 L 26.7 8.9 L 26.6 9.0 L 26.6 9.0 L 26.6 9.0 L 26.5 9.0 L 26.5 9.0 L 26.5 9.0 L 26.4 9.0 L 26.4 9.0 L 26.4 9.0 L 26.4 9.0 L 26.3 9.1 L 26.3 9.1 L 26.3 9.1 L 26.4 9.0 L 26.4 9.0 L 26.4 9.1 L 26.3 9.1 L 26.3 9.1 L 26.3 9.1 L 26.2 9.1 L 26.2 9.1 L 26.2 9.1 L 26.2 9.1 L 26.2 9.1 L 26.3 9.1 L 26.2 9.2 L 26.3 9.2 L 26.3 9.2 L 26.2 9.2 L 26.3 9.2 L 26.2 9.2 L 26.2 9.2 L 26.2 9.2 L 26.2 9.2 L 26.1 9.3 L 26.1 9.3 L 26.1 9.3 L 26.1 9.3 L 26.1 9.3 L 26.0 9.3 L 26.0 9.3 L 25.9 9.3 L 25.9 9.3 L 25.9 9.3 L 25.9 9.3 L 25.9 9.3 L 25.8 9.4 L 25.8 9.3 L 25.9 9.3 L 25.8 9.3 L 25.8 9.3 L 25.8 9.3 L 25.7 9.4 L 25.7 9.3 L 25.7 9.3 L 25.7 9.3 L 25.8 9.3 L 25.8 9.3 L 25.8 9.3 L 25.8 9.3 L 25.9 9.3 L 25.9 9.3 L 25.9 9.2 L 25.9 9.2 L 25.9 9.2 L 25.9 9.3 L 25.8 9.3 L 25.8 9.3 L 25.8 9.3 L 25.8 9.2 L 25.8 9.2 L 25.8 9.2 L 25.8 9.2 L 25.8 9.2 L 25.9 9.2 L 25.8 9.2 L 25.8 9.2 L 25.9 9.2 L 25.9 9.2 L 25.9 9.2 L 25.9 9.2 L 25.9 9.2 L 25.9 9.1 L 25.9 9.1 L 25.9 9.1 L 26.0 9.1 L 26.0 9.1 L 26.0 9.1 L 26.0 9.1 L 26.0 9.1 L 26.0 9.1 L 26.0 9.1 L 26.0 9.1 L 26.0 9.1 L 26.0 9.1 L 26.0 9.1 L 26.0 9.1 L 26.0 9.1 L 26.0 9.1 L 26.1 9.1 L 26.1 9.0 L 26.1 9.0 L 26.1 9.0 L 26.1 9.1 L 26.1 9.0 L 26.1 9.0 L 26.2 9.0 L 26.3 9.0 L 26.3 9.0 L 26.3 9.0 L 26.4 9.0 L 26.4 9.0 L 26.4 9.0 L 26.5 9.0 L 26.5 9.0 L 26.5 9.0 L 26.6 8.9 L 26.7 8.9 L 26.8 8.9 L 26.8 8.9 L 26.8 8.9 L 26.8 8.9 L 26.8 8.9 L 26.8 8.9 L 26.9 8.8 L 26.9 8.8 L 27.0 8.8 L 27.0 8.8 L 27.0 8.8 L 27.1 8.8 L 27.1 8.8 L 27.1 8.8 L 27.1 8.8 L 27.1 8.8 L 27.1 8.8 L 27.1 8.8 L 27.2 8.8 L 27.2 8.8 L 27.2 8.8 L 27.2 8.8 L 27.1 8.8 L 27.0 8.8 L 27.0 8.8 Z M 27.5 8.6 L 27.4 8.6 L 27.4 8.6 L 27.4 8.6 L 27.4 8.6 L 27.4 8.6 L 27.4 8.6 L 27.4 8.6 L 27.3 8.6 L 27.3 8.6 L 27.3 8.6 L 27.3 8.6 L 27.3 8.6 L 27.3 8.6 L 27.3 8.6 L 27.3 8.6 L 27.4 8.6 L 27.3 8.6 L 27.3 8.6 L 27.3 8.6 L 27.2 8.6 L 27.2 8.6 L 27.1 8.7 L 27.0 8.7 L 27.0 8.6 L 27.0 8.6 L 27.1 8.6 L 27.1 8.6 L 27.1 8.6 L 27.1 8.6 L 27.2 8.6 L 27.2 8.6 L 27.2 8.6 L 27.2 8.6 L 27.2 8.6 L 27.2 8.6 L 27.2 8.6 L 27.2 8.5 L 27.3 8.5 L 27.4 8.5 L 27.4 8.5 L 27.5 8.5 L 27.5 8.5 L 27.4 8.5 L 27.4 8.5 L 27.4 8.5 L 27.4 8.5 L 27.4 8.5 L 27.4 8.5 L 27.4 8.5 L 27.4 8.5 L 27.4 8.5 L 27.5 8.5 L 27.5 8.5 L 27.5 8.5 L 27.5 8.5 L 27.5 8.5 L 27.6 8.5 L 27.6 8.5 L 27.6 8.5 L 27.6 8.5 L 27.6 8.5 L 27.6 8.5 L 27.7 8.5 L 27.7 8.5 L 27.6 8.5 L 27.6 8.5 L 27.7 8.5 L 27.6 8.5 L 27.6 8.5 L 27.6 8.5 L 27.6 8.5 L 27.6 8.5 L 27.7 8.5 L 27.7 8.5 L 27.7 8.5 L 27.7 8.5 L 27.7 8.4 L 27.8 8.4 L 27.9 8.4 L 27.9 8.4 L 27.9 8.4 L 27.9 8.4 L 27.9 8.4 L 27.9 8.4 L 27.8 8.4 L 27.8 8.4 L 27.8 8.4 L 27.9 8.4 L 27.9 8.4 L 28.0 8.4 L 28.0 8.4 L 27.9 8.4 L 27.9 8.4 L 27.9 8.4 L 28.0 8.4 L 28.0 8.4 L 28.0 8.4 L 28.0 8.4 L 28.0 8.4 L 28.0 8.4 L 27.9 8.4 L 27.9 8.4 L 28.0 8.4 L 28.0 8.4 L 28.0 8.4 L 28.1 8.4 L 28.0 8.4 L 28.0 8.4 L 28.0 8.5 L 27.9 8.5 L 27.9 8.5 L 27.9 8.5 L 27.8 8.5 L 27.8 8.5 L 27.7 8.5 L 27.6 8.5 L 27.6 8.5 L 27.6 8.5 L 27.6 8.5 L 27.5 8.5 L 27.5 8.5 L 27.5 8.5 L 27.4 8.5 L 27.3 8.6 L 27.4 8.6 L 27.4 8.6 L 27.5 8.5 L 27.5 8.6 L 27.5 8.5 L 27.6 8.5 L 27.6 8.5 L 27.7 8.5 L 27.7 8.5 L 27.7 8.5 L 27.7 8.5 L 27.7 8.5 L 27.8 8.5 L 27.7 8.5 L 27.7 8.5 L 27.7 8.6 L 27.7 8.5 L 27.6 8.6 L 27.6 8.6 L 27.6 8.6 L 27.5 8.6 L 27.5 8.6 L 27.5 8.6 L 27.5 8.6 L 27.5 8.6 Z M 26.9 8.6 L 26.9 8.6 L 26.8 8.6 L 26.8 8.6 L 26.8 8.6 L 26.8 8.6 L 26.9 8.6 L 26.9 8.6 L 26.8 8.6 L 26.8 8.6 L 26.6 8.6 L 26.6 8.7 L 26.6 8.7 L 26.6 8.7 L 26.6 8.7 L 26.6 8.7 L 26.6 8.7 L 26.5 8.7 L 26.5 8.7 L 26.5 8.7 L 26.5 8.7 L 26.5 8.7 L 26.5 8.7 L 26.6 8.7 L 26.7 8.6 L 26.7 8.7 L 26.6 8.7 L 26.5 8.7 L 26.5 8.7 L 26.4 8.7 L 26.4 8.7 L 26.4 8.7 L 26.4 8.7 L 26.3 8.7 L 26.2 8.7 L 26.1 8.8 L 26.1 8.8 L 26.0 8.8 L 26.0 8.8 L 26.0 8.8 L 26.1 8.8 L 26.1 8.8 L 26.1 8.8 L 26.2 8.8 L 26.2 8.8 L 26.3 8.7 L 26.3 8.7 L 26.3 8.7 L 26.5 8.7 L 26.5 8.7 L 26.5 8.7 L 26.5 8.7 L 26.6 8.7 L 26.6 8.7 L 26.5 8.7 L 26.5 8.7 L 26.5 8.7 L 26.4 8.8 L 26.3 8.8 L 26.2 8.8 L 26.2 8.8 L 26.2 8.8 L 26.1 8.8 L 26.1 8.8 L 25.9 8.9 L 25.8 8.9 L 25.7 8.9 L 25.7 8.9 L 25.7 8.9 L 25.6 8.9 L 25.6 8.9 L 25.5 9.0 L 25.4 9.0 L 25.3 9.0 L 25.3 9.0 L 25.3 9.0 L 25.3 9.0 L 25.3 9.0 L 25.3 9.0 L 25.2 9.0 L 25.1 9.1 L 25.1 9.1 L 25.1 9.1 L 25.1 9.1 L 25.0 9.1 L 25.0 9.1 L 24.9 9.1 L 24.9 9.1 L 24.9 9.1 L 24.9 9.1 L 24.9 9.1 L 24.9 9.1 L 24.9 9.1 L 24.9 9.1 L 25.0 9.1 L 25.0 9.1 L 25.0 9.1 L 25.0 9.1 L 25.0 9.1 L 24.9 9.1 L 24.9 9.1 L 25.0 9.1 L 25.0 9.1 L 25.0 9.1 L 25.0 9.1 L 25.0 9.1 L 24.9 9.1 L 24.9 9.1 L 24.9 9.1 L 24.9 9.1 L 24.9 9.1 L 24.9 9.1 L 24.8 9.1 L 24.8 9.1 L 24.8 9.1 L 24.8 9.2 L 24.8 9.2 L 24.8 9.2 L 24.7 9.2 L 24.7 9.2 L 24.7 9.2 L 24.7 9.2 L 24.7 9.2 L 24.8 9.1 L 24.9 9.1 L 24.9 9.1 L 25.0 9.1 L 25.0 9.1 L 25.0 9.1 L 25.0 9.1 L 25.1 9.0 L 25.1 9.0 L 25.2 9.0 L 25.2 9.0 L 25.2 9.0 L 25.2 9.0 L 25.2 9.0 L 25.2 9.0 L 25.2 9.0 L 25.2 9.0 L 25.2 9.0 L 25.3 9.0 L 25.3 8.9 L 25.4 8.9 L 25.4 8.9 L 25.5 8.9 L 25.7 9.6 L 25.8 9.6 L 25.8 9.6 L 25.7 8.8 L 25.8 8.8 L 25.8 8.8 L 25.9 8.8 L 26.2 9.5 L 26.3 9.4 L 26.4 9.4 L 26.4 9.4 L 26.4 9.4 L 26.5 9.4 L 26.6 9.4 L 26.4 8.7 L 26.4 8.7 L 26.3 8.7 L 26.2 8.7 L 26.1 8.7 L 26.0 8.8 L 26.0 8.8 L 26.0 8.8 L 26.0 8.8 L 26.0 8.8 L 26.2 8.7 L 26.3 8.7 L 26.3 8.7 L 26.4 8.7 L 26.5 8.7 L 26.5 8.6 L 26.6 8.6 L 26.8 8.6 L 26.8 8.6 L 26.8 8.6 L 26.8 8.6 L 26.7 8.6 L 26.7 8.6 L 26.7 8.6 L 26.7 8.6 L 26.7 8.6 L 26.6 8.6 L 26.7 8.6 L 26.8 8.6 L 26.8 8.6 L 26.9 8.6 L 26.9 8.5 L 26.9 8.6 L 26.9 8.5 L 27.0 8.5 L 27.1 8.5 L 27.1 8.5 L 27.1 8.5 L 27.1 8.5 L 27.1 8.5 L 27.1 8.5 L 27.2 8.5 L 27.2 8.5 L 27.2 8.5 L 27.2 8.5 L 27.2 8.5 L 27.1 8.5 L 27.1 8.6 L 27.0 8.6 L 27.0 8.6 L 26.9 8.6 L 26.9 8.6 L 26.9 8.6 L 26.9 8.6 L 26.9 8.6 Z M 17.5 14.8 L 17.5 14.9 L 17.5 14.8 L 17.4 14.8 L 17.4 14.9 L 17.4 14.9 L 17.4 14.9 L 17.4 14.9 L 17.4 14.9 L 17.3 15.0 L 17.3 15.0 L 17.3 15.0 L 17.2 15.0 L 17.1 15.1 L 17.1 15.1 L 17.0 15.1 L 17.0 15.2 L 16.9 15.2 L 16.9 15.2 L 16.9 15.2 L 16.9 15.2 L 16.9 15.3 L 17.0 15.2 L 17.0 15.2 L 17.0 15.2 L 17.1 15.2 L 17.0 15.2 L 17.0 15.2 L 17.0 15.2 L 17.0 15.2 L 17.1 15.2 L 17.0 15.3 L 17.0 15.3 L 16.9 15.3 L 16.9 15.3 L 16.9 15.3 L 16.9 15.3 L 16.9 15.4 L 16.9 15.4 L 16.9 15.4 L 16.9 15.4 L 16.9 15.4 L 16.9 15.4 L 16.9 15.4 L 16.9 15.4 L 16.9 15.4 L 16.9 15.5 L 16.8 15.5 L 16.8 15.5 L 16.8 15.5 L 16.8 15.5 L 16.9 15.5 L 16.9 15.5 L 16.9 15.5 L 16.9 15.5 L 16.9 15.5 L 17.0 15.4 L 17.0 15.4 L 17.0 15.5 L 16.9 15.5 L 17.0 15.5 L 17.0 15.5 L 17.0 15.5 L 17.0 15.6 L 17.0 15.6 L 16.9 15.6 L 16.9 15.6 L 16.9 15.7 L 16.8 15.7 L 16.8 15.7 L 16.8 15.7 L 16.8 15.7 L 16.8 15.7 L 16.8 15.7 L 16.8 15.7 L 16.7 15.8 L 16.7 15.8 L 16.7 15.8 L 16.7 15.8 L 16.7 15.8 L 16.7 15.8 L 16.8 15.8 L 16.8 15.8 L 16.8 15.8 L 16.8 15.8 L 16.8 15.8 L 16.8 15.9 L 16.7 15.9 L 16.7 15.9 L 16.7 15.9 L 16.6 15.9 L 16.6 15.9 L 16.6 15.9 L 16.6 15.9 L 16.6 15.9 L 16.6 16.0 L 16.5 16.0 L 16.5 16.0 L 16.5 16.0 L 16.5 16.0 L 16.6 16.0 L 16.7 15.9 L 16.7 16.0 L 16.7 16.0 L 16.6 16.0 L 16.5 16.1 L 16.5 16.1 L 16.5 16.1 L 16.5 16.1 L 16.6 16.1 L 16.6 16.1 L 16.6 16.1 L 16.5 16.2 L 16.4 16.3 L 16.4 16.3 L 16.3 16.3 L 16.2 16.4 L 16.2 16.4 L 16.2 16.4 L 16.2 16.3 L 16.2 16.4 L 16.2 16.4 L 16.3 16.3 L 16.3 16.2 L 16.3 16.2 L 16.3 16.2 L 16.3 16.2 L 16.2 16.3 L 16.2 16.3 L 16.2 16.2 L 16.2 16.2 L 16.3 16.1 L 16.4 16.1 L 16.4 16.1 L 16.5 16.0 L 16.5 15.9 L 16.5 16.0 L 16.4 16.0 L 16.3 16.1 L 16.3 16.0 L 16.4 16.0 L 16.3 16.0 L 16.3 16.0 L 16.2 16.1 L 16.2 16.1 L 16.1 16.1 L 16.1 16.1 L 16.1 16.1 L 16.1 16.1 L 16.1 16.1 L 16.1 16.1 L 16.2 16.1 L 16.2 16.1 L 16.2 16.0 L 16.3 16.0 L 16.4 16.0 L 16.4 16.0 L 16.4 16.0 L 16.4 15.9 L 16.4 15.9 L 16.3 16.0 L 16.3 16.0 L 16.3 16.0 L 16.3 15.9 L 16.3 15.9 L 16.3 15.9 L 16.4 15.9 L 16.4 15.8 L 16.3 15.8 L 16.3 15.8 L 16.3 15.9 L 16.3 15.9 L 16.2 15.8 L 16.2 15.8 L 16.2 15.7 L 16.2 15.7 L 16.2 15.7 L 16.2 15.7 L 16.1 15.7 L 16.1 15.7 L 16.1 15.7 L 16.2 15.6 L 16.2 15.6 L 16.3 15.5 L 16.4 15.5 L 16.4 15.5 L 16.4 15.5 L 16.4 15.4 L 16.4 15.4 L 16.4 15.4 L 16.5 15.4 L 16.4 15.4 L 16.4 15.4 L 16.4 15.4 L 16.5 15.3 L 16.6 15.3 L 16.6 15.3 L 16.6 15.4 L 16.6 15.4 L 16.6 15.3 L 16.7 15.3 L 16.7 15.3 L 16.7 15.3 L 16.7 15.2 L 16.7 15.2 L 16.8 15.2 L 16.8 15.2 L 16.8 15.2 L 16.8 15.2 L 17.0 15.0 L 17.1 15.0 L 17.1 14.9 L 17.2 15.0 L 17.2 14.9 L 17.2 14.9 L 17.2 14.9 L 17.3 14.9 L 17.3 14.9 L 17.3 14.9 L 17.3 14.8 L 17.4 14.8 L 17.4 14.8 L 17.5 14.8 L 17.5 14.8 L 17.5 14.8 L 17.5 14.8 L 17.6 14.8 L 17.5 14.8 L 17.5 14.8 Z M 29.9 9.4 L 29.9 9.4 L 30.0 9.5 L 30.0 9.5 L 29.7 9.5 L 29.7 9.5 L 29.8 9.5 L 29.9 9.5 L 30.0 9.5 L 29.9 9.5 L 29.9 9.6 L 30.0 9.6 L 29.9 9.6 L 29.9 9.6 L 29.5 9.6 L 29.4 9.6 L 29.5 9.6 L 29.6 9.7 L 29.6 9.7 L 29.7 9.7 L 29.7 9.7 L 29.8 9.7 L 29.8 9.7 L 29.7 9.7 L 29.6 9.8 L 29.4 9.8 L 29.4 9.8 L 29.4 9.8 L 29.6 9.8 L 29.6 9.8 L 29.8 9.8 L 29.8 9.8 L 29.8 9.8 L 29.8 9.8 L 30.0 9.8 L 30.0 9.8 L 30.0 9.8 L 30.1 9.8 L 30.1 9.8 L 30.1 9.9 L 30.0 9.9 L 29.9 9.9 L 29.9 9.9 L 29.8 9.9 L 29.8 9.9 L 29.7 9.9 L 29.6 10.0 L 29.6 10.0 L 29.5 10.0 L 29.5 10.0 L 29.4 10.0 L 29.4 10.0 L 29.3 10.0 L 29.3 10.0 L 29.3 10.0 L 29.3 10.0 L 29.2 10.1 L 29.2 10.1 L 29.2 10.1 L 29.2 10.1 L 29.1 10.1 L 29.1 10.2 L 29.0 10.2 L 29.0 10.2 L 28.9 10.2 L 28.8 10.2 L 28.7 10.3 L 28.6 10.3 L 28.6 10.3 L 28.7 10.3 L 28.8 10.4 L 28.7 10.4 L 28.7 10.4 L 28.7 10.4 L 28.6 10.4 L 28.6 10.4 L 28.7 10.5 L 28.7 10.5 L 28.6 10.5 L 28.6 10.5 L 28.6 10.5 L 28.5 10.5 L 28.4 10.5 L 28.3 10.5 L 28.3 10.5 L 28.3 10.5 L 28.3 10.5 L 28.2 10.6 L 28.2 10.6 L 28.3 10.6 L 28.3 10.6 L 28.3 10.7 L 28.2 10.7 L 28.2 10.7 L 28.2 10.8 L 28.1 10.8 L 28.1 10.8 L 28.0 10.8 L 27.9 10.8 L 27.9 10.8 L 27.9 10.8 L 27.9 10.8 L 27.9 10.8 L 27.9 10.8 L 27.9 10.9 L 27.8 10.9 L 27.9 10.9 L 28.0 10.8 L 28.0 10.9 L 27.9 11.0 L 27.9 11.0 L 27.8 11.0 L 27.7 11.0 L 27.6 10.9 L 27.7 10.9 L 27.7 10.9 L 27.6 10.9 L 27.6 10.9 L 27.6 11.0 L 27.6 11.0 L 27.6 11.0 L 27.6 11.1 L 27.5 11.1 L 27.4 11.1 L 27.3 11.1 L 27.3 11.0 L 27.2 11.0 L 27.2 11.0 L 27.2 10.9 L 27.2 11.0 L 27.2 11.0 L 27.1 11.0 L 27.0 11.0 L 27.0 11.0 L 27.0 11.0 L 26.9 11.0 L 26.9 11.0 L 26.9 11.0 L 26.9 11.0 L 26.9 11.1 L 27.0 11.1 L 27.1 11.0 L 27.2 11.1 L 27.2 11.1 L 27.3 11.2 L 27.2 11.2 L 27.1 11.3 L 27.0 11.3 L 27.0 11.3 L 27.0 11.2 L 27.1 11.1 L 27.0 11.1 L 26.9 11.1 L 26.8 11.1 L 26.9 11.1 L 27.0 11.1 L 27.0 11.1 L 26.9 11.2 L 26.8 11.2 L 26.9 11.2 L 26.9 11.3 L 26.9 11.4 L 27.0 11.4 L 27.0 11.4 L 26.9 11.5 L 26.8 11.5 L 26.9 11.5 L 26.9 11.5 L 26.9 11.5 L 26.8 11.6 L 26.7 11.7 L 26.6 11.7 L 26.6 11.7 L 26.7 11.6 L 26.6 11.6 L 26.5 11.7 L 26.5 11.6 L 26.5 11.5 L 26.6 11.5 L 26.6 11.4 L 26.6 11.4 L 26.5 11.3 L 26.4 11.4 L 26.5 11.4 L 26.5 11.4 L 26.4 11.5 L 26.3 11.5 L 26.2 11.4 L 26.2 11.4 L 26.2 11.5 L 26.1 11.5 L 26.0 11.5 L 25.9 11.5 L 26.0 11.6 L 26.2 11.6 L 26.2 11.6 L 26.1 11.6 L 26.0 11.6 L 26.0 11.6 L 26.1 11.6 L 26.2 11.6 L 26.3 11.7 L 26.5 11.8 L 26.5 11.8 L 26.4 11.8 L 26.4 11.8 L 26.3 11.8 L 26.2 11.8 L 26.2 11.8 L 26.2 11.8 L 26.2 11.8 L 26.1 11.9 L 26.0 11.9 L 26.0 11.9 L 25.9 11.9 L 25.8 11.9 L 25.7 11.9 L 25.7 12.0 L 25.6 12.0 L 25.4 12.0 L 25.3 12.0 L 25.2 11.9 L 25.2 11.9 L 25.1 11.9 L 25.1 12.0 L 25.0 11.9 L 25.0 11.9 L 25.0 11.9 L 25.0 11.9 L 24.9 11.9 L 24.9 11.9 L 24.8 12.0 L 24.7 12.0 L 24.6 12.0 L 24.6 12.0 L 24.5 12.1 L 24.3 12.2 L 24.3 12.2 L 24.2 12.2 L 24.1 12.2 L 24.0 12.2 L 24.0 12.2 L 24.0 12.2 L 23.9 12.2 L 23.8 12.3 L 23.9 12.2 L 23.8 12.3 L 23.8 12.3 L 23.8 12.2 L 23.7 12.2 L 23.6 12.3 L 23.6 12.2 L 23.7 12.2 L 23.9 12.1 L 23.9 12.1 L 23.8 12.1 L 23.8 12.1 L 23.7 12.1 L 23.6 12.2 L 23.5 12.2 L 23.4 12.2 L 23.4 12.2 L 23.3 12.3 L 23.2 12.3 L 23.2 12.2 L 23.1 12.3 L 23.1 12.3 L 23.0 12.4 L 23.0 12.4 L 22.9 12.4 L 22.9 12.4 L 22.8 12.5 L 22.9 12.5 L 22.7 12.6 L 22.6 12.6 L 22.6 12.6 L 22.5 12.7 L 22.5 12.7 L 22.4 12.6 L 22.4 12.6 L 22.4 12.7 L 22.3 12.7 L 22.3 12.7 L 22.2 12.7 L 22.2 12.7 L 22.2 12.8 L 22.1 12.8 L 22.0 12.9 L 22.0 12.9 L 21.9 12.9 L 21.9 13.0 L 21.7 13.1 L 21.5 13.2 L 21.4 13.2 L 21.4 13.2 L 21.4 13.2 L 21.4 13.2 L 21.3 13.3 L 21.2 13.3 L 21.2 13.3 L 21.2 13.3 L 21.1 13.3 L 21.2 13.3 L 21.1 13.3 L 21.2 13.3 L 21.3 13.2 L 21.2 13.3 L 21.2 13.2 L 21.2 13.1 L 21.3 13.1 L 21.3 13.1 L 21.2 13.1 L 21.2 13.1 L 21.3 13.0 L 21.4 12.9 L 21.4 12.9 L 21.4 12.9 L 21.3 12.9 L 21.2 12.9 L 21.2 12.9 L 21.2 12.9 L 21.1 12.9 L 21.1 12.9 L 21.1 12.9 L 21.2 12.9 L 21.2 12.8 L 21.2 12.8 L 21.3 12.8 L 21.3 12.7 L 21.3 12.7 L 21.4 12.6 L 21.4 12.6 L 21.5 12.6 L 21.5 12.6 L 21.5 12.5 L 21.4 12.5 L 21.5 12.5 L 21.5 12.5 L 21.5 12.4 L 21.6 12.4 L 21.6 12.4 L 21.8 12.3 L 21.7 12.3 L 21.7 12.3 L 21.7 12.3 L 21.8 12.2 L 22.0 12.1 L 22.1 12.0 L 22.2 12.0 L 22.2 12.0 L 22.2 12.0 L 22.1 12.0 L 22.1 12.0 L 22.1 12.0 L 22.2 11.9 L 22.3 11.9 L 22.3 11.9 L 22.3 11.9 L 22.3 12.0 L 22.4 11.9 L 22.4 11.9 L 22.4 11.9 L 22.5 11.8 L 22.4 11.8 L 22.3 11.9 L 22.3 11.9 L 22.3 11.9 L 22.2 11.9 L 22.1 12.0 L 22.1 11.9 L 22.2 11.9 L 22.4 11.8 L 22.4 11.7 L 22.5 11.7 L 22.6 11.7 L 22.7 11.7 L 22.7 11.7 L 22.6 11.7 L 22.5 11.7 L 22.5 11.6 L 22.7 11.6 L 22.7 11.5 L 22.7 11.5 L 22.9 11.5 L 22.9 11.5 L 23.0 11.5 L 23.1 11.5 L 23.0 11.5 L 22.8 11.5 L 22.7 11.5 L 22.7 11.5 L 22.8 11.5 L 22.9 11.4 L 22.9 11.4 L 23.0 11.4 L 23.0 11.4 L 23.0 11.4 L 23.0 11.4 L 23.1 11.3 L 23.2 11.3 L 23.3 11.2 L 23.3 11.3 L 23.4 11.3 L 23.4 11.4 L 23.4 11.3 L 23.4 11.3 L 23.4 11.3 L 23.4 11.2 L 23.3 11.2 L 23.2 11.2 L 23.3 11.2 L 23.4 11.2 L 23.5 11.2 L 23.5 11.2 L 23.5 11.2 L 23.6 11.2 L 23.6 11.2 L 23.6 11.2 L 23.6 11.2 L 23.5 11.2 L 23.5 11.1 L 23.5 11.1 L 23.6 11.1 L 23.7 11.1 L 23.7 11.1 L 23.8 11.1 L 23.8 11.1 L 23.8 11.1 L 23.9 11.1 L 24.0 11.1 L 24.0 11.1 L 24.0 11.0 L 24.1 11.0 L 24.2 11.0 L 24.2 10.9 L 24.3 10.9 L 24.3 10.9 L 24.3 10.9 L 24.2 10.9 L 24.2 10.8 L 24.3 10.8 L 24.3 10.7 L 24.3 10.7 L 24.4 10.7 L 24.4 10.7 L 24.4 10.7 L 24.4 10.7 L 24.4 10.8 L 24.4 10.9 L 24.4 10.8 L 24.5 10.8 L 24.5 10.8 L 24.6 10.7 L 24.6 10.7 L 24.6 10.7 L 24.6 10.7 L 24.6 10.7 L 24.6 10.7 L 24.6 10.6 L 24.7 10.6 L 24.8 10.6 L 24.8 10.6 L 24.8 10.6 L 24.7 10.6 L 24.7 10.6 L 24.8 10.6 L 24.8 10.5 L 24.9 10.5 L 24.9 10.5 L 25.0 10.4 L 25.0 10.4 L 25.0 10.4 L 24.9 10.5 L 24.8 10.5 L 24.8 10.5 L 24.7 10.5 L 24.7 10.5 L 24.6 10.6 L 24.6 10.6 L 24.6 10.5 L 24.7 10.5 L 24.7 10.5 L 24.9 10.4 L 25.0 10.4 L 24.9 10.4 L 24.9 10.4 L 25.0 10.4 L 25.0 10.4 L 25.1 10.4 L 25.1 10.3 L 25.2 10.3 L 25.2 10.3 L 25.2 10.3 L 25.2 10.3 L 25.2 10.3 L 25.3 10.3 L 25.3 10.2 L 25.4 10.2 L 25.4 10.2 L 25.4 10.2 L 25.5 10.2 L 25.5 10.2 L 25.6 10.1 L 25.6 10.1 L 25.6 10.1 L 25.6 10.1 L 25.6 10.1 L 25.6 10.1 L 25.7 10.1 L 25.8 10.1 L 25.8 10.0 L 25.8 10.0 L 25.9 10.0 L 26.0 9.9 L 26.0 9.9 L 26.1 9.9 L 26.2 9.8 L 26.2 9.8 L 26.2 9.8 L 26.3 9.7 L 26.3 9.7 L 26.3 9.7 L 26.4 9.6 L 26.3 9.6 L 26.4 9.6 L 26.3 9.6 L 26.3 9.6 L 26.3 9.6 L 26.3 9.6 L 26.3 9.6 L 26.3 9.6 L 26.3 9.6 L 26.2 9.6 L 26.2 9.5 L 26.3 9.5 L 26.4 9.5 L 26.4 9.5 L 26.5 9.5 L 26.5 9.5 L 26.5 9.4 L 26.6 9.4 L 26.5 9.4 L 26.5 9.4 L 26.6 9.4 L 26.6 9.4 L 26.7 9.4 L 26.7 9.4 L 26.7 9.4 L 26.8 9.5 L 26.7 9.5 L 26.8 9.5 L 26.9 9.4 L 26.9 9.4 L 26.8 9.4 L 26.8 9.4 L 26.8 9.4 L 26.8 9.4 L 26.8 9.4 L 26.9 9.3 L 26.9 9.3 L 26.9 9.3 L 26.9 9.3 L 27.0 9.3 L 27.0 9.3 L 27.1 9.2 L 27.1 9.2 L 27.2 9.2 L 27.2 9.2 L 27.3 9.2 L 27.3 9.3 L 27.4 9.3 L 27.4 9.3 L 27.4 9.3 L 27.5 9.3 L 27.5 9.3 L 27.5 9.3 L 27.6 9.3 L 27.7 9.3 L 27.9 9.3 L 27.9 9.3 L 27.9 9.3 L 27.9 9.3 L 27.9 9.2 L 27.9 9.2 L 27.9 9.2 L 27.9 9.2 L 28.0 9.2 L 28.1 9.2 L 28.1 9.2 L 28.2 9.2 L 28.3 9.2 L 28.2 9.2 L 28.3 9.2 L 28.4 9.2 L 28.4 9.2 L 28.3 9.2 L 28.4 9.2 L 28.5 9.2 L 28.6 9.2 L 28.7 9.2 L 28.7 9.2 L 28.6 9.3 L 28.5 9.3 L 28.5 9.3 L 28.6 9.3 L 28.7 9.2 L 28.7 9.2 L 28.8 9.2 L 28.9 9.2 L 28.9 9.2 L 28.9 9.3 L 28.7 9.3 L 28.7 9.3 L 28.8 9.3 L 28.9 9.3 L 28.9 9.3 L 28.8 9.3 L 28.8 9.4 L 28.9 9.3 L 29.0 9.3 L 29.0 9.3 L 28.9 9.4 L 28.9 9.4 L 29.0 9.4 L 29.1 9.4 L 29.2 9.4 L 29.2 9.3 L 29.3 9.4 L 29.3 9.4 L 29.3 9.4 L 29.3 9.3 L 29.3 9.3 L 29.3 9.3 L 29.4 9.3 L 29.5 9.3 L 29.5 9.3 L 29.5 9.3 L 29.5 9.3 L 29.6 9.3 L 29.6 9.4 L 29.5 9.4 L 29.6 9.4 L 29.6 9.4 L 29.6 9.3 L 29.7 9.3 L 29.7 9.3 L 29.7 9.4 L 29.7 9.4 L 29.8 9.4 L 29.8 9.4 L 29.8 9.4 L 29.9 9.4 L 29.9 9.4 Z M 32.8 55.3 L 32.7 55.3 L 32.6 55.3 L 32.3 55.3 L 31.9 55.3 L 31.9 55.3 L 32.1 55.3 L 32.2 55.3 L 32.2 55.3 L 32.2 55.3 L 32.2 55.3 L 32.3 55.3 L 32.4 55.3 L 32.8 55.3 L 32.7 55.3 L 32.5 55.3 L 32.4 55.3 L 32.3 55.3 L 32.2 55.3 L 32.0 55.3 L 31.9 55.3 L 31.8 55.3 L 31.6 55.3 L 31.6 55.3 L 31.8 55.3 L 31.4 55.3 L 31.2 55.3 L 31.3 55.3 L 31.3 55.3 L 31.1 55.3 L 31.1 55.3 L 31.2 55.3 L 31.3 55.3 L 31.4 55.3 L 31.7 55.3 L 31.5 55.3 L 31.8 55.3 L 31.8 55.3 L 31.7 55.3 L 31.6 55.3 L 31.4 55.3 L 31.2 55.3 L 31.0 55.3 L 30.8 55.3 L 30.9 55.3 L 30.8 55.2 L 30.6 55.2 L 30.6 55.2 L 30.6 55.2 L 30.5 55.2 L 30.6 55.2 L 30.9 55.3 L 30.7 55.2 L 30.5 55.2 L 30.5 55.2 L 30.2 55.2 L 29.9 55.2 L 29.8 55.2 L 29.6 55.2 L 29.3 55.1 L 29.0 55.1 L 28.8 55.1 L 28.5 55.0 L 28.2 55.0 L 27.5 54.9 L 27.4 54.8 L 27.1 54.8 L 26.9 54.7 L 27.0 54.7 L 27.1 54.8 L 27.2 54.8 L 27.0 54.7 L 26.8 54.7 L 26.7 54.7 L 26.9 54.7 L 27.1 54.8 L 26.9 54.7 L 26.7 54.7 L 26.6 54.6 L 26.6 54.6 L 26.5 54.6 L 26.4 54.6 L 26.3 54.6 L 26.2 54.5 L 26.1 54.5 L 26.1 54.5 L 25.9 54.5 L 25.9 54.5 L 25.8 54.4 L 25.8 54.4 L 25.8 54.5 L 25.7 54.4 L 25.7 54.4 L 25.7 54.4 L 25.5 54.4 L 25.5 54.4 L 25.5 54.4 L 25.4 54.3 L 25.3 54.3 L 25.2 54.3 L 25.0 54.2 L 25.1 54.2 L 25.2 54.3 L 25.2 54.3 L 25.3 54.3 L 25.3 54.3 L 25.2 54.3 L 25.1 54.2 L 25.0 54.2 L 25.2 54.3 L 25.1 54.2 L 25.3 54.3 L 25.2 54.3 L 25.2 54.3 L 25.1 54.2 L 25.1 54.2 L 24.9 54.2 L 24.5 54.0 L 24.1 53.9 L 23.7 53.7 L 23.6 53.7 L 23.5 53.7 L 23.3 53.6 L 23.1 53.5 L 22.9 53.4 L 22.9 53.4 L 22.7 53.4 L 22.7 53.3 L 22.8 53.4 L 22.7 53.4 L 22.6 53.3 L 22.6 53.3 L 22.5 53.2 L 22.4 53.2 L 22.3 53.2 L 22.3 53.2 L 22.3 53.2 L 22.2 53.1 L 22.2 53.1 L 22.1 53.0 L 22.1 53.1 L 22.0 53.0 L 22.0 53.0 L 22.0 53.0 L 21.8 52.9 L 21.8 52.9 L 21.7 52.9 L 21.7 52.9 L 21.8 52.9 L 21.8 52.9 L 21.9 53.0 L 22.0 53.0 L 22.0 53.0 L 22.0 53.0 L 22.0 53.0 L 22.0 53.0 L 22.1 53.0 L 22.1 53.1 L 22.2 53.1 L 22.2 53.1 L 22.3 53.2 L 22.5 53.2 L 22.5 53.3 L 22.5 53.2 L 22.5 53.3 L 22.6 53.3 L 22.6 53.3 L 22.6 53.3 L 22.5 53.3 L 22.6 53.3 L 22.7 53.3 L 22.5 53.3 L 22.6 53.3 L 22.6 53.3 L 22.7 53.4 L 22.7 53.3 L 22.8 53.4 L 22.9 53.4 L 22.9 53.4 L 23.0 53.5 L 23.1 53.5 L 23.2 53.5 L 23.2 53.5 L 23.3 53.6 L 23.4 53.6 L 23.3 53.6 L 23.4 53.6 L 23.4 53.6 L 23.6 53.7 L 23.8 53.8 L 24.1 53.9 L 24.1 53.9 L 24.2 53.9 L 24.3 54.0 L 24.5 54.0 L 24.6 54.1 L 24.6 54.1 L 24.7 54.1 L 24.8 54.1 L 24.8 54.1 L 24.9 54.2 L 25.0 54.2 L 25.1 54.2 L 25.2 54.3 L 25.2 54.3 L 25.3 54.3 L 25.4 54.3 L 25.5 54.3 L 25.5 54.4 L 25.6 54.4 L 25.7 54.4 L 25.7 54.4 L 25.8 54.4 L 25.8 54.4 L 25.8 54.4 L 25.9 54.5 L 25.9 54.5 L 26.0 54.5 L 26.1 54.5 L 26.2 54.6 L 26.5 54.6 L 26.5 54.6 L 26.4 54.6 L 26.6 54.6 L 26.8 54.7 L 27.0 54.7 L 27.0 54.7 L 27.0 54.7 L 27.2 54.8 L 27.3 54.8 L 27.2 54.8 L 27.1 54.8 L 27.2 54.8 L 27.4 54.8 L 27.6 54.9 L 27.6 54.9 L 27.5 54.8 L 27.8 54.9 L 27.8 54.9 L 27.9 54.9 L 28.0 54.9 L 28.2 55.0 L 28.2 55.0 L 28.1 54.9 L 28.2 55.0 L 28.3 55.0 L 28.5 55.0 L 28.6 55.0 L 28.5 55.0 L 28.6 55.0 L 28.6 55.0 L 28.7 55.1 L 28.8 55.1 L 28.8 55.1 L 28.9 55.1 L 29.0 55.1 L 29.2 55.1 L 29.3 55.1 L 29.2 55.1 L 29.0 55.1 L 28.9 55.1 L 28.9 55.1 L 28.9 55.1 L 29.0 55.1 L 29.2 55.1 L 29.1 55.1 L 28.9 55.1 L 28.8 55.1 L 28.9 55.1 L 28.8 55.1 L 28.9 55.1 L 28.9 55.1 L 29.2 55.1 L 29.1 55.1 L 28.7 55.0 L 28.5 55.0 L 28.3 55.0 L 28.0 54.9 L 27.9 54.9 L 27.9 54.9 L 27.8 54.9 L 27.9 54.9 L 28.2 55.0 L 28.3 55.0 L 28.3 55.0 L 28.2 55.0 L 28.2 55.0 L 28.3 55.0 L 28.2 55.0 L 28.2 55.0 L 28.1 54.9 L 28.1 55.0 L 28.1 55.0 L 28.2 55.0 L 28.2 55.7 L 28.1 55.7 L 27.9 55.6 L 28.1 55.7 L 28.1 55.7 L 28.0 55.7 L 28.2 55.7 L 28.4 55.7 L 28.4 55.7 L 28.3 55.7 L 28.5 55.7 L 28.6 55.7 L 28.8 55.8 L 29.0 55.8 L 29.2 55.8 L 29.3 55.8 L 29.4 55.8 L 29.8 55.9 L 30.3 55.9 L 30.5 55.9 L 30.8 55.9 L 30.9 55.9 L 30.9 55.9 L 31.1 55.9 L 31.4 55.9 L 31.7 55.9 L 31.8 55.9 L 31.9 55.9 L 32.0 55.9 L 32.3 55.9 L 32.3 55.9 L 32.5 55.9 L 32.6 55.9 L 32.8 55.9 L 33.0 55.9 L 33.3 55.9 L 33.7 55.9 L 33.9 55.8 L 33.9 55.8 L 34.1 55.8 L 34.0 55.8 L 34.2 55.8 L 34.4 55.8 L 34.5 55.8 L 34.6 55.8 L 34.8 55.8 L 35.0 55.7 L 35.4 55.7 L 35.7 55.6 L 35.9 55.6 L 36.1 55.5 L 36.2 55.5 L 36.2 55.5 L 36.3 55.5 L 36.4 55.5 L 36.5 55.5 L 36.6 55.5 L 36.8 55.4 L 36.9 55.4 L 37.3 55.3 L 37.7 55.2 L 37.8 55.2 L 37.6 55.3 L 37.4 55.3 L 37.6 55.3 L 37.8 55.3 L 38.0 55.2 L 38.2 55.2 L 38.5 55.1 L 38.7 55.0 L 38.7 54.3 L 38.5 54.3 L 38.4 54.4 L 38.2 54.4 L 38.1 54.5 L 38.0 54.5 L 37.9 54.5 L 37.9 54.5 L 37.9 54.5 L 37.6 54.6 L 37.3 54.7 L 37.0 54.7 L 36.9 54.8 L 37.2 54.7 L 37.4 54.6 L 37.6 54.6 L 37.8 54.5 L 38.1 54.5 L 38.3 54.4 L 38.5 54.3 L 38.7 54.3 L 39.0 54.2 L 39.2 54.1 L 39.6 54.0 L 39.9 53.9 L 40.2 53.8 L 40.3 53.7 L 40.6 53.7 L 40.7 53.6 L 40.9 53.5 L 40.9 53.5 L 41.0 53.5 L 41.0 53.5 L 41.1 53.4 L 41.2 53.4 L 41.3 53.3 L 41.5 53.2 L 41.6 53.2 L 41.6 53.2 L 41.5 53.3 L 41.4 53.3 L 41.7 53.1 L 41.8 53.1 L 41.6 53.2 L 41.4 53.3 L 41.3 53.4 L 41.3 53.3 L 41.4 53.3 L 41.4 53.3 L 41.4 53.3 L 41.4 53.3 L 41.3 53.3 L 41.4 53.3 L 41.5 53.3 L 41.5 53.2 L 41.5 53.3 L 41.2 53.4 L 41.2 53.4 L 41.5 53.3 L 41.4 53.3 L 41.3 53.3 L 41.2 53.4 L 41.2 53.4 L 41.1 53.4 L 40.9 53.5 L 40.7 53.6 L 40.5 53.7 L 40.4 53.7 L 40.3 53.8 L 40.1 53.8 L 40.1 53.8 L 39.8 53.9 L 39.5 54.0 L 39.4 54.1 L 39.2 54.1 L 39.1 54.2 L 39.0 54.2 L 39.1 54.2 L 38.8 54.3 L 38.4 54.4 L 38.3 54.4 L 37.9 54.5 L 37.5 54.6 L 37.3 54.7 L 37.4 54.6 L 37.2 54.7 L 36.8 54.8 L 36.7 54.8 L 36.3 54.9 L 36.2 54.9 L 36.2 54.9 L 36.0 54.9 L 36.2 54.9 L 36.2 54.9 L 35.9 54.9 L 36.1 54.9 L 36.2 54.9 L 36.1 54.9 L 36.2 54.9 L 36.2 54.9 L 36.3 54.9 L 36.2 54.9 L 36.0 54.9 L 36.1 54.9 L 36.2 54.9 L 36.1 54.9 L 36.1 54.9 L 36.0 54.9 L 35.9 55.0 L 35.8 55.0 L 35.6 55.0 L 35.5 55.0 L 35.3 55.0 L 35.1 55.1 L 35.0 55.1 L 35.0 55.1 L 34.8 55.1 L 34.8 55.1 L 34.9 55.1 L 35.1 55.1 L 35.0 55.1 L 35.0 55.1 L 34.9 55.1 L 34.9 55.1 L 34.8 55.1 L 34.8 55.1 L 34.7 55.1 L 34.6 55.1 L 34.6 55.1 L 34.4 55.2 L 34.3 55.2 L 34.1 55.2 L 34.1 55.2 L 34.0 55.2 L 33.7 55.2 L 33.7 55.2 L 33.6 55.2 L 33.5 55.2 L 33.6 55.2 L 33.4 55.2 L 33.3 55.2 L 33.2 55.2 L 33.1 55.3 L 32.9 55.3 L 32.8 55.3 Z" />
    </g>

    <g stroke="#22d3ee" stroke-width="0.9" fill="#22d3ee" filter="url(#glow)" opacity="0.95">
      <g fill="none">
        <path d="M 19 23 L 31 21" />
        <path d="M 31 21 L 46 20" />
        <path d="M 46 20 L 50 43" />
        <path d="M 50 43 L 31 43" />
        <path d="M 31 43 L 19 23" />
        <path d="M 31 21 L 31 43" />
        <path d="M 19 23 L 50 43" />
      </g>
      <g>
        <circle cx="19" cy="23" r="1.4" />
        <circle cx="31" cy="21" r="1.5" />
        <circle cx="46" cy="20" r="1.4" />
        <circle cx="50" cy="43" r="1.3" />
        <circle cx="31" cy="43" r="1.2" />
      </g>
    </g>
  </g>

  <ellipse cx="32" cy="32" rx="24" ry="6.5" fill="none" stroke="#22d3ee" stroke-width="0.4" stroke-opacity="0.3" />
</svg>