<svg xmlns="http://www.w3.org/2000/svg" viewBox="0 0 64 64">
  <defs>
    <radialGradient id="ocean" cx="38%" cy="34%" r="75%">
      <stop offset="0%" stop-color="#0a3a5c" />
      <stop offset="55%" stop-color="#062a44" />
      <stop offset="100%" stop-color="#021628" />
    </radialGradient>
    <radialGradient id="atmo" cx="50%" cy="50%" r="55%">
      <stop offset="78%" stop-color="#22d3ee" stop-opacity="0" />
      <stop offset="92%" stop-color="#22d3ee" stop-opacity="0.45" />
      <stop offset="100%" stop-color="#22d3ee" stop-opacity="0" />
    </radialGradient>
    <linearGradient id="landN" x1="0" y1="0" x2="0" y2="1">
      <stop offset="0%" stop-color="#1ea578" />
      <stop offset="100%" stop-color="#0d6b4a" />
    </linearGradient>
    <clipPath id="globe">
      <circle cx="32" cy="32" r="24" />
    </clipPath>
    <filter id="glow" x="-50%" y="-50%" width="200%" height="200%">
      <feGaussianBlur stdDeviation="0.8" result="b" />
      <feMerge>
        <feMergeNode in="b" />
        <feMergeNode in="SourceGraphic" />
      </feMerge>
    </filter>
  </defs>

  <circle cx="32" cy="32" r="30" fill="url(#atmo)" />
  <circle cx="32" cy="32" r="24" fill="url(#ocean)" stroke="#22d3ee" stroke-width="0.6" stroke-opacity="0.7" />

  <g clip-path="url(#globe)">
    <g fill="url(#landN)" opacity="0.92">
      <path d="M 21.83 30.75 L 21.79 33.70 L 22.71 36.34 L 24.60 38.21 L 27.03 38.03 L 29.09 37.75 L 31.16 38.61 L 32.42 39.42 L 33.67 40.58 L 35.33 41.68 L 35.29 43.92 L 35.96 46.66 L 37.63 48.72 L 38.22 50.83 L 39.86 49.59 L 40.50 48.38 L 41.40 47.35 L 43.54 45.05 L 44.13 43.21 L 45.02 40.82 L 47.74 38.98 L 47.02 35.99 L 45.17 34.38 L 44.79 34.04 L 42.93 33.58 L 42.36 31.99 L 40.69 30.56 L 38.46 30.41 L 36.63 31.00 L 34.73 31.52 L 32.00 29.91 L 30.14 29.05 L 28.39 27.72 L 26.91 25.56 L 25.37 26.63 L 23.99 28.54 L 21.83 30.75 Z" />
      <path d="M 25.84 24.23 L 26.29 22.30 L 27.53 22.04 L 29.10 21.39 L 30.01 21.06 L 31.41 21.85 L 32.00 22.24 L 32.59 21.85 L 33.16 21.47 L 34.36 21.80 L 35.59 22.11 L 37.60 23.10 L 38.10 22.64 L 39.54 22.44 L 39.68 20.45 L 39.71 19.29 L 37.82 17.79 L 36.59 17.62 L 35.11 16.43 L 33.96 15.88 L 32.98 15.93 L 32.00 16.57 L 30.89 17.21 L 30.32 18.20 L 29.32 19.92 L 28.01 19.82 L 27.23 19.74 L 27.29 17.95 L 28.71 17.08 L 28.90 18.11 L 28.79 19.88 L 27.61 21.66 L 26.29 22.30 L 25.84 24.23 Z" />
      <path d="M 38.10 22.64 L 39.54 22.44 L 40.92 22.19 L 42.55 22.65 L 44.16 23.07 L 45.73 23.44 L 47.45 25.48 L 48.80 27.65 L 50.45 26.41 L 51.65 27.12 L 52.91 27.18 L 53.68 28.48 L 53.77 25.13 L 54.04 24.61 L 54.52 24.69 L 55.29 26.54 L 54.84 27.52 L 54.91 27.84 L 54.51 26.08 L 53.56 23.21 L 52.58 21.12 L 50.86 18.36 L 49.07 16.17 L 46.89 14.10 L 44.83 12.58 L 42.73 11.34 L 40.66 10.39 L 38.70 9.71 L 37.48 9.37 L 36.16 9.10 L 34.98 8.91 L 34.26 8.83 L 33.52 8.77 L 33.92 8.10 L 35.11 8.38 L 36.76 8.85 L 37.84 9.49 L 37.40 10.03 L 37.84 10.94 L 37.68 12.18 L 37.28 12.96 L 37.82 14.40 L 38.00 16.02 L 37.82 17.79 L 38.03 19.58 L 37.49 20.40 L 38.10 22.64 Z" />
      <path d="M 31.66 8.72 L 30.57 8.04 L 29.19 8.17 L 27.50 8.43 L 23.34 10.39 L 21.27 11.34 L 18.27 13.20 L 15.72 15.36 L 13.59 17.75 L 11.85 20.34 L 11.71 20.58 L 11.13 20.15 L 10.82 21.16 L 10.25 22.47 L 9.46 24.02 L 10.02 24.32 L 10.04 24.26 L 10.77 22.46 L 11.49 20.99 L 12.34 19.54 L 13.85 17.43 L 15.18 15.91 L 16.60 14.54 L 17.92 13.46 L 20.43 11.80 L 22.28 10.84 L 24.87 9.84 L 27.04 9.25 L 29.15 8.90 L 30.97 8.74 L 31.66 8.72 Z" />
      <path d="M 8.54 27.59 L 8.59 29.21 L 9.04 30.97 L 9.83 33.10 L 10.81 35.85 L 11.72 38.30 L 13.38 40.89 L 14.77 43.14 L 16.05 45.17 L 15.84 46.51 L 15.08 46.95 L 14.57 47.73 L 14.86 48.62 L 15.54 48.47 L 17.22 49.99 L 18.61 51.05 L 16.94 49.75 L 14.36 47.19 L 12.00 43.92 L 10.19 40.14 L 9.08 36.07 L 8.80 33.91 L 8.00 32.00 L 8.11 30.32 L 8.54 27.59 Z" />
      <path d="M 54.26 38.81 L 54.64 37.42 L 55.16 34.39 L 55.28 32.10 L 55.26 32.97 L 55.19 34.08 L 54.45 38.15 L 53.79 40.20 L 51.82 44.21 L 51.11 45.30 L 51.63 44.51 L 52.29 43.41 L 52.52 43.00 L 52.44 43.15 L 52.72 42.62 L 53.39 41.19 L 54.26 38.81 Z" />
      <path d="M 21.61 14.52 L 23.07 14.04 L 24.23 13.79 L 26.72 12.96 L 28.44 11.96 L 29.32 10.88 L 28.81 10.71 L 26.62 11.28 L 24.56 11.99 L 22.81 13.03 L 21.61 14.52 Z" />
    </g>

    <g stroke="#22d3ee" stroke-width="0.9" fill="#22d3ee" filter="url(#glow)" opacity="0.95">
      <g fill="none">
        <path d="M 19 23 L 31 21" />
        <path d="M 31 21 L 46 20" />
        <path d="M 46 20 L 50 43" />
        <path d="M 50 43 L 31 43" />
        <path d="M 31 43 L 19 23" />
        <path d="M 31 21 L 31 43" />
        <path d="M 19 23 L 50 43" />
      </g>
      <g>
        <circle cx="19" cy="23" r="1.4" />
        <circle cx="31" cy="21" r="1.5" />
        <circle cx="46" cy="20" r="1.4" />
        <circle cx="50" cy="43" r="1.3" />
        <circle cx="31" cy="43" r="1.2" />
      </g>
    </g>
  </g>

  <ellipse cx="32" cy="32" rx="24" ry="6.5" fill="none" stroke="#22d3ee" stroke-width="0.4" stroke-opacity="0.3" />
</svg>