<svg xmlns="http://www.w3.org/2000/svg" viewBox="0 0 64 64">
  <defs>
    <radialGradient id="ocean" cx="38%" cy="34%" r="75%">
      <stop offset="0%" stop-color="#0a3a5c" />
      <stop offset="55%" stop-color="#062a44" />
      <stop offset="100%" stop-color="#021628" />
    </radialGradient>
    <linearGradient id="landN" x1="0" y1="0" x2="0" y2="1">
      <stop offset="0%" stop-color="#1ea578" />
      <stop offset="100%" stop-color="#0d6b4a" />
    </linearGradient>
    <clipPath id="globe">
      <circle cx="32" cy="32" r="30" />
    </clipPath>
    <filter id="glow" x="-50%" y="-50%" width="200%" height="200%">
      <feGaussianBlur stdDeviation="0.8" result="b" />
      <feMerge>
        <feMergeNode in="b" />
        <feMergeNode in="SourceGraphic" />
      </feMerge>
    </filter>
  </defs>

  <circle cx="32" cy="32" r="30" fill="url(#ocean)" stroke="#22d3ee" stroke-width="0.6" stroke-opacity="0.7" />

  <g clip-path="url(#globe)">
    <g fill="url(#landN)" opacity="0.92">
      <path d="M 61.0 34.2 L 61.0 34.3 L 61.0 34.4 L 61.0 34.4 L 61.0 34.6 L 61.0 34.7 L 60.9 35.0 L 60.9 35.2 L 60.9 35.4 L 60.9 35.6 L 60.9 35.6 L 60.9 35.5 L 60.9 35.5 L 60.9 35.6 L 60.9 35.8 L 60.8 35.8 L 60.8 35.9 L 60.8 36.1 L 60.8 36.3 L 60.7 36.5 L 60.7 36.7 L 60.7 36.8 L 60.7 36.9 L 60.7 37.0 L 60.6 37.1 L 60.6 37.5 L 60.5 37.8 L 60.5 38.0 L 60.5 38.1 L 60.4 38.3 L 60.4 38.4 L 60.4 38.4 L 60.4 38.5 L 60.4 38.5 L 60.4 38.5 L 60.3 38.6 L 60.3 38.8 L 60.3 38.8 L 60.3 38.8 L 60.3 38.9 L 60.3 39.0 L 60.2 39.1 L 60.2 39.2 L 60.2 39.3 L 60.1 39.4 L 60.1 39.6 L 60.1 39.7 L 60.0 39.9 L 59.9 40.2 L 59.9 40.4 L 59.8 40.4 L 59.8 40.5 L 59.8 40.5 L 59.9 40.3 L 59.9 40.3 L 59.9 40.4 L 59.8 40.5 L 59.8 40.5 L 59.9 40.4 L 59.8 40.5 L 59.7 40.9 L 59.6 41.2 L 59.6 41.3 L 59.5 41.4 L 59.5 41.5 L 59.5 41.6 L 59.4 41.8 L 59.3 42.0 L 59.3 42.1 L 59.3 42.2 L 59.2 42.3 L 59.1 42.5 L 59.0 42.7 L 59.0 42.8 L 58.9 43.1 L 58.7 43.7 L 58.5 44.1 L 58.4 44.2 L 58.2 44.6 L 58.1 44.8 L 58.0 45.0 L 57.8 45.4 L 57.7 45.6 L 57.6 45.9 L 57.4 46.1 L 57.3 46.3 L 57.1 46.7 L 57.0 46.8 L 57.0 46.9 L 56.9 47.0 L 56.9 47.0 L 56.9 47.0 L 56.9 47.1 L 56.8 47.3 L 56.7 47.3 L 56.7 47.4 L 56.7 47.4 L 56.6 47.6 L 56.5 47.7 L 56.5 47.7 L 56.5 47.7 L 56.5 47.8 L 56.4 47.9 L 56.3 48.1 L 56.2 48.2 L 56.2 48.2 L 56.2 48.2 L 56.1 48.3 L 56.1 48.3 L 56.1 48.3 L 56.0 48.5 L 55.9 48.6 L 55.8 48.7 L 55.6 49.0 L 55.5 49.1 L 55.4 49.3 L 55.3 49.4 L 55.3 49.5 L 55.2 49.5 L 55.2 49.6 L 55.3 49.5 L 55.3 49.5 L 55.2 49.6 L 55.0 49.8 L 55.1 49.8 L 55.0 49.8 L 55.0 49.9 L 55.0 49.8 L 54.9 49.9 L 54.9 50.0 L 54.9 49.9 L 55.0 49.8 L 55.0 49.8 L 55.1 49.8 L 55.1 49.7 L 55.1 49.7 L 55.2 49.6 L 55.2 49.5 L 55.3 49.5 L 55.3 49.5 L 55.2 49.5 L 55.2 49.5 L 55.3 49.5 L 55.3 49.4 L 55.4 49.4 L 55.4 49.3 L 55.4 49.3 L 55.4 49.3 L 55.4 49.4 L 55.3 49.4 L 55.3 49.4 L 55.2 49.6 L 55.2 49.6 L 55.2 49.6 L 55.3 49.5 L 55.4 49.3 L 55.4 49.3 L 55.4 49.2 L 55.4 49.3 L 55.5 49.2 L 55.6 49.1 L 55.7 48.9 L 55.9 48.7 L 55.9 48.6 L 56.0 48.4 L 56.2 48.2 L 56.3 48.0 L 56.4 47.9 L 56.4 47.8 L 56.4 47.8 L 56.4 47.8 L 56.5 47.8 L 56.5 47.7 L 56.5 47.7 L 56.5 47.7 L 56.5 47.8 L 56.5 47.8 L 56.4 47.8 L 56.5 47.7 L 56.5 47.7 L 56.7 47.4 L 56.8 47.2 L 56.9 47.1 L 56.8 47.1 L 56.7 47.3 L 56.6 47.5 L 56.6 47.6 L 56.6 47.6 L 56.6 47.6 L 56.7 47.4 L 56.7 47.4 L 56.7 47.4 L 56.8 47.2 L 56.9 47.1 L 57.0 46.9 L 57.1 46.8 L 57.2 46.6 L 57.2 46.5 L 57.3 46.3 L 57.4 46.2 L 57.3 46.4 L 57.2 46.5 L 57.1 46.7 L 57.0 46.8 L 57.0 46.8 L 57.0 46.9 L 57.0 47.0 L 56.8 47.2 L 56.8 47.3 L 56.7 47.3 L 56.7 47.4 L 56.7 47.4 L 56.7 47.4 L 56.8 47.3 L 56.8 47.2 L 56.8 47.2 L 56.8 47.2 L 56.8 47.2 L 56.8 47.2 L 56.9 47.1 L 56.9 47.0 L 57.0 46.9 L 57.1 46.8 L 57.2 46.6 L 57.2 46.5 L 57.3 46.4 L 57.3 46.3 L 57.4 46.3 L 57.4 46.1 L 57.5 46.0 L 57.5 46.0 L 57.6 45.9 L 57.5 46.0 L 57.6 45.8 L 57.7 45.7 L 57.7 45.7 L 57.6 45.8 L 57.6 45.8 L 57.6 45.9 L 57.5 46.1 L 57.4 46.2 L 57.4 46.2 L 57.4 46.2 L 57.3 46.4 L 57.2 46.6 L 57.2 46.6 L 57.1 46.7 L 57.0 46.9 L 56.9 47.1 L 56.9 47.1 L 56.9 47.1 L 56.8 47.2 L 56.9 47.1 L 56.9 47.1 L 56.8 47.2 L 56.8 47.2 L 56.8 47.3 L 56.7 47.5 L 56.6 47.5 L 56.5 47.7 L 56.4 47.8 L 56.4 47.9 L 56.4 47.9 L 56.4 47.9 L 56.4 47.8 L 56.5 47.7 L 56.5 47.7 L 56.5 47.6 L 56.6 47.6 L 56.7 47.3 L 56.7 47.4 L 56.8 47.3 L 56.9 47.1 L 57.0 46.9 L 57.0 46.9 L 57.2 46.6 L 57.3 46.3 L 57.4 46.1 L 57.6 45.9 L 57.7 45.6 L 57.8 45.5 L 57.9 45.3 L 57.9 45.2 L 58.0 45.1 L 58.1 44.9 L 58.2 44.6 L 58.4 44.3 L 58.4 44.2 L 58.4 44.2 L 58.4 44.2 L 58.4 44.1 L 58.4 44.1 L 58.4 44.3 L 58.4 44.3 L 58.4 44.3 L 58.4 44.2 L 58.5 44.1 L 58.5 44.0 L 58.6 43.9 L 58.5 43.9 L 58.5 44.1 L 58.5 44.1 L 58.5 44.1 L 58.5 44.1 L 58.4 44.2 L 58.4 44.2 L 58.4 44.1 L 58.5 44.0 L 58.6 43.8 L 58.7 43.6 L 58.8 43.4 L 58.8 43.3 L 58.9 43.1 L 59.0 42.9 L 59.0 42.7 L 59.1 42.6 L 59.1 42.5 L 59.3 42.1 L 59.3 42.1 L 59.2 42.2 L 59.2 42.4 L 59.2 42.3 L 59.2 42.3 L 59.3 42.0 L 59.4 41.9 L 59.4 41.7 L 59.5 41.6 L 59.6 41.3 L 59.6 41.3 L 59.6 41.2 L 59.6 41.2 L 59.6 41.1 L 59.7 41.0 L 59.7 40.9 L 59.8 40.7 L 59.8 40.7 L 59.8 40.5 L 59.9 40.4 L 59.9 40.2 L 60.0 40.0 L 60.0 39.8 L 60.1 39.7 L 60.1 39.5 L 60.1 39.5 L 60.1 39.4 L 60.2 39.2 L 60.2 39.1 L 60.3 39.0 L 60.3 38.9 L 60.3 38.8 L 60.3 38.7 L 60.3 38.6 L 60.3 38.8 L 60.2 39.0 L 60.2 39.1 L 60.2 39.1 L 60.3 38.9 L 60.3 38.8 L 60.3 38.8 L 60.3 38.9 L 60.3 38.8 L 60.3 38.7 L 60.3 38.7 L 60.3 38.7 L 60.3 38.6 L 60.4 38.6 L 60.4 38.5 L 60.4 38.4 L 60.4 38.5 L 60.4 38.4 L 60.4 38.4 L 60.4 38.4 L 60.4 38.4 L 60.4 38.4 L 60.4 38.4 L 60.4 38.4 L 60.4 38.3 L 60.4 38.3 L 60.4 38.3 L 60.4 38.2 L 60.5 38.1 L 60.4 38.2 L 60.4 38.1 L 60.5 38.0 L 60.5 38.0 L 60.5 37.9 L 60.5 37.8 L 60.5 37.9 L 60.5 37.9 L 60.5 37.8 L 60.5 37.8 L 60.5 37.8 L 60.5 37.7 L 60.5 37.7 L 60.5 37.7 L 60.5 37.7 L 60.5 37.7 L 60.5 37.6 L 60.6 37.6 L 60.6 37.5 L 60.6 37.4 L 60.6 37.4 L 60.6 37.3 L 60.6 37.2 L 60.6 37.2 L 60.6 37.3 L 60.6 37.4 L 60.6 37.3 L 60.6 37.3 L 60.6 37.4 L 60.6 37.3 L 60.6 37.2 L 60.6 37.1 L 60.7 37.1 L 60.7 37.0 L 60.7 37.1 L 60.7 37.1 L 60.7 37.0 L 60.7 37.1 L 60.7 37.0 L 60.7 36.9 L 60.7 36.8 L 60.7 36.9 L 60.7 36.9 L 60.7 37.0 L 60.6 37.2 L 60.6 37.3 L 60.6 37.4 L 60.6 37.5 L 60.6 37.5 L 60.6 37.5 L 60.6 37.4 L 60.6 37.4 L 60.6 37.3 L 60.6 37.2 L 60.6 37.2 L 60.6 37.2 L 60.6 37.3 L 60.6 37.3 L 60.6 37.2 L 60.6 37.2 L 60.6 37.3 L 60.6 37.3 L 60.6 37.2 L 60.6 37.1 L 60.6 37.1 L 60.7 37.1 L 60.7 37.0 L 60.7 37.0 L 60.7 36.9 L 60.7 36.7 L 60.7 36.6 L 60.7 36.5 L 60.8 36.4 L 60.8 36.4 L 60.8 36.3 L 60.8 36.2 L 60.8 36.1 L 60.8 35.9 L 60.8 35.9 L 60.9 35.8 L 60.9 35.7 L 60.9 35.8 L 60.9 35.8 L 60.9 35.7 L 60.9 35.7 L 60.9 35.6 L 60.9 35.6 L 60.9 35.5 L 60.9 35.6 L 60.9 35.6 L 60.9 35.5 L 60.9 35.5 L 60.9 35.5 L 60.9 35.4 L 60.9 35.4 L 60.9 35.4 L 60.9 35.3 L 60.9 35.2 L 60.9 35.1 L 60.9 35.1 L 60.9 35.0 L 60.9 35.0 L 61.0 34.9 L 60.9 35.0 L 61.0 34.9 L 61.0 34.9 L 60.9 35.0 L 60.9 35.0 L 60.9 35.0 L 60.9 35.1 L 60.9 35.1 L 60.9 35.1 L 60.9 35.1 L 60.9 35.1 L 60.9 35.1 L 60.9 35.1 L 60.9 35.2 L 60.9 35.1 L 60.9 35.0 L 61.0 34.9 L 61.0 34.9 L 60.9 35.0 L 60.9 35.0 L 60.9 35.1 L 60.9 35.1 L 60.9 35.0 L 60.9 35.1 L 60.9 35.2 L 60.9 35.1 L 60.9 35.0 L 61.0 34.9 L 60.9 35.0 L 60.9 35.0 L 60.9 35.1 L 60.9 35.4 L 60.9 35.5 L 60.9 35.6 L 60.9 35.6 L 60.9 35.6 L 60.8 35.9 L 60.8 36.1 L 60.8 36.2 L 60.8 36.5 L 60.7 36.6 L 60.7 36.7 L 60.7 36.8 L 60.7 36.9 L 60.7 36.9 L 60.7 37.0 L 60.7 37.0 L 60.7 37.0 L 60.7 37.0 L 60.7 37.1 L 60.7 37.1 L 60.6 37.1 L 60.6 37.2 L 60.6 37.3 L 60.6 37.4 L 60.6 37.4 L 60.6 37.5 L 60.6 37.6 L 60.5 37.7 L 60.5 37.8 L 60.5 37.9 L 60.5 37.9 L 60.5 37.8 L 60.6 37.5 L 60.6 37.2 L 60.7 36.9 L 60.7 36.7 L 60.8 36.3 L 60.8 36.1 L 60.9 35.8 L 60.9 35.6 L 60.9 35.5 L 60.9 35.2 L 61.0 34.9 L 61.0 34.8 L 61.0 34.8 L 61.0 34.8 L 61.0 34.7 L 61.0 34.7 L 61.0 34.6 L 61.0 34.3 L 61.0 34.4 L 61.0 34.3 L 61.0 33.9 L 61.1 33.6 L 61.1 33.5 L 61.1 33.5 L 61.1 33.6 L 61.0 33.7 L 61.0 33.8 L 61.0 34.0 L 61.0 34.2 L 61.0 34.2 L 61.0 34.2 Z M 52.7 52.4 L 52.7 52.5 L 52.7 52.4 L 52.7 52.5 L 52.5 52.6 L 52.5 52.7 L 52.4 52.7 L 52.3 52.8 L 52.3 52.9 L 52.2 52.9 L 52.2 52.9 L 52.1 53.0 L 52.1 53.1 L 51.9 53.2 L 51.9 53.2 L 51.8 53.3 L 51.9 53.3 L 51.7 53.4 L 51.4 53.7 L 51.3 53.7 L 51.2 53.8 L 51.2 53.9 L 51.1 53.9 L 51.1 54.0 L 51.0 54.0 L 51.0 54.1 L 50.8 54.2 L 50.7 54.3 L 50.6 54.4 L 50.6 54.4 L 50.8 54.2 L 50.9 54.1 L 51.0 54.1 L 51.1 54.0 L 51.1 54.0 L 51.0 54.1 L 50.8 54.2 L 50.7 54.3 L 50.5 54.5 L 50.2 54.7 L 50.2 54.7 L 50.2 54.7 L 50.1 54.8 L 50.0 54.8 L 49.7 55.1 L 49.4 55.3 L 49.4 55.3 L 49.4 55.3 L 49.4 55.3 L 49.4 55.3 L 49.3 55.4 L 49.1 55.5 L 49.0 55.6 L 49.0 55.6 L 48.7 55.8 L 48.7 55.9 L 48.7 55.8 L 48.6 55.9 L 48.5 56.0 L 48.4 56.0 L 48.5 55.9 L 48.6 55.9 L 48.8 55.8 L 48.8 55.7 L 48.8 55.8 L 48.7 55.8 L 48.6 55.9 L 48.5 56.0 L 48.4 56.1 L 48.3 56.1 L 48.3 56.1 L 48.2 56.2 L 48.2 56.2 L 48.2 56.2 L 48.2 56.2 L 48.2 56.2 L 48.3 56.1 L 48.4 56.1 L 48.5 56.0 L 48.5 56.0 L 48.6 55.9 L 48.6 55.9 L 48.6 55.9 L 48.6 55.9 L 48.6 55.9 L 48.7 55.9 L 48.7 55.8 L 48.9 55.7 L 49.0 55.6 L 49.2 55.4 L 49.4 55.3 L 49.6 55.2 L 49.8 55.0 L 50.0 54.9 L 50.1 54.8 L 50.1 54.8 L 50.1 54.8 L 50.1 54.8 L 50.0 54.8 L 50.0 54.8 L 50.1 54.7 L 50.3 54.6 L 50.4 54.5 L 50.5 54.5 L 50.5 54.5 L 50.7 54.3 L 50.8 54.2 L 50.8 54.2 L 51.0 54.0 L 51.0 54.0 L 50.9 54.1 L 50.9 54.1 L 51.0 54.0 L 51.1 54.0 L 51.1 53.9 L 51.2 53.9 L 51.3 53.8 L 51.5 53.6 L 51.4 53.7 L 51.5 53.6 L 51.5 53.6 L 51.6 53.5 L 51.7 53.5 L 51.7 53.4 L 51.6 53.5 L 51.9 53.3 L 51.9 53.2 L 51.8 53.3 L 51.6 53.5 L 51.6 53.5 L 51.7 53.4 L 52.3 52.8 L 52.4 52.8 L 52.4 52.8 L 52.4 52.7 L 52.4 52.8 L 52.4 52.8 L 52.4 52.7 L 52.5 52.7 L 52.6 52.6 L 52.6 52.5 L 52.8 52.4 L 53.0 52.1 L 53.1 52.0 L 53.0 52.1 L 53.0 52.2 L 52.8 52.4 L 52.7 52.4 L 52.7 52.4 Z M 49.2 55.5 L 49.2 55.5 L 49.1 55.5 L 49.1 55.5 L 49.1 55.5 L 49.1 55.6 L 49.1 55.6 L 49.0 55.6 L 49.0 55.6 L 49.0 55.6 L 49.0 55.6 L 49.0 55.6 L 49.0 55.6 L 49.0 55.6 L 48.9 55.7 L 48.9 55.7 L 48.9 55.7 L 48.9 55.7 L 48.8 55.7 L 48.8 55.8 L 48.8 55.8 L 48.8 55.8 L 48.8 55.8 L 48.7 55.9 L 48.6 55.9 L 48.5 55.9 L 48.5 56.0 L 48.5 56.0 L 48.4 56.0 L 48.4 56.0 L 48.3 56.1 L 48.3 56.1 L 48.3 56.1 L 48.3 56.1 L 48.3 56.1 L 48.2 56.2 L 48.2 56.2 L 48.2 56.1 L 48.2 56.2 L 48.1 56.2 L 48.0 56.3 L 47.9 56.4 L 47.8 56.4 L 47.9 56.4 L 47.9 56.4 L 48.0 56.3 L 48.1 56.3 L 48.1 56.2 L 48.1 56.2 L 48.1 56.2 L 48.1 56.2 L 48.2 56.2 L 48.3 56.1 L 48.1 56.2 L 48.2 56.2 L 48.2 56.2 L 48.2 56.2 L 48.3 56.1 L 48.2 56.2 L 48.2 56.2 L 48.1 56.2 L 48.0 56.3 L 48.0 56.3 L 47.9 56.4 L 47.9 56.4 L 47.8 56.4 L 47.7 56.5 L 47.7 56.5 L 47.6 56.6 L 47.6 56.6 L 47.7 56.5 L 47.6 56.5 L 47.6 56.6 L 47.6 56.6 L 47.6 56.5 L 47.8 56.5 L 47.8 56.4 L 47.9 56.4 L 47.9 56.4 L 48.0 56.3 L 48.0 56.3 L 48.1 56.3 L 48.1 56.2 L 48.2 56.2 L 48.3 56.1 L 48.4 56.0 L 48.4 56.0 L 48.5 55.9 L 48.6 55.9 L 48.7 55.9 L 48.7 55.8 L 48.7 55.8 L 48.7 55.8 L 48.8 55.8 L 48.8 55.7 L 48.8 55.8 L 48.8 55.8 L 48.9 55.7 L 48.9 55.7 L 48.9 55.7 L 48.9 55.7 L 49.0 55.6 L 48.9 55.7 L 48.9 55.7 L 48.9 55.7 L 48.9 55.7 L 49.0 55.6 L 49.0 55.6 L 49.0 55.6 L 49.0 55.6 L 49.1 55.6 L 49.0 55.6 L 49.1 55.6 L 49.1 55.6 L 49.1 55.6 L 49.1 55.5 L 49.0 55.6 L 49.1 55.6 L 49.2 55.5 L 49.2 55.5 L 49.2 55.5 L 49.1 55.5 L 49.1 55.5 L 49.1 55.6 L 49.1 55.5 L 49.1 55.5 L 49.1 55.6 L 49.1 55.6 L 49.1 55.6 L 49.1 55.5 L 49.1 55.5 L 49.1 55.5 L 49.1 55.5 L 49.1 55.6 L 49.1 55.5 L 49.1 55.5 L 49.1 55.6 L 49.1 55.5 L 49.1 55.5 L 49.1 55.6 L 49.1 55.5 L 49.1 55.5 L 49.0 55.6 L 49.1 55.6 L 49.2 55.5 L 49.2 55.5 L 49.2 55.5 L 49.3 55.4 L 49.4 55.4 L 49.5 55.3 L 49.4 55.3 L 49.4 55.3 L 49.5 55.3 L 49.7 55.1 L 49.8 55.0 L 49.8 55.0 L 49.7 55.1 L 49.7 55.1 L 49.6 55.1 L 49.5 55.2 L 49.4 55.3 L 49.3 55.4 L 49.2 55.5 Z M 59.2 21.6 L 59.2 21.6 L 59.2 21.6 L 59.2 21.6 L 59.1 21.5 L 59.1 21.5 L 59.2 21.6 L 59.2 21.7 L 59.3 21.9 L 59.3 21.9 L 59.3 22.0 L 59.3 22.0 L 59.4 22.1 L 59.4 22.1 L 59.4 22.2 L 59.5 22.4 L 59.5 22.6 L 59.6 22.7 L 59.6 22.8 L 59.6 22.8 L 59.6 22.9 L 59.7 23.0 L 59.7 23.1 L 59.7 23.1 L 59.7 23.2 L 59.8 23.3 L 59.8 23.3 L 59.8 23.4 L 59.8 23.6 L 59.9 23.6 L 59.9 23.6 L 59.9 23.6 L 59.9 23.6 L 59.8 23.5 L 59.8 23.5 L 59.8 23.4 L 59.8 23.4 L 59.8 23.4 L 59.8 23.4 L 59.8 23.5 L 59.8 23.6 L 59.8 23.5 L 59.8 23.4 L 59.8 23.4 L 59.8 23.4 L 59.8 23.4 L 59.8 23.4 L 59.8 23.4 L 59.8 23.5 L 59.9 23.6 L 59.9 23.7 L 59.9 23.7 L 59.9 23.7 L 59.9 23.8 L 59.9 23.7 L 60.0 24.0 L 60.0 23.9 L 59.9 23.8 L 59.9 23.8 L 59.9 23.9 L 59.9 23.9 L 59.9 23.8 L 59.9 23.7 L 59.9 23.7 L 59.9 23.7 L 59.9 23.6 L 59.9 23.6 L 59.9 23.6 L 59.9 23.7 L 59.9 23.7 L 59.9 23.8 L 59.9 23.9 L 59.9 23.9 L 59.9 23.8 L 59.9 23.7 L 59.9 23.7 L 59.9 23.7 L 59.9 23.8 L 59.9 23.8 L 59.9 23.9 L 59.9 23.9 L 59.9 23.8 L 59.9 23.9 L 59.9 23.7 L 59.9 23.7 L 59.8 23.5 L 59.8 23.4 L 59.8 23.4 L 59.8 23.4 L 59.8 23.5 L 59.9 23.6 L 59.9 23.6 L 59.8 23.6 L 59.8 23.5 L 59.8 23.5 L 59.8 23.4 L 59.8 23.3 L 59.7 23.2 L 59.7 23.0 L 59.7 23.0 L 59.7 23.0 L 59.6 22.8 L 59.6 22.8 L 59.6 22.9 L 59.6 22.9 L 59.6 22.9 L 59.6 22.9 L 59.6 22.8 L 59.6 22.7 L 59.5 22.6 L 59.5 22.4 L 59.4 22.3 L 59.4 22.2 L 59.3 21.9 L 59.3 21.8 L 59.2 21.7 L 59.2 21.6 L 59.2 21.6 L 59.2 21.6 Z M 61.0 29.1 L 61.0 29.1 L 61.0 29.1 L 61.0 29.1 L 61.0 29.2 L 61.0 29.3 L 61.0 29.4 L 61.0 29.5 L 61.0 29.6 L 61.0 29.8 L 61.0 29.9 L 61.0 30.1 L 61.0 30.0 L 61.0 29.9 L 61.0 29.9 L 61.0 30.1 L 61.0 30.1 L 61.0 30.2 L 61.0 30.3 L 61.0 30.3 L 61.0 30.3 L 61.0 30.2 L 61.0 30.0 L 61.0 29.8 L 61.0 29.7 L 61.0 29.6 L 61.0 29.5 L 61.0 29.4 L 61.0 29.3 L 61.0 29.2 L 61.0 29.1 L 60.9 28.9 L 60.9 28.9 L 60.9 28.9 L 60.9 28.9 L 60.9 29.0 L 60.9 29.0 L 60.9 29.0 L 60.9 29.0 L 60.9 29.0 L 60.9 29.0 L 60.9 29.0 L 60.9 29.0 L 60.9 29.0 L 60.9 29.0 L 60.9 29.0 L 61.0 29.1 L 61.0 29.1 L 61.0 29.1 L 61.0 29.0 L 61.0 29.1 L 61.0 29.2 L 61.0 29.2 L 61.0 29.1 L 61.0 29.1 L 61.0 29.2 L 61.0 29.2 L 61.0 29.3 L 61.0 29.3 L 61.0 29.3 L 61.0 29.5 L 61.0 29.9 L 61.0 29.9 L 61.0 29.9 L 61.0 30.0 L 61.0 29.9 L 61.0 30.0 L 61.0 30.0 L 61.0 30.1 L 61.0 30.1 L 61.1 30.3 L 61.1 30.4 L 61.1 30.5 L 61.1 30.6 L 61.1 30.7 L 61.1 30.9 L 61.1 31.0 L 61.1 31.1 L 61.1 31.1 L 61.1 31.2 L 61.1 31.4 L 61.1 31.4 L 61.1 31.5 L 61.1 31.7 L 61.1 31.7 L 61.1 31.6 L 61.1 31.6 L 61.1 31.8 L 61.1 31.9 L 61.1 31.9 L 61.1 31.9 L 61.1 31.9 L 61.1 32.0 L 61.1 32.1 L 61.1 32.1 L 61.1 32.2 L 61.1 32.2 L 61.1 32.2 L 61.1 32.2 L 61.1 32.2 L 61.1 32.3 L 61.1 32.3 L 61.1 32.4 L 61.1 32.4 L 61.1 32.5 L 61.1 32.5 L 61.1 32.5 L 61.1 32.4 L 61.1 32.4 L 61.1 32.4 L 61.1 32.5 L 61.1 32.4 L 61.1 32.5 L 61.1 32.5 L 61.1 32.5 L 61.1 32.5 L 61.1 32.5 L 61.1 32.4 L 61.1 32.3 L 61.1 32.2 L 61.1 32.1 L 61.1 31.9 L 61.1 32.0 L 61.1 31.9 L 61.1 31.7 L 61.1 31.6 L 61.1 31.5 L 61.1 31.5 L 61.1 31.4 L 61.1 31.4 L 61.1 31.4 L 61.1 31.4 L 61.1 31.4 L 61.1 31.4 L 61.1 31.4 L 61.1 31.4 L 61.1 31.4 L 61.1 31.4 L 61.1 31.4 L 61.1 31.5 L 61.1 31.5 L 61.1 31.5 L 61.1 31.4 L 61.1 31.4 L 61.1 31.7 L 61.1 31.7 L 61.1 31.7 L 61.1 31.7 L 61.1 31.8 L 61.1 31.9 L 61.1 31.9 L 61.1 32.0 L 61.1 32.0 L 61.1 32.1 L 61.1 32.0 L 61.1 32.0 L 61.1 32.0 L 61.1 32.1 L 61.1 32.1 L 61.1 32.1 L 61.1 32.1 L 61.1 32.1 L 61.1 32.2 L 61.1 32.3 L 61.1 32.4 L 61.1 32.6 L 61.1 32.7 L 61.1 32.6 L 61.1 32.6 L 61.1 32.7 L 61.1 32.7 L 61.1 32.7 L 61.1 32.8 L 61.1 32.7 L 61.1 32.6 L 61.1 32.4 L 61.1 32.3 L 61.1 32.3 L 61.1 32.2 L 61.1 32.3 L 61.1 32.4 L 61.1 32.4 L 61.1 32.3 L 61.1 32.4 L 61.1 32.5 L 61.1 32.5 L 61.1 32.4 L 61.1 32.3 L 61.1 32.2 L 61.1 32.1 L 61.1 32.1 L 61.1 32.0 L 61.1 32.0 L 61.1 31.9 L 61.1 31.9 L 61.1 31.9 L 61.1 31.9 L 61.1 31.9 L 61.1 31.8 L 61.1 31.7 L 61.1 31.7 L 61.1 31.6 L 61.1 31.5 L 61.1 31.4 L 61.1 31.2 L 61.1 31.2 L 61.1 31.2 L 61.1 31.1 L 61.1 31.2 L 61.1 31.2 L 61.1 31.1 L 61.1 31.0 L 61.1 31.0 L 61.1 31.0 L 61.1 30.9 L 61.1 30.9 L 61.1 30.9 L 61.1 30.9 L 61.1 30.9 L 61.1 30.9 L 61.1 30.8 L 61.1 30.8 L 61.1 30.8 L 61.1 30.9 L 61.1 30.8 L 61.1 30.7 L 61.1 30.6 L 61.1 30.7 L 61.1 30.7 L 61.1 30.7 L 61.1 30.7 L 61.1 30.7 L 61.1 30.7 L 61.1 30.7 L 61.1 30.6 L 61.1 30.6 L 61.1 30.5 L 61.1 30.4 L 61.1 30.3 L 61.1 30.4 L 61.1 30.5 L 61.1 30.6 L 61.1 30.7 L 61.1 30.8 L 61.1 30.8 L 61.1 30.9 L 61.1 31.0 L 61.1 31.0 L 61.1 30.9 L 61.1 30.7 L 61.1 30.6 L 61.1 30.5 L 61.1 30.5 L 61.1 30.5 L 61.1 30.4 L 61.1 30.3 L 61.1 30.3 L 61.0 30.2 L 61.0 30.1 L 61.0 30.1 L 61.0 30.1 L 61.0 30.1 L 61.0 30.1 L 61.0 30.0 L 61.0 30.0 L 61.0 29.9 L 61.0 29.8 L 61.0 29.8 L 61.0 29.9 L 61.0 30.0 L 61.0 30.0 L 61.0 30.1 L 61.0 30.1 L 61.0 30.1 L 61.0 30.0 L 61.0 29.9 L 61.0 29.8 L 61.0 29.8 L 61.0 29.9 L 61.0 29.9 L 61.0 29.8 L 61.0 29.8 L 61.0 29.7 L 61.0 29.6 L 61.0 29.5 L 61.0 29.5 L 61.0 29.3 L 61.0 29.2 L 61.0 29.2 L 61.0 29.1 L 61.0 29.1 L 61.0 29.1 L 61.0 29.1 Z M 61.0 29.5 L 61.0 29.7 L 61.0 29.8 L 61.0 29.8 L 61.0 29.9 L 61.0 30.0 L 61.0 30.0 L 61.0 30.1 L 61.0 30.0 L 61.0 30.0 L 61.0 30.2 L 61.0 30.2 L 61.0 30.2 L 61.1 30.3 L 61.1 30.3 L 61.1 30.4 L 61.1 30.4 L 61.1 30.6 L 61.1 30.7 L 61.1 30.8 L 61.1 30.9 L 61.1 31.1 L 61.1 31.1 L 61.1 31.2 L 61.1 31.3 L 61.1 31.2 L 61.1 31.2 L 61.1 31.1 L 61.1 30.9 L 61.1 30.9 L 61.1 30.9 L 61.1 30.9 L 61.1 30.8 L 61.1 30.7 L 61.1 30.7 L 61.1 30.6 L 61.1 30.6 L 61.1 30.6 L 61.1 30.5 L 61.1 30.6 L 61.1 30.7 L 61.1 30.7 L 61.1 30.7 L 61.1 30.7 L 61.1 30.8 L 61.1 30.9 L 61.1 31.1 L 61.1 31.2 L 61.1 31.3 L 61.1 31.4 L 61.1 31.4 L 61.1 31.4 L 61.1 31.5 L 61.1 31.5 L 61.1 31.5 L 61.1 31.6 L 61.1 31.7 L 61.1 31.8 L 61.1 31.9 L 61.1 31.9 L 61.1 32.0 L 61.1 32.1 L 61.1 32.2 L 61.1 32.2 L 61.1 32.2 L 61.1 32.3 L 61.1 32.3 L 61.1 32.4 L 61.1 32.3 L 61.1 32.3 L 61.1 32.4 L 61.1 32.5 L 61.1 32.5 L 61.1 32.5 L 61.1 32.5 L 61.1 32.6 L 61.1 32.7 L 61.1 32.7 L 61.1 32.8 L 61.1 32.9 L 61.1 32.8 L 61.1 32.8 L 61.1 32.6 L 61.1 32.5 L 61.1 32.5 L 61.1 32.5 L 61.1 32.3 L 61.1 32.3 L 61.1 32.1 L 61.1 32.0 L 61.1 31.9 L 61.1 31.9 L 61.1 32.0 L 61.1 32.1 L 61.1 32.2 L 61.1 32.3 L 61.1 32.5 L 61.1 32.7 L 61.1 32.9 L 61.1 33.1 L 61.1 33.2 L 61.1 33.4 L 61.1 33.4 L 61.1 33.4 L 61.1 33.5 L 61.1 33.5 L 61.1 33.6 L 61.1 33.5 L 61.1 33.4 L 61.1 33.3 L 61.1 33.1 L 61.1 33.0 L 61.1 32.7 L 61.1 32.6 L 61.1 32.6 L 61.1 32.5 L 61.1 32.5 L 61.1 32.5 L 61.1 32.5 L 61.1 32.5 L 61.1 32.3 L 61.1 32.2 L 61.1 32.2 L 61.1 32.1 L 61.1 32.1 L 61.1 32.0 L 61.1 31.8 L 61.1 31.7 L 61.1 31.6 L 61.1 31.5 L 61.1 31.4 L 61.1 31.1 L 61.1 31.1 L 61.1 31.1 L 61.1 30.9 L 61.1 30.7 L 61.1 30.7 L 61.1 30.6 L 61.1 30.5 L 61.1 30.4 L 61.0 30.3 L 61.0 30.2 L 61.0 30.1 L 61.0 30.2 L 61.0 30.2 L 61.0 30.1 L 61.0 30.1 L 61.0 30.0 L 61.0 29.9 L 61.0 29.9 L 61.0 29.9 L 61.0 29.9 L 61.0 29.9 L 61.0 29.9 L 61.0 29.9 L 61.0 29.9 L 61.0 29.8 L 61.0 29.9 L 61.0 29.9 L 61.0 29.8 L 61.0 29.8 L 61.0 29.7 L 61.0 29.5 L 61.0 29.4 L 61.0 29.3 L 61.0 29.3 L 61.0 29.2 L 61.0 29.1 L 61.0 29.2 L 61.0 29.3 L 61.0 29.4 L 61.0 29.5 L 61.0 29.5 Z M 61.0 31.2 L 61.1 31.1 L 61.1 31.1 L 61.2 31.0 L 61.2 31.0 L 61.2 31.1 L 61.2 31.2 L 61.3 31.3 L 61.3 31.4 L 61.3 31.5 L 61.3 31.5 L 61.4 31.6 L 61.4 31.6 L 61.5 31.7 L 61.5 31.8 L 61.5 31.9 L 61.5 32.1 L 61.6 32.1 L 61.6 32.2 L 61.6 32.2 L 61.6 32.2 L 61.6 32.2 L 61.6 32.1 L 61.6 32.1 L 61.6 32.1 L 61.6 32.2 L 61.7 32.3 L 61.7 32.3 L 61.7 32.3 L 61.7 32.4 L 61.7 32.5 L 61.7 32.6 L 61.7 32.6 L 61.8 32.6 L 61.8 32.7 L 61.8 32.8 L 61.8 32.9 L 61.8 32.8 L 61.8 32.7 L 61.8 32.6 L 61.8 32.7 L 61.8 32.8 L 61.8 32.9 L 61.8 33.0 L 61.8 33.0 L 61.8 33.1 L 61.8 33.2 L 61.8 33.3 L 61.8 33.3 L 61.8 33.3 L 61.8 33.3 L 61.9 33.3 L 61.9 33.4 L 61.8 33.6 L 61.8 33.7 L 61.9 33.7 L 61.9 33.8 L 61.9 33.9 L 61.8 34.0 L 61.8 34.0 L 61.8 34.0 L 61.9 33.9 L 61.9 33.9 L 61.9 33.8 L 61.9 33.9 L 61.9 34.1 L 61.9 34.2 L 61.9 34.3 L 61.9 34.4 L 61.9 34.5 L 61.9 34.5 L 61.8 34.7 L 61.8 34.9 L 61.8 35.1 L 61.8 35.5 L 61.8 35.5 L 61.8 35.5 L 61.8 35.5 L 61.8 35.4 L 61.7 35.6 L 61.7 35.6 L 61.7 35.5 L 61.7 35.7 L 61.7 35.7 L 61.7 35.7 L 61.7 35.6 L 61.7 35.5 L 61.7 35.4 L 61.7 35.3 L 61.7 35.2 L 61.7 35.1 L 61.7 34.9 L 61.6 34.8 L 61.6 34.7 L 61.6 34.6 L 61.6 34.5 L 61.6 34.4 L 61.6 34.3 L 61.6 33.9 L 61.6 33.7 L 61.6 33.6 L 61.5 33.6 L 61.5 33.4 L 61.5 33.3 L 61.5 33.3 L 61.5 33.2 L 61.4 33.0 L 61.4 32.7 L 61.4 32.6 L 61.3 32.5 L 61.3 32.5 L 61.3 32.4 L 61.3 32.3 L 61.2 32.2 L 61.2 32.1 L 61.2 31.9 L 61.1 31.9 L 61.1 31.9 L 61.1 31.8 L 61.0 31.6 L 60.9 31.5 L 60.9 31.3 L 60.9 31.2 L 60.9 31.2 L 60.9 31.1 L 60.9 31.1 L 60.9 31.1 L 61.0 31.2 L 61.0 31.2 L 61.0 31.2 Z M 60.8 27.8 L 60.8 27.9 L 60.8 27.7 L 60.8 27.6 L 60.8 27.7 L 60.8 27.7 L 60.8 27.8 L 60.8 27.8 L 60.8 27.8 L 60.8 27.9 L 60.8 28.0 L 60.8 28.1 L 60.8 28.1 L 60.8 28.0 L 60.8 28.0 L 60.8 28.1 L 60.8 28.1 L 60.8 28.1 L 60.8 28.0 L 60.8 28.0 L 60.8 28.1 L 60.8 28.1 L 60.8 28.1 L 60.8 28.1 L 60.8 28.1 L 60.8 28.2 L 60.9 28.2 L 60.9 28.3 L 60.9 28.4 L 60.9 28.4 L 60.9 28.5 L 60.9 28.7 L 60.9 28.7 L 60.9 28.7 L 60.9 28.8 L 60.9 28.8 L 60.9 28.8 L 60.9 28.9 L 60.9 29.0 L 60.9 29.0 L 61.0 29.1 L 61.0 29.1 L 61.0 29.1 L 61.0 29.2 L 61.0 29.2 L 61.0 29.2 L 61.0 29.2 L 61.0 29.3 L 61.0 29.3 L 61.0 29.4 L 61.0 29.5 L 61.0 29.5 L 61.0 29.5 L 61.0 29.5 L 61.0 29.6 L 61.0 29.6 L 61.0 29.6 L 61.0 29.6 L 61.0 29.7 L 61.0 29.8 L 61.0 29.8 L 61.0 29.9 L 61.0 30.0 L 61.0 30.0 L 61.0 30.1 L 61.0 30.2 L 61.0 30.3 L 61.1 30.3 L 61.1 30.4 L 61.1 30.5 L 61.1 30.5 L 61.1 30.4 L 61.1 30.5 L 61.1 30.5 L 61.1 30.6 L 61.1 30.8 L 61.1 31.1 L 61.1 31.3 L 61.1 31.4 L 61.1 31.4 L 61.1 31.5 L 61.1 31.6 L 61.1 31.7 L 61.1 31.7 L 61.1 31.6 L 61.1 31.7 L 61.1 31.7 L 61.1 31.8 L 61.1 31.9 L 61.1 31.9 L 61.1 32.0 L 61.1 32.1 L 61.1 32.0 L 61.1 32.1 L 61.1 32.2 L 61.1 32.2 L 61.1 32.3 L 61.1 32.4 L 61.1 32.4 L 61.1 32.4 L 61.1 32.4 L 61.1 32.6 L 61.1 32.6 L 61.1 32.6 L 61.1 32.7 L 61.1 32.7 L 61.1 32.8 L 61.1 32.9 L 61.1 33.0 L 61.1 33.4 L 61.1 33.4 L 61.1 33.1 L 61.1 33.1 L 61.1 33.1 L 61.1 33.1 L 61.1 33.1 L 61.1 33.1 L 61.1 33.1 L 61.1 33.1 L 61.1 33.2 L 61.1 33.2 L 61.1 33.1 L 61.1 33.1 L 61.1 33.1 L 61.1 33.0 L 61.1 33.3 L 61.1 33.3 L 61.1 33.4 L 61.1 33.5 L 61.1 33.5 L 61.1 33.4 L 61.1 33.2 L 61.1 33.2 L 61.1 33.2 L 61.1 33.3 L 61.1 33.4 L 61.1 33.4 L 61.1 33.3 L 61.1 33.3 L 61.1 33.4 L 61.1 33.3 L 61.1 33.4 L 61.1 33.4 L 61.1 33.3 L 61.1 33.0 L 61.1 32.9 L 61.1 32.8 L 61.1 32.7 L 61.1 32.6 L 61.1 32.5 L 62.0 32.5 L 62.0 32.5 L 62.0 32.5 L 62.0 32.4 L 62.0 32.4 L 62.0 32.3 L 62.0 32.3 L 62.0 32.2 L 62.0 32.1 L 62.0 32.1 L 62.0 32.0 L 62.0 32.0 L 62.0 31.7 L 62.0 31.6 L 62.0 31.5 L 62.0 31.5 L 62.0 31.5 L 62.0 31.4 L 62.0 31.2 L 62.0 31.1 L 62.0 31.1 L 62.0 31.1 L 62.0 31.1 L 62.0 31.1 L 62.0 31.1 L 61.1 31.2 L 61.1 31.1 L 61.1 31.2 L 61.1 31.1 L 61.1 31.1 L 61.1 31.0 L 61.1 30.9 L 61.1 30.8 L 61.1 30.8 L 61.1 30.7 L 61.1 30.7 L 61.1 30.7 L 61.1 30.6 L 61.1 30.5 L 61.1 30.4 L 61.0 30.3 L 61.0 30.1 L 61.0 30.0 L 61.0 29.8 L 61.0 29.5 L 61.0 29.4 L 61.0 29.3 L 61.0 29.2 L 61.0 29.2 L 61.0 29.1 L 60.9 29.0 L 60.9 28.9 L 60.9 28.9 L 60.9 28.9 L 60.9 28.9 L 60.9 28.8 L 60.9 28.7 L 60.9 28.7 L 60.9 28.5 L 60.9 28.5 L 60.9 28.5 L 60.9 28.5 L 60.9 28.3 L 60.8 28.2 L 60.8 27.9 L 60.8 27.7 L 60.8 27.8 L 60.8 27.8 L 60.8 27.8 Z M 51.1 10.0 L 51.0 10.0 L 51.1 10.1 L 51.3 10.2 L 51.3 10.2 L 51.3 10.3 L 51.4 10.3 L 51.5 10.4 L 51.5 10.4 L 51.6 10.5 L 51.7 10.6 L 51.7 10.6 L 51.8 10.6 L 51.8 10.7 L 51.8 10.7 L 51.9 10.7 L 52.0 10.8 L 52.0 10.9 L 52.1 10.9 L 52.2 11.0 L 52.2 11.1 L 52.3 11.2 L 52.5 11.3 L 52.6 11.4 L 52.6 11.5 L 52.7 11.6 L 52.8 11.6 L 52.8 11.7 L 52.9 11.7 L 52.9 11.8 L 53.0 11.9 L 53.1 11.9 L 53.2 12.0 L 53.2 12.1 L 53.3 12.1 L 53.3 12.2 L 53.4 12.2 L 53.3 12.2 L 53.3 12.1 L 53.2 12.1 L 53.2 12.0 L 53.1 12.0 L 53.1 12.0 L 53.1 12.0 L 53.2 12.0 L 53.2 12.1 L 53.3 12.1 L 53.3 12.1 L 53.3 12.2 L 53.3 12.2 L 53.3 12.2 L 53.4 12.2 L 53.4 12.3 L 53.5 12.4 L 53.5 12.4 L 53.6 12.5 L 53.6 12.5 L 53.5 12.4 L 53.4 12.3 L 53.5 12.4 L 53.5 12.4 L 53.6 12.5 L 53.7 12.6 L 53.7 12.6 L 53.8 12.7 L 53.8 12.8 L 53.8 12.7 L 53.8 12.7 L 53.8 12.7 L 53.8 12.7 L 53.8 12.7 L 53.8 12.8 L 53.8 12.7 L 53.8 12.7 L 53.7 12.6 L 53.8 12.7 L 53.8 12.8 L 53.9 12.8 L 53.9 12.9 L 54.0 12.9 L 54.0 13.0 L 54.1 13.1 L 54.3 13.3 L 54.4 13.4 L 54.3 13.3 L 54.3 13.3 L 54.2 13.2 L 54.2 13.2 L 54.1 13.1 L 54.1 13.0 L 54.0 13.0 L 54.1 13.1 L 54.1 13.1 L 54.1 13.1 L 54.1 13.1 L 54.2 13.2 L 54.3 13.3 L 54.3 13.3 L 54.3 13.4 L 54.4 13.4 L 54.4 13.5 L 54.5 13.5 L 54.5 13.5 L 54.5 13.6 L 54.6 13.7 L 54.7 13.8 L 54.7 13.7 L 54.7 13.8 L 54.7 13.8 L 54.7 13.8 L 54.8 13.9 L 54.7 13.8 L 54.7 13.7 L 54.6 13.7 L 54.6 13.7 L 54.5 13.6 L 54.5 13.5 L 54.4 13.4 L 54.3 13.4 L 54.3 13.2 L 54.1 13.1 L 54.1 13.1 L 54.0 13.0 L 54.0 13.0 L 54.0 13.0 L 54.0 12.9 L 53.9 12.9 L 53.9 12.8 L 53.7 12.7 L 53.7 12.6 L 53.8 12.7 L 53.8 12.7 L 53.7 12.7 L 53.7 12.6 L 53.6 12.5 L 53.6 12.5 L 53.5 12.4 L 53.4 12.3 L 53.2 12.1 L 53.1 11.9 L 53.0 11.8 L 52.9 11.8 L 52.9 11.8 L 53.0 11.9 L 53.1 11.9 L 53.1 12.0 L 53.1 12.0 L 53.2 12.0 L 53.1 12.0 L 53.1 11.9 L 53.0 11.8 L 52.9 11.7 L 52.8 11.6 L 52.7 11.5 L 52.6 11.5 L 52.5 11.3 L 52.4 11.3 L 52.3 11.2 L 52.2 11.1 L 52.1 11.0 L 52.0 10.9 L 52.0 10.8 L 51.9 10.8 L 51.9 10.8 L 51.8 10.7 L 51.8 10.6 L 51.8 10.7 L 51.8 10.6 L 51.7 10.6 L 51.7 10.6 L 51.6 10.5 L 51.6 10.4 L 51.5 10.4 L 51.5 10.4 L 51.4 10.3 L 51.4 10.3 L 51.3 10.3 L 51.3 10.2 L 51.3 10.2 L 51.2 10.2 L 51.2 10.2 L 51.3 10.2 L 51.3 10.2 L 51.3 10.2 L 51.3 10.2 L 51.2 10.1 L 51.1 10.1 L 51.1 10.1 L 51.2 10.1 L 51.2 10.1 L 51.1 10.0 L 51.1 10.0 L 51.1 10.0 L 51.1 10.0 Z M 46.4 44.8 L 46.5 44.9 L 46.6 45.1 L 46.6 45.2 L 46.6 45.5 L 46.6 45.9 L 46.7 46.0 L 46.6 46.3 L 46.5 46.4 L 46.5 46.4 L 46.4 46.4 L 46.4 46.2 L 46.3 46.2 L 46.3 46.3 L 46.3 46.4 L 46.3 46.5 L 46.3 46.5 L 46.3 46.7 L 46.3 46.8 L 46.3 46.8 L 46.2 46.9 L 46.1 46.9 L 46.1 47.1 L 46.0 47.3 L 45.9 47.6 L 45.8 47.9 L 45.6 48.3 L 45.5 48.5 L 45.3 48.9 L 45.0 49.4 L 44.9 49.5 L 44.8 49.7 L 44.7 50.0 L 44.6 50.1 L 44.6 50.2 L 44.5 50.3 L 44.4 50.5 L 44.2 50.6 L 44.1 50.6 L 43.9 50.7 L 43.7 50.8 L 43.5 50.8 L 43.4 50.8 L 43.2 50.8 L 43.2 50.7 L 43.1 50.7 L 43.1 50.6 L 43.1 50.6 L 43.0 50.5 L 43.0 50.4 L 43.0 50.3 L 43.0 50.1 L 43.1 50.0 L 43.0 49.9 L 43.0 49.8 L 43.0 49.8 L 43.0 49.6 L 43.0 49.4 L 43.0 49.4 L 43.1 49.3 L 43.1 49.2 L 43.2 49.1 L 43.3 49.0 L 43.4 48.9 L 43.5 48.7 L 43.6 48.6 L 43.7 48.4 L 43.7 48.3 L 43.6 48.2 L 43.7 48.1 L 43.6 48.0 L 43.6 47.8 L 43.6 47.6 L 43.6 47.5 L 43.9 47.1 L 43.9 47.0 L 43.9 46.9 L 44.0 46.9 L 44.2 46.8 L 44.3 46.7 L 44.3 46.7 L 44.3 46.7 L 44.4 46.7 L 44.5 46.7 L 44.5 46.6 L 44.6 46.6 L 44.7 46.6 L 44.8 46.6 L 44.8 46.6 L 44.8 46.6 L 44.8 46.5 L 44.9 46.4 L 45.1 46.3 L 45.1 46.3 L 45.1 46.4 L 45.2 46.4 L 45.2 46.3 L 45.2 46.3 L 45.2 46.2 L 45.3 46.1 L 45.4 46.0 L 45.4 46.0 L 45.4 46.1 L 45.3 46.2 L 45.4 46.1 L 45.5 46.0 L 45.5 46.0 L 45.6 46.0 L 45.5 45.8 L 45.6 45.7 L 45.7 45.6 L 45.6 45.6 L 45.7 45.5 L 45.7 45.5 L 45.8 45.5 L 45.8 45.5 L 45.9 45.4 L 46.1 45.3 L 46.1 45.1 L 46.1 45.0 L 46.1 44.9 L 46.2 44.9 L 46.3 44.7 L 46.4 44.7 L 46.4 44.8 L 46.4 44.8 L 46.4 44.8 Z M 21.3 59.1 L 21.4 59.1 L 21.4 59.1 L 21.6 59.2 L 21.8 59.3 L 22.0 59.3 L 22.2 59.4 L 22.2 59.4 L 22.4 59.5 L 22.7 59.6 L 22.8 59.6 L 22.8 59.6 L 23.0 59.7 L 23.0 59.7 L 23.0 59.7 L 23.0 59.7 L 23.0 59.7 L 23.0 59.7 L 23.0 59.7 L 22.9 59.7 L 22.9 59.6 L 22.8 59.6 L 22.8 59.6 L 22.9 59.6 L 22.9 59.6 L 22.8 59.6 L 22.8 59.6 L 22.8 59.6 L 22.8 59.6 L 22.8 59.6 L 22.8 59.6 L 22.7 59.6 L 22.7 59.6 L 22.6 59.5 L 22.6 59.6 L 22.6 59.5 L 22.5 59.5 L 22.7 59.6 L 22.6 59.6 L 22.6 59.5 L 22.6 59.5 L 22.7 59.6 L 22.8 59.6 L 22.8 59.6 L 22.7 59.6 L 22.7 59.6 L 22.7 59.6 L 22.7 59.6 L 22.6 59.6 L 22.6 59.5 L 22.6 59.5 L 22.5 59.5 L 22.5 59.5 L 22.5 59.5 L 22.5 59.5 L 22.5 59.5 L 22.4 59.5 L 22.4 59.5 L 22.4 59.5 L 22.4 59.5 L 22.5 59.5 L 22.5 59.5 L 22.5 59.5 L 22.4 59.5 L 22.4 59.5 L 22.4 59.5 L 22.4 59.5 L 22.3 59.4 L 22.3 59.4 L 22.2 59.4 L 22.3 59.4 L 22.2 59.4 L 22.2 59.4 L 22.2 59.4 L 22.3 59.4 L 22.3 59.4 L 22.2 59.4 L 22.2 59.4 L 22.2 59.4 L 22.2 59.4 L 22.1 59.4 L 22.1 59.4 L 22.0 59.3 L 21.9 59.3 L 21.9 59.3 L 21.9 59.3 L 21.9 59.3 L 21.9 59.3 L 21.8 59.3 L 21.8 59.3 L 21.8 59.3 L 21.7 59.2 L 21.7 59.2 L 21.6 59.2 L 21.5 59.2 L 21.4 59.1 L 21.4 59.1 L 21.3 59.1 L 21.3 59.1 L 21.2 59.0 L 21.2 59.0 L 21.1 59.0 L 21.2 59.0 L 21.3 59.1 L 21.3 59.1 Z M 5.7 19.5 L 5.7 19.6 L 5.7 19.6 L 5.7 19.6 L 5.6 19.7 L 5.6 19.7 L 5.6 19.8 L 5.6 19.8 L 5.6 19.9 L 5.5 19.9 L 5.5 20.0 L 5.5 20.1 L 5.4 20.2 L 5.4 20.2 L 5.4 20.2 L 5.4 20.2 L 5.3 20.5 L 5.2 20.6 L 5.2 20.7 L 5.2 20.6 L 5.2 20.6 L 5.2 20.7 L 5.2 20.8 L 5.2 20.8 L 5.1 20.8 L 5.1 20.8 L 5.1 20.8 L 5.1 20.9 L 5.1 20.9 L 5.1 20.9 L 5.1 21.0 L 5.1 21.0 L 5.0 21.1 L 4.2 20.8 L 4.1 20.9 L 4.1 20.9 L 4.1 21.0 L 4.1 21.0 L 4.1 21.0 L 4.1 21.1 L 4.0 21.1 L 4.0 21.2 L 4.0 21.3 L 3.9 21.4 L 3.9 21.4 L 3.9 21.5 L 3.9 21.5 L 3.9 21.5 L 3.9 21.5 L 3.9 21.5 L 3.9 21.5 L 3.9 21.4 L 3.9 21.5 L 3.9 21.4 L 4.8 21.7 L 4.8 21.6 L 4.8 21.6 L 4.8 21.6 L 4.9 21.5 L 4.9 21.4 L 4.9 21.3 L 4.9 21.3 L 5.0 21.2 L 5.0 21.2 L 5.0 21.1 L 5.0 21.1 L 5.0 21.0 L 5.1 20.9 L 5.1 20.9 L 5.2 20.7 L 5.2 20.6 L 5.3 20.5 L 5.3 20.5 L 5.4 20.3 L 5.4 20.2 L 5.4 20.1 L 5.4 20.1 L 5.5 20.1 L 5.5 20.0 L 5.5 20.0 L 5.5 20.0 L 5.5 20.0 L 5.5 19.9 L 5.6 19.8 L 5.6 19.8 L 5.6 19.8 L 5.6 19.8 L 5.6 19.7 L 5.6 19.7 L 5.7 19.6 L 5.7 19.6 L 5.7 19.6 L 5.6 19.7 L 5.6 19.7 L 5.6 19.7 L 5.6 19.7 L 5.7 19.6 L 5.6 19.7 L 5.6 19.7 L 5.6 19.7 L 5.6 19.7 L 5.7 19.6 L 5.7 19.6 L 5.7 19.6 L 5.7 19.6 L 5.7 19.6 L 5.7 19.6 L 5.7 19.5 L 5.7 19.4 L 5.8 19.4 L 5.8 19.4 L 5.8 19.4 L 5.8 19.4 L 5.7 19.5 Z M 31.7 4.8 L 31.7 4.8 L 31.7 4.8 L 31.8 4.8 L 31.8 4.9 L 31.8 4.9 L 31.8 4.9 L 31.8 4.9 L 31.8 4.9 L 31.8 4.9 L 31.9 4.9 L 31.9 4.9 L 31.9 4.9 L 31.9 5.0 L 31.9 5.0 L 31.9 5.0 L 31.9 5.0 L 32.0 5.0 L 32.0 5.0 L 32.0 5.0 L 32.1 5.0 L 32.1 5.0 L 32.1 5.1 L 32.1 5.1 L 32.1 5.1 L 32.1 5.1 L 32.0 5.1 L 32.0 5.1 L 31.9 5.2 L 31.9 5.2 L 31.9 5.2 L 31.9 5.3 L 31.9 5.3 L 31.8 5.3 L 31.8 5.3 L 31.8 5.3 L 31.8 5.4 L 31.8 5.4 L 31.7 5.5 L 31.7 5.5 L 31.7 5.5 L 31.6 5.6 L 31.6 5.6 L 31.6 5.6 L 31.6 5.6 L 31.5 5.6 L 31.5 5.6 L 31.4 5.5 L 31.4 5.5 L 31.3 5.4 L 31.3 5.4 L 31.3 5.4 L 31.3 5.4 L 31.4 5.4 L 31.4 5.4 L 31.6 5.3 L 31.7 5.3 L 31.7 5.3 L 31.6 5.3 L 31.5 5.3 L 31.5 5.3 L 31.4 5.3 L 31.3 5.3 L 31.3 5.3 L 31.3 5.3 L 31.3 5.2 L 31.3 5.2 L 31.4 5.2 L 31.4 5.2 L 31.5 5.2 L 31.5 5.2 L 31.5 5.2 L 31.6 5.2 L 31.7 5.2 L 31.7 5.2 L 31.7 5.2 L 31.6 5.2 L 31.7 5.1 L 31.6 5.1 L 31.6 5.1 L 31.5 5.2 L 31.5 5.1 L 31.5 5.1 L 31.5 5.1 L 31.5 5.1 L 31.5 5.1 L 31.5 5.1 L 31.5 5.1 L 31.5 5.1 L 31.4 5.1 L 31.4 5.1 L 31.4 5.1 L 31.4 5.2 L 31.4 5.2 L 31.4 5.2 L 31.4 5.2 L 31.3 5.2 L 31.2 5.2 L 31.2 5.2 L 31.2 5.1 L 31.2 5.1 L 31.2 5.1 L 31.2 5.1 L 31.2 5.0 L 31.1 5.0 L 31.2 5.0 L 31.2 5.0 L 31.2 5.0 L 31.2 5.0 L 31.2 5.0 L 31.2 5.0 L 31.2 5.0 L 31.2 5.0 L 31.2 5.0 L 31.1 5.0 L 31.1 5.0 L 31.1 4.9 L 31.1 4.9 L 31.1 4.9 L 31.1 4.9 L 31.1 4.9 L 31.1 4.8 L 31.2 4.8 L 31.2 4.9 L 31.2 4.8 L 31.2 4.8 L 31.3 4.9 L 31.3 4.9 L 31.3 4.8 L 31.3 4.8 L 31.4 4.8 L 31.4 4.8 L 31.4 4.9 L 31.3 4.9 L 31.4 4.9 L 31.4 4.9 L 31.4 4.9 L 31.4 4.9 L 31.4 4.9 L 31.4 4.9 L 31.4 4.9 L 31.5 4.9 L 31.5 4.8 L 31.5 4.9 L 31.6 4.9 L 31.6 5.0 L 31.6 5.0 L 31.6 5.0 L 31.6 4.9 L 31.6 4.9 L 31.6 4.9 L 31.6 4.8 L 31.6 4.8 L 31.7 4.8 L 31.7 4.8 L 31.7 4.8 Z M 25.9 11.0 L 25.8 11.1 L 25.8 11.1 L 25.6 11.2 L 25.5 11.2 L 25.5 11.2 L 25.5 11.3 L 25.4 11.3 L 25.5 11.3 L 25.6 11.3 L 25.7 11.3 L 25.7 11.3 L 25.9 11.4 L 26.0 11.4 L 26.0 11.4 L 26.0 11.5 L 25.9 11.5 L 25.9 11.6 L 25.8 11.7 L 25.7 11.7 L 25.6 11.8 L 25.5 11.8 L 25.5 11.8 L 25.5 11.8 L 25.5 11.8 L 25.6 11.9 L 25.5 11.9 L 25.4 11.9 L 25.3 11.9 L 25.2 11.9 L 25.3 11.9 L 25.4 12.0 L 25.6 12.0 L 25.7 12.1 L 25.7 12.2 L 25.7 12.2 L 25.7 12.4 L 25.7 12.5 L 25.8 12.6 L 25.9 12.7 L 25.9 12.8 L 25.9 12.8 L 25.9 12.9 L 25.9 12.9 L 25.9 13.0 L 25.9 13.0 L 25.9 13.0 L 25.8 12.9 L 25.7 12.9 L 25.8 13.0 L 26.0 13.1 L 25.9 13.2 L 25.9 13.3 L 25.9 13.3 L 25.9 13.3 L 26.0 13.3 L 26.0 13.3 L 26.1 13.3 L 26.2 13.3 L 26.3 13.4 L 26.3 13.5 L 26.2 13.6 L 26.2 13.6 L 26.2 13.7 L 26.1 13.7 L 26.1 13.7 L 26.1 13.7 L 26.0 13.8 L 25.9 13.8 L 25.9 13.8 L 25.9 13.9 L 25.8 13.9 L 25.8 13.9 L 25.8 13.9 L 25.8 13.9 L 25.9 13.9 L 26.0 14.0 L 26.0 14.0 L 26.0 14.0 L 25.9 14.1 L 25.8 14.1 L 25.7 14.1 L 25.6 14.2 L 25.6 14.2 L 25.4 14.1 L 25.2 14.1 L 25.2 14.1 L 25.1 14.1 L 25.0 14.1 L 25.0 14.1 L 24.9 14.1 L 24.9 14.2 L 24.9 14.2 L 24.7 14.2 L 24.7 14.2 L 24.6 14.1 L 24.6 14.1 L 24.4 14.1 L 24.3 14.2 L 24.3 14.3 L 24.2 14.2 L 24.2 14.2 L 24.1 14.2 L 24.1 14.2 L 23.9 14.2 L 23.9 14.3 L 23.8 14.3 L 23.7 14.3 L 23.7 14.3 L 23.7 14.2 L 23.8 14.2 L 23.9 14.1 L 24.0 14.1 L 24.0 14.1 L 24.1 14.0 L 24.2 13.9 L 24.3 13.9 L 24.4 13.9 L 24.5 13.9 L 24.6 13.9 L 24.7 13.8 L 24.8 13.8 L 24.9 13.7 L 24.8 13.7 L 24.7 13.8 L 24.6 13.8 L 24.5 13.8 L 24.5 13.7 L 24.4 13.7 L 24.3 13.7 L 24.4 13.7 L 24.3 13.6 L 24.3 13.6 L 24.2 13.6 L 24.1 13.6 L 24.1 13.6 L 24.1 13.5 L 24.2 13.5 L 24.3 13.5 L 24.5 13.4 L 24.5 13.4 L 24.6 13.3 L 24.6 13.3 L 24.6 13.2 L 24.6 13.2 L 24.6 13.2 L 24.5 13.2 L 24.5 13.2 L 24.4 13.2 L 24.5 13.1 L 24.6 13.1 L 24.6 13.1 L 24.8 13.0 L 24.8 13.0 L 24.9 13.0 L 25.0 13.1 L 25.0 13.0 L 25.0 13.0 L 25.1 13.0 L 25.0 13.0 L 25.0 13.0 L 25.1 12.9 L 25.1 12.9 L 25.1 12.8 L 25.1 12.8 L 25.2 12.7 L 25.1 12.7 L 25.1 12.7 L 25.1 12.7 L 25.0 12.6 L 25.1 12.4 L 25.3 12.4 L 25.2 12.4 L 25.1 12.4 L 25.0 12.4 L 25.0 12.4 L 24.9 12.4 L 24.9 12.4 L 24.9 12.4 L 24.9 12.4 L 24.8 12.4 L 24.7 12.4 L 24.7 12.4 L 24.7 12.4 L 24.7 12.3 L 24.7 12.3 L 24.9 12.2 L 24.9 12.1 L 24.9 12.1 L 24.9 12.0 L 24.9 11.9 L 25.0 11.9 L 25.0 11.9 L 25.0 11.9 L 25.0 11.9 L 24.9 11.9 L 24.9 11.9 L 24.8 11.9 L 24.8 11.9 L 24.8 11.9 L 24.9 11.9 L 24.9 11.8 L 24.8 11.9 L 24.8 11.9 L 24.8 12.0 L 24.6 12.1 L 24.6 12.1 L 24.6 12.1 L 24.6 12.1 L 24.7 12.0 L 24.7 12.0 L 24.7 12.0 L 24.7 12.0 L 24.8 11.9 L 24.8 11.8 L 24.9 11.7 L 24.9 11.7 L 25.0 11.6 L 25.0 11.6 L 24.8 11.7 L 24.8 11.7 L 24.8 11.6 L 24.7 11.6 L 24.8 11.6 L 24.9 11.6 L 24.9 11.5 L 25.0 11.5 L 25.0 11.4 L 25.0 11.4 L 25.0 11.3 L 25.0 11.3 L 25.0 11.3 L 25.0 11.3 L 25.1 11.2 L 25.1 11.2 L 25.2 11.2 L 25.2 11.2 L 25.2 11.1 L 25.2 11.1 L 25.2 11.1 L 25.3 11.1 L 25.3 11.1 L 25.3 11.0 L 25.3 11.0 L 25.4 11.0 L 25.4 10.9 L 25.4 10.9 L 25.4 11.0 L 25.5 11.0 L 25.5 11.0 L 25.7 11.0 L 25.8 11.0 L 25.9 11.0 L 25.9 11.0 L 25.9 11.0 Z M 24.2 12.2 L 24.2 12.2 L 24.3 12.2 L 24.3 12.2 L 24.4 12.2 L 24.5 12.2 L 24.5 12.3 L 24.5 12.3 L 24.5 12.4 L 24.4 12.4 L 24.5 12.4 L 24.5 12.4 L 24.5 12.5 L 24.5 12.5 L 24.5 12.5 L 24.5 12.5 L 24.4 12.5 L 24.4 12.6 L 24.4 12.6 L 24.3 12.6 L 24.3 12.6 L 24.2 12.6 L 24.2 12.6 L 24.2 12.6 L 24.2 12.7 L 24.2 12.7 L 24.1 12.8 L 24.1 12.9 L 24.1 12.9 L 24.1 12.9 L 24.1 13.0 L 24.0 13.1 L 24.0 13.2 L 23.9 13.2 L 23.9 13.3 L 23.9 13.3 L 23.8 13.4 L 23.7 13.3 L 23.7 13.4 L 23.7 13.3 L 23.6 13.4 L 23.5 13.4 L 23.5 13.4 L 23.4 13.4 L 23.4 13.4 L 23.3 13.4 L 23.3 13.5 L 23.2 13.4 L 23.2 13.4 L 23.2 13.4 L 23.2 13.5 L 23.1 13.5 L 23.0 13.5 L 22.9 13.5 L 22.8 13.5 L 22.8 13.5 L 22.7 13.5 L 22.8 13.5 L 22.8 13.4 L 22.7 13.5 L 22.7 13.4 L 22.8 13.4 L 22.8 13.4 L 22.7 13.4 L 22.7 13.4 L 22.6 13.3 L 22.7 13.3 L 22.8 13.3 L 22.8 13.3 L 22.7 13.2 L 22.7 13.2 L 22.8 13.2 L 22.8 13.2 L 22.9 13.2 L 22.9 13.2 L 22.9 13.1 L 23.0 13.1 L 23.1 13.1 L 23.2 13.1 L 23.2 13.0 L 23.1 13.1 L 23.0 13.1 L 23.0 13.1 L 23.0 13.1 L 23.0 13.1 L 23.1 13.0 L 23.1 13.0 L 23.2 12.9 L 23.2 12.9 L 23.3 12.9 L 23.3 12.9 L 23.3 12.8 L 23.2 12.8 L 23.1 12.8 L 23.1 12.8 L 23.1 12.8 L 23.1 12.8 L 23.1 12.7 L 23.0 12.7 L 23.1 12.7 L 23.1 12.7 L 23.1 12.7 L 23.2 12.7 L 23.1 12.6 L 23.2 12.6 L 23.3 12.6 L 23.3 12.6 L 23.2 12.6 L 23.2 12.5 L 23.2 12.5 L 23.2 12.5 L 23.2 12.4 L 23.2 12.4 L 23.3 12.4 L 23.3 12.4 L 23.4 12.4 L 23.5 12.5 L 23.5 12.4 L 23.6 12.5 L 23.6 12.4 L 23.7 12.4 L 23.7 12.4 L 23.8 12.4 L 23.8 12.3 L 23.7 12.3 L 23.7 12.3 L 23.7 12.2 L 23.8 12.2 L 23.8 12.2 L 23.9 12.1 L 23.9 12.1 L 24.0 12.1 L 24.0 12.1 L 24.1 12.1 L 24.1 12.1 L 24.1 12.2 L 24.0 12.2 L 24.0 12.2 L 24.1 12.2 L 24.1 12.2 L 24.1 12.1 L 24.2 12.1 L 24.2 12.1 L 24.2 12.1 L 24.2 12.1 L 24.2 12.2 L 24.2 12.2 L 24.2 12.2 Z M 35.6 3.1 L 35.3 3.1 L 34.9 3.0 L 34.9 3.0 L 34.8 3.0 L 34.7 3.0 L 34.3 3.0 L 34.1 3.0 L 34.4 3.0 L 34.6 3.0 L 34.8 3.0 L 34.9 3.0 L 35.3 3.1 L 35.9 3.2 L 35.8 3.2 L 36.0 3.2 L 37.0 3.3 L 37.2 3.4 L 36.8 3.3 L 36.8 3.3 L 36.9 3.3 L 37.3 3.4 L 38.4 3.6 L 38.9 3.7 L 39.6 3.9 L 40.3 4.1 L 40.8 4.3 L 41.7 4.6 L 41.8 4.6 L 41.9 4.6 L 42.8 5.0 L 43.8 5.4 L 44.9 5.9 L 43.6 5.3 L 42.4 4.8 L 40.7 4.2 L 39.9 4.0 L 40.2 4.1 L 41.0 4.3 L 41.0 4.3 L 41.4 4.5 L 42.7 4.9 L 43.1 5.1 L 43.2 5.1 L 43.5 5.3 L 44.1 5.5 L 45.6 6.3 L 47.1 7.1 L 47.2 7.2 L 47.3 7.3 L 46.9 7.0 L 47.2 7.2 L 48.2 7.8 L 49.1 8.5 L 50.8 9.8 L 51.8 10.7 L 52.1 10.9 L 52.8 11.6 L 53.5 12.4 L 54.2 13.2 L 54.7 13.8 L 54.9 14.1 L 55.1 14.3 L 54.7 13.8 L 54.4 13.5 L 54.2 13.2 L 54.1 13.1 L 54.0 13.0 L 53.7 12.6 L 53.9 12.8 L 54.9 12.6 L 54.5 12.1 L 54.5 12.2 L 55.2 13.1 L 55.6 13.5 L 54.6 13.6 L 54.8 13.9 L 55.8 13.8 L 56.2 14.3 L 56.1 15.7 L 56.3 16.0 L 56.5 16.3 L 56.7 16.6 L 56.9 17.0 L 57.2 17.5 L 57.6 18.2 L 57.7 18.4 L 57.9 18.8 L 58.2 19.3 L 58.4 19.8 L 59.4 19.8 L 59.6 20.2 L 59.7 20.5 L 59.6 20.3 L 59.8 20.8 L 59.9 21.1 L 60.0 21.5 L 60.1 21.9 L 59.9 21.3 L 59.8 21.4 L 60.0 21.9 L 60.1 22.6 L 60.5 23.6 L 60.8 24.2 L 61.1 25.2 L 61.3 26.1 L 61.5 27.1 L 61.5 27.3 L 61.5 27.7 L 61.4 27.7 L 61.3 27.5 L 61.1 27.0 L 60.9 26.8 L 60.8 26.9 L 61.1 28.7 L 61.3 29.5 L 61.5 29.7 L 61.8 31.4 L 61.8 32.1 L 61.6 31.3 L 61.3 29.8 L 61.1 29.4 L 60.9 27.8 L 60.7 27.3 L 60.4 26.2 L 60.0 25.3 L 59.9 25.4 L 59.9 25.9 L 59.7 25.7 L 59.5 24.9 L 59.2 24.5 L 59.0 24.2 L 58.8 24.0 L 58.2 23.1 L 57.9 22.9 L 58.2 23.5 L 58.1 23.7 L 58.0 23.8 L 57.9 24.0 L 57.7 24.3 L 57.7 25.3 L 57.6 26.1 L 57.2 27.5 L 57.2 28.7 L 57.4 30.2 L 57.5 31.2 L 56.7 31.6 L 56.3 30.6 L 55.6 29.1 L 54.8 27.5 L 54.5 26.7 L 54.3 25.6 L 54.0 25.5 L 53.3 26.0 L 53.3 25.2 L 52.6 25.0 L 52.2 25.0 L 51.6 24.4 L 50.6 24.8 L 49.6 24.9 L 48.3 24.8 L 47.2 24.8 L 45.6 24.0 L 44.7 23.3 L 44.4 23.5 L 44.3 23.8 L 45.0 24.7 L 45.6 25.4 L 46.0 25.2 L 46.3 26.1 L 47.4 25.9 L 47.9 24.8 L 49.0 25.9 L 49.7 26.8 L 49.3 28.1 L 48.5 29.4 L 47.4 30.6 L 45.9 31.6 L 44.3 32.5 L 43.3 31.5 L 43.0 30.5 L 41.9 29.0 L 41.0 27.5 L 40.1 26.5 L 38.7 25.0 L 38.0 24.8 L 37.8 24.7 L 39.0 26.5 L 40.1 28.0 L 40.6 29.7 L 41.8 31.5 L 43.1 32.4 L 43.3 33.2 L 45.5 33.2 L 47.2 32.6 L 47.2 33.4 L 46.0 36.6 L 43.1 39.9 L 42.3 40.7 L 41.8 41.8 L 41.8 43.2 L 42.1 44.3 L 42.3 45.1 L 42.2 45.8 L 42.2 46.5 L 41.3 47.5 L 40.0 48.3 L 39.1 49.2 L 39.4 50.1 L 38.0 51.4 L 37.5 52.6 L 35.2 54.4 L 33.2 54.6 L 31.7 54.8 L 31.3 54.7 L 31.2 53.8 L 29.7 51.8 L 29.4 50.3 L 27.9 47.6 L 28.8 45.1 L 28.6 44.0 L 28.1 42.7 L 27.7 41.9 L 26.6 40.8 L 26.5 40.4 L 26.3 39.9 L 26.5 39.5 L 26.6 38.8 L 26.6 37.6 L 26.2 37.3 L 25.9 37.3 L 25.2 37.1 L 24.9 37.4 L 24.5 36.7 L 24.0 36.2 L 22.3 36.4 L 20.2 36.5 L 19.5 36.4 L 18.0 36.6 L 16.0 34.6 L 15.9 34.1 L 15.6 33.5 L 15.2 32.8 L 15.0 32.5 L 15.1 32.2 L 14.5 31.8 L 14.5 31.3 L 14.6 31.3 L 14.3 30.6 L 15.2 28.3 L 15.2 27.2 L 16.0 26.0 L 17.5 24.3 L 19.2 23.0 L 21.5 20.7 L 22.5 21.1 L 23.8 20.8 L 26.3 20.6 L 27.8 20.6 L 28.1 21.0 L 27.7 22.1 L 28.4 22.6 L 30.1 23.5 L 32.0 23.3 L 33.5 23.1 L 35.6 23.6 L 36.8 23.4 L 37.4 23.5 L 38.4 23.2 L 38.7 21.4 L 38.5 20.7 L 37.0 20.9 L 35.8 20.9 L 35.3 20.8 L 34.9 20.4 L 34.6 19.9 L 34.9 19.8 L 34.5 19.3 L 35.2 19.1 L 35.6 18.7 L 37.8 18.2 L 39.2 18.6 L 40.0 17.6 L 38.3 16.8 L 38.4 16.5 L 38.4 16.0 L 38.5 15.7 L 37.4 16.3 L 37.7 16.6 L 37.5 16.9 L 36.6 16.7 L 36.2 16.3 L 36.3 16.1 L 35.9 16.3 L 35.5 17.0 L 35.2 17.5 L 35.3 18.6 L 34.5 19.2 L 33.9 18.9 L 33.6 19.2 L 33.3 19.3 L 33.3 19.7 L 33.2 19.9 L 33.4 20.3 L 33.3 20.5 L 33.0 21.0 L 32.6 20.4 L 33.2 20.2 L 32.7 20.1 L 32.5 19.8 L 31.8 19.1 L 31.5 18.2 L 30.8 17.7 L 30.2 17.3 L 29.6 16.7 L 29.2 16.8 L 29.7 18.0 L 31.2 19.1 L 30.6 19.4 L 30.2 20.1 L 30.0 19.1 L 29.5 18.7 L 28.6 18.1 L 27.8 17.2 L 26.5 17.6 L 26.0 17.4 L 25.5 18.2 L 24.0 19.2 L 23.5 20.1 L 21.9 20.4 L 21.3 20.2 L 20.5 20.0 L 20.6 19.2 L 20.6 18.9 L 21.2 17.8 L 21.3 17.4 L 21.8 16.9 L 23.2 17.2 L 24.3 16.8 L 24.5 16.3 L 24.4 15.6 L 24.0 15.4 L 23.7 15.1 L 24.3 15.0 L 24.9 14.6 L 25.8 14.5 L 26.9 14.0 L 26.9 13.9 L 27.7 13.2 L 28.4 13.2 L 28.6 13.0 L 28.6 12.4 L 29.0 11.8 L 29.3 11.6 L 29.4 12.1 L 28.9 12.5 L 29.1 12.9 L 29.9 12.9 L 30.1 13.1 L 31.4 12.8 L 32.1 12.7 L 32.4 12.6 L 32.9 11.8 L 33.1 11.4 L 33.0 11.0 L 34.1 10.9 L 34.7 10.7 L 33.9 10.6 L 33.6 10.6 L 32.9 10.8 L 32.6 10.7 L 32.4 10.6 L 32.4 10.2 L 32.4 9.6 L 32.9 9.3 L 33.2 8.9 L 32.6 8.8 L 32.4 8.9 L 32.3 9.1 L 31.9 9.6 L 31.6 9.7 L 31.4 9.9 L 31.3 10.2 L 31.5 10.6 L 31.5 11.0 L 31.4 11.2 L 31.1 11.6 L 30.7 12.2 L 29.9 12.5 L 29.9 12.0 L 29.6 11.1 L 29.5 10.9 L 29.1 11.2 L 28.4 11.4 L 28.3 11.1 L 28.2 10.9 L 28.3 10.7 L 28.4 10.5 L 28.2 10.6 L 28.3 10.3 L 28.9 10.2 L 28.3 10.2 L 28.6 10.0 L 28.8 9.8 L 29.0 9.7 L 29.2 9.6 L 29.5 9.5 L 29.9 9.4 L 29.7 9.5 L 30.1 9.0 L 30.3 8.9 L 30.6 8.6 L 30.9 8.3 L 31.1 8.2 L 31.1 8.0 L 31.3 7.9 L 31.5 7.8 L 31.8 7.6 L 32.1 7.5 L 32.3 7.5 L 32.5 7.4 L 32.8 7.1 L 33.0 7.3 L 33.3 7.2 L 33.4 7.3 L 33.8 7.2 L 33.8 7.4 L 34.3 7.4 L 34.5 7.6 L 35.6 7.8 L 36.3 8.2 L 34.9 8.4 L 34.7 8.4 L 35.1 8.7 L 35.9 9.2 L 35.7 8.9 L 36.4 8.8 L 36.7 8.3 L 36.8 8.1 L 36.6 7.6 L 37.3 8.1 L 37.5 7.7 L 37.9 7.4 L 38.2 7.4 L 38.4 7.3 L 39.1 7.3 L 38.8 6.8 L 40.2 7.0 L 39.6 6.7 L 39.1 6.3 L 38.9 5.7 L 40.0 6.3 L 41.0 6.9 L 41.2 7.3 L 41.4 7.4 L 40.9 6.6 L 41.8 6.7 L 40.8 6.5 L 39.6 6.0 L 39.5 5.7 L 40.2 5.9 L 39.8 5.8 L 39.7 5.6 L 40.5 5.7 L 40.9 5.8 L 40.6 5.7 L 39.9 5.5 L 39.6 5.1 L 40.0 5.2 L 39.4 5.0 L 39.2 4.8 L 39.0 4.4 L 39.0 4.3 L 39.0 4.2 L 38.9 4.2 L 38.6 4.0 L 38.7 3.9 L 38.9 3.9 L 39.2 3.8 L 39.4 3.8 L 40.0 4.1 L 40.8 4.5 L 40.4 4.1 L 40.4 4.1 L 40.9 4.2 L 40.5 4.1 L 40.6 3.8 L 40.3 3.7 L 40.2 3.6 L 40.3 3.5 L 40.7 3.7 L 41.1 3.7 L 40.6 3.5 L 40.6 3.4 L 40.3 3.3 L 40.0 3.2 L 39.3 3.0 L 39.5 3.0 L 39.7 3.1 L 39.3 3.0 L 39.3 2.9 L 38.4 3.6 L 38.5 3.6 L 37.4 3.4 L 36.9 3.3 L 36.0 3.2 L 35.6 3.1 Z M 25.0 8.0 L 25.0 8.0 L 25.1 8.0 L 25.2 8.0 L 25.2 8.0 L 25.1 8.0 L 25.0 8.1 L 25.0 8.1 L 25.0 8.1 L 25.1 8.1 L 25.1 8.1 L 25.0 8.2 L 25.0 8.2 L 25.0 8.2 L 25.1 8.2 L 25.0 8.2 L 25.0 8.2 L 25.0 8.3 L 25.1 8.3 L 25.1 8.3 L 25.1 8.3 L 25.1 8.3 L 25.1 8.3 L 25.1 8.3 L 25.0 8.4 L 25.0 8.4 L 25.0 8.4 L 25.0 8.4 L 25.0 8.4 L 25.0 8.4 L 25.0 8.4 L 25.0 8.5 L 25.0 8.5 L 24.9 8.5 L 24.9 8.5 L 24.8 8.5 L 24.8 8.5 L 24.8 8.5 L 24.7 8.6 L 24.7 8.6 L 24.7 8.6 L 24.6 8.6 L 24.5 8.6 L 24.4 8.6 L 24.3 8.7 L 24.2 8.7 L 24.1 8.7 L 24.0 8.7 L 23.9 8.7 L 23.8 8.8 L 23.8 8.8 L 23.8 8.8 L 23.7 8.8 L 23.7 8.8 L 23.7 8.8 L 23.7 8.8 L 23.5 8.8 L 23.4 8.7 L 23.4 8.7 L 23.4 8.6 L 23.4 8.6 L 23.4 8.6 L 23.4 8.6 L 23.4 8.6 L 23.4 8.6 L 23.4 8.6 L 23.3 8.6 L 23.3 8.5 L 23.3 8.5 L 23.3 8.5 L 23.3 8.6 L 23.0 8.5 L 23.0 8.5 L 23.1 8.4 L 23.1 8.4 L 23.1 8.4 L 23.1 8.5 L 23.2 8.5 L 23.3 8.4 L 23.3 8.4 L 23.3 8.4 L 23.4 8.4 L 23.4 8.4 L 23.3 8.4 L 23.3 8.4 L 23.3 8.4 L 23.3 8.4 L 23.4 8.3 L 23.5 8.3 L 23.5 8.3 L 23.4 8.3 L 23.3 8.3 L 23.3 8.3 L 23.4 8.3 L 23.4 8.2 L 23.4 8.2 L 23.2 8.2 L 23.2 8.2 L 23.1 8.2 L 23.1 8.2 L 23.2 8.1 L 23.2 8.1 L 23.3 8.1 L 23.3 8.1 L 23.3 8.1 L 23.3 8.1 L 23.4 8.1 L 23.4 8.1 L 23.4 8.1 L 23.5 8.2 L 23.6 8.2 L 23.6 8.1 L 23.5 8.1 L 23.5 8.1 L 23.5 8.1 L 23.6 8.1 L 23.7 8.1 L 23.7 8.0 L 23.6 8.0 L 23.6 8.0 L 23.5 8.0 L 23.4 8.0 L 23.3 8.0 L 23.3 7.9 L 23.3 7.9 L 23.4 7.9 L 23.4 7.9 L 23.4 7.9 L 23.4 7.9 L 23.4 7.9 L 23.5 7.9 L 23.5 7.9 L 23.6 7.9 L 23.5 7.9 L 23.5 7.9 L 23.5 7.8 L 23.6 7.9 L 23.6 7.8 L 23.6 7.8 L 23.6 7.8 L 23.6 7.8 L 23.6 7.8 L 23.6 7.8 L 23.7 7.8 L 23.7 7.8 L 23.7 7.8 L 23.7 7.8 L 23.7 7.8 L 23.7 7.8 L 23.7 7.8 L 23.7 7.9 L 23.7 7.9 L 23.7 7.9 L 23.7 7.9 L 23.8 7.9 L 23.8 7.8 L 23.8 7.8 L 23.8 7.8 L 23.8 7.8 L 23.8 7.8 L 23.8 7.8 L 23.8 7.7 L 23.8 7.7 L 23.8 7.7 L 23.8 7.7 L 23.9 7.7 L 23.9 7.7 L 23.9 7.8 L 23.9 7.8 L 23.9 7.9 L 23.9 7.9 L 23.9 7.9 L 23.9 7.9 L 23.9 7.9 L 23.8 8.0 L 23.8 8.0 L 23.8 8.0 L 23.8 8.0 L 23.8 8.0 L 23.8 8.0 L 23.8 8.1 L 23.8 8.1 L 23.8 8.1 L 23.7 8.1 L 23.8 8.1 L 23.8 8.1 L 23.8 8.1 L 23.9 8.0 L 23.9 8.0 L 23.9 8.1 L 24.0 8.1 L 24.0 8.0 L 24.1 7.9 L 24.1 7.9 L 24.2 7.9 L 24.2 8.0 L 24.2 8.0 L 24.2 8.0 L 24.2 8.0 L 24.2 8.0 L 24.3 7.9 L 24.3 7.9 L 24.4 7.9 L 24.4 7.9 L 24.4 8.0 L 24.4 8.0 L 24.4 8.1 L 24.4 8.1 L 24.4 8.1 L 24.5 8.0 L 24.5 8.0 L 24.5 8.0 L 24.5 8.0 L 24.6 8.0 L 24.6 8.0 L 24.6 8.0 L 24.7 8.0 L 24.7 8.0 L 24.7 8.0 L 24.8 8.0 L 24.8 8.0 L 24.9 7.9 L 24.9 7.9 L 25.0 7.9 L 25.0 8.0 L 25.0 8.0 L 25.0 8.0 L 25.0 8.0 Z M 22.6 3.9 L 22.6 3.9 L 22.7 3.9 L 22.6 3.9 L 22.6 3.9 L 22.6 3.9 L 22.6 4.0 L 22.6 3.9 L 22.8 3.9 L 22.8 3.9 L 22.9 3.9 L 22.9 3.9 L 22.9 3.8 L 23.0 3.8 L 23.1 3.8 L 23.1 3.8 L 23.1 3.8 L 23.2 3.8 L 23.1 3.8 L 23.0 3.8 L 23.1 3.8 L 23.2 3.8 L 23.2 3.8 L 23.2 3.8 L 23.2 3.8 L 23.2 3.8 L 23.3 3.8 L 23.3 3.7 L 23.4 3.7 L 23.4 3.7 L 23.5 3.7 L 23.5 3.7 L 23.5 3.7 L 23.4 3.7 L 23.6 3.7 L 23.7 3.7 L 23.7 3.7 L 23.7 3.7 L 23.7 3.7 L 23.8 3.7 L 23.8 3.7 L 23.8 3.7 L 23.8 3.7 L 23.7 3.7 L 23.7 3.8 L 23.5 3.8 L 23.5 3.8 L 23.4 3.9 L 23.4 3.9 L 23.3 3.9 L 23.3 3.9 L 23.2 3.9 L 23.2 3.9 L 23.1 3.9 L 23.1 3.9 L 23.1 3.9 L 23.0 4.0 L 23.0 4.0 L 22.9 4.0 L 22.9 4.0 L 22.9 4.0 L 22.9 4.0 L 22.9 4.0 L 22.9 4.0 L 22.9 4.0 L 23.0 4.0 L 23.0 4.0 L 23.0 4.0 L 23.1 4.0 L 23.1 4.0 L 23.1 4.0 L 23.0 4.0 L 23.0 4.0 L 23.0 4.0 L 22.9 4.0 L 22.9 4.1 L 22.8 4.1 L 22.8 4.1 L 22.8 4.1 L 22.9 4.1 L 23.0 4.0 L 23.0 4.1 L 23.0 4.1 L 22.9 4.1 L 22.9 4.1 L 23.0 4.0 L 23.1 4.0 L 23.1 4.0 L 23.1 4.0 L 23.2 4.0 L 23.2 4.0 L 23.1 4.1 L 23.1 4.1 L 23.1 4.1 L 23.1 4.1 L 23.0 4.2 L 22.9 4.2 L 22.9 4.2 L 22.8 4.2 L 22.7 4.2 L 22.6 4.2 L 22.7 4.2 L 22.7 4.2 L 22.8 4.2 L 22.8 4.2 L 22.8 4.2 L 22.8 4.3 L 22.7 4.3 L 22.7 4.3 L 22.6 4.3 L 22.6 4.3 L 22.6 4.3 L 22.6 4.3 L 22.5 4.3 L 22.5 4.3 L 22.4 4.3 L 22.4 4.3 L 22.6 4.3 L 22.6 4.3 L 22.6 4.3 L 22.6 4.3 L 22.6 4.3 L 22.5 4.4 L 22.5 4.4 L 22.5 4.3 L 22.5 4.4 L 22.4 4.4 L 22.4 4.4 L 22.5 4.4 L 22.6 4.4 L 22.5 4.4 L 22.5 4.4 L 22.5 4.4 L 22.5 4.5 L 22.4 4.5 L 22.4 4.5 L 22.3 4.5 L 22.3 4.5 L 22.3 4.5 L 22.2 4.5 L 22.2 4.5 L 22.2 4.5 L 22.2 4.5 L 22.3 4.5 L 22.2 4.6 L 22.3 4.5 L 22.3 4.5 L 22.2 4.6 L 22.2 4.6 L 22.1 4.6 L 22.0 4.6 L 22.0 4.6 L 22.0 4.6 L 21.9 4.6 L 21.9 4.6 L 22.0 4.6 L 22.0 4.6 L 22.0 4.6 L 21.8 4.7 L 21.8 4.7 L 22.0 4.6 L 22.1 4.6 L 22.1 4.6 L 22.2 4.6 L 22.1 4.7 L 22.1 4.7 L 22.1 4.7 L 22.0 4.7 L 22.0 4.7 L 22.0 4.8 L 21.9 4.8 L 21.9 4.8 L 21.9 4.8 L 21.9 4.8 L 21.8 4.8 L 21.8 4.8 L 21.8 4.8 L 21.8 4.8 L 21.8 4.8 L 21.8 4.8 L 21.8 4.8 L 21.8 4.8 L 21.7 4.8 L 21.7 4.8 L 21.8 4.8 L 21.8 4.8 L 21.8 4.8 L 21.8 4.8 L 21.9 4.8 L 21.9 4.8 L 21.9 4.8 L 21.7 4.9 L 21.7 4.9 L 21.6 4.9 L 21.6 4.9 L 21.6 4.9 L 21.6 4.9 L 21.6 4.9 L 21.6 4.9 L 21.5 4.9 L 21.5 4.9 L 21.5 4.9 L 21.5 5.0 L 21.5 5.0 L 21.5 5.0 L 21.5 5.0 L 21.4 5.0 L 21.4 5.1 L 21.3 5.1 L 21.3 5.1 L 21.3 5.0 L 21.4 5.0 L 21.4 5.0 L 21.4 5.0 L 21.3 5.0 L 21.3 5.0 L 21.3 5.0 L 21.2 5.1 L 21.2 5.1 L 21.2 5.1 L 21.2 5.0 L 21.2 5.0 L 21.2 5.0 L 21.2 5.0 L 21.1 5.1 L 21.1 5.1 L 21.1 5.1 L 21.0 5.1 L 21.0 5.1 L 21.0 5.2 L 21.0 5.2 L 21.0 5.2 L 21.0 5.2 L 21.0 5.2 L 20.9 5.2 L 20.9 5.3 L 20.8 5.3 L 20.8 5.3 L 20.8 5.3 L 20.8 5.3 L 20.9 5.3 L 20.9 5.3 L 20.8 5.3 L 20.7 5.3 L 20.7 5.3 L 20.7 5.3 L 20.8 5.3 L 20.8 5.3 L 20.8 5.4 L 20.8 5.4 L 20.8 5.4 L 20.7 5.4 L 20.6 5.4 L 20.7 5.4 L 20.7 5.4 L 20.8 5.4 L 20.8 5.4 L 20.8 5.4 L 20.8 5.4 L 20.7 5.4 L 20.7 5.4 L 20.7 5.5 L 20.7 5.5 L 20.6 5.5 L 20.5 5.6 L 20.5 5.5 L 20.5 5.5 L 20.5 5.6 L 20.5 5.6 L 20.5 5.6 L 20.5 5.6 L 20.5 5.6 L 20.4 5.7 L 20.4 5.7 L 20.4 5.7 L 20.3 5.7 L 20.3 5.7 L 20.3 5.7 L 20.4 5.7 L 20.3 5.7 L 20.4 5.7 L 20.3 5.8 L 20.2 5.9 L 20.2 5.9 L 20.2 5.8 L 20.2 5.8 L 20.2 5.8 L 20.1 5.9 L 20.1 5.9 L 20.1 5.9 L 20.1 5.9 L 20.1 5.8 L 20.0 5.9 L 20.0 5.9 L 19.9 6.0 L 19.9 6.0 L 19.9 5.9 L 19.9 5.9 L 19.9 6.0 L 19.8 6.0 L 19.8 6.0 L 19.7 6.0 L 19.7 6.0 L 19.7 6.0 L 19.8 5.9 L 19.8 5.9 L 19.7 5.9 L 19.7 6.0 L 19.7 6.0 L 19.5 6.1 L 19.4 6.1 L 19.4 6.1 L 19.4 6.1 L 19.4 6.0 L 19.4 6.0 L 19.5 6.0 L 19.6 6.0 L 19.5 6.0 L 19.5 6.0 L 19.5 6.0 L 19.6 5.9 L 19.6 5.9 L 19.7 5.9 L 19.7 5.8 L 19.8 5.8 L 19.8 5.8 L 19.9 5.8 L 20.0 5.8 L 20.0 5.8 L 20.0 5.8 L 19.9 5.8 L 19.8 5.8 L 19.8 5.8 L 19.9 5.7 L 19.9 5.7 L 19.9 5.7 L 19.9 5.7 L 19.9 5.7 L 20.0 5.7 L 20.1 5.6 L 20.1 5.6 L 20.1 5.6 L 20.1 5.6 L 20.1 5.6 L 20.1 5.6 L 20.0 5.6 L 20.0 5.6 L 20.0 5.6 L 20.0 5.5 L 20.0 5.6 L 19.9 5.6 L 19.8 5.7 L 19.8 5.7 L 19.8 5.7 L 19.8 5.6 L 19.9 5.6 L 19.9 5.6 L 19.9 5.6 L 19.8 5.6 L 19.8 5.6 L 19.7 5.7 L 19.7 5.7 L 19.7 5.7 L 19.6 5.7 L 19.6 5.7 L 19.6 5.7 L 19.6 5.7 L 19.6 5.8 L 19.6 5.8 L 19.5 5.8 L 19.5 5.8 L 19.5 5.8 L 19.4 5.9 L 19.4 5.9 L 19.4 5.9 L 19.4 5.9 L 19.4 5.9 L 19.3 6.0 L 19.3 5.9 L 19.3 5.9 L 19.3 6.0 L 19.2 6.0 L 19.2 6.0 L 19.3 6.0 L 19.3 6.0 L 19.3 6.0 L 19.2 6.1 L 19.2 6.1 L 19.1 6.1 L 19.1 6.1 L 19.1 6.1 L 19.0 6.2 L 19.0 6.1 L 19.0 6.1 L 19.0 6.2 L 18.9 6.2 L 18.9 6.2 L 18.9 6.2 L 18.9 6.3 L 18.9 6.3 L 18.9 6.3 L 18.9 6.3 L 18.8 6.3 L 18.8 6.4 L 18.7 6.4 L 18.6 6.4 L 18.6 6.5 L 18.6 6.4 L 18.7 6.3 L 18.8 6.3 L 18.8 6.3 L 18.6 6.4 L 18.6 6.4 L 18.6 6.4 L 18.5 6.5 L 18.4 6.5 L 18.4 6.5 L 18.4 6.5 L 18.4 6.5 L 18.4 6.5 L 18.3 6.6 L 18.3 6.6 L 18.3 6.5 L 18.4 6.5 L 18.4 6.5 L 18.4 6.5 L 18.4 6.4 L 18.5 6.4 L 18.4 6.4 L 18.4 6.4 L 18.5 6.4 L 18.5 6.3 L 18.5 6.4 L 18.4 6.4 L 18.5 6.4 L 18.5 6.3 L 18.5 6.3 L 18.5 6.3 L 18.6 6.3 L 18.7 6.2 L 18.7 6.1 L 18.6 6.2 L 18.6 6.2 L 18.7 6.1 L 18.7 6.1 L 18.7 6.1 L 18.6 6.1 L 18.6 6.2 L 18.5 6.3 L 18.4 6.3 L 18.4 6.3 L 18.4 6.3 L 18.4 6.4 L 18.3 6.4 L 18.2 6.4 L 18.2 6.5 L 18.2 6.5 L 18.1 6.6 L 18.1 6.6 L 18.0 6.6 L 18.0 6.6 L 17.9 6.7 L 17.9 6.7 L 17.9 6.7 L 17.9 6.7 L 18.0 6.6 L 18.0 6.5 L 18.0 6.5 L 18.1 6.4 L 18.1 6.4 L 18.2 6.3 L 18.3 6.3 L 18.3 6.2 L 18.3 6.2 L 18.3 6.2 L 18.4 6.1 L 18.4 6.1 L 18.4 6.1 L 18.4 6.1 L 18.5 6.0 L 18.6 6.0 L 18.6 6.0 L 18.6 6.0 L 18.6 6.0 L 18.7 6.0 L 18.7 5.9 L 18.7 5.9 L 18.7 5.9 L 18.7 5.9 L 18.8 5.9 L 18.8 5.8 L 18.8 5.8 L 18.8 5.8 L 18.9 5.8 L 18.9 5.8 L 19.0 5.7 L 19.1 5.7 L 19.1 5.6 L 19.1 5.6 L 19.1 5.6 L 19.2 5.6 L 19.1 5.6 L 19.1 5.6 L 19.1 5.6 L 19.2 5.6 L 19.2 5.6 L 19.2 5.5 L 19.3 5.5 L 19.3 5.5 L 19.3 5.5 L 19.3 5.5 L 19.2 5.5 L 19.2 5.6 L 19.1 5.6 L 19.1 5.5 L 19.2 5.5 L 19.1 5.5 L 19.1 5.5 L 19.1 5.5 L 19.1 5.5 L 19.1 5.5 L 19.1 5.5 L 19.1 5.5 L 19.1 5.4 L 19.1 5.4 L 19.2 5.4 L 19.3 5.3 L 19.3 5.3 L 19.4 5.3 L 19.4 5.3 L 19.5 5.3 L 19.5 5.3 L 19.6 5.2 L 19.6 5.2 L 19.6 5.2 L 19.6 5.2 L 19.6 5.3 L 19.5 5.3 L 19.4 5.4 L 19.4 5.4 L 19.3 5.4 L 19.3 5.4 L 19.3 5.5 L 19.3 5.4 L 19.4 5.4 L 19.4 5.4 L 19.5 5.4 L 19.5 5.3 L 19.5 5.4 L 19.5 5.4 L 19.6 5.4 L 19.5 5.4 L 19.5 5.4 L 19.6 5.4 L 19.6 5.4 L 19.6 5.4 L 19.7 5.4 L 19.7 5.4 L 19.8 5.3 L 19.9 5.3 L 19.9 5.2 L 20.1 5.2 L 20.1 5.2 L 20.2 5.2 L 20.2 5.2 L 20.2 5.2 L 20.3 5.2 L 20.4 5.2 L 20.4 5.2 L 20.5 5.1 L 20.7 5.0 L 20.8 5.0 L 20.9 4.9 L 21.0 4.9 L 20.9 4.9 L 21.0 4.9 L 21.0 4.9 L 21.1 4.8 L 21.1 4.8 L 21.1 4.8 L 21.1 4.8 L 21.1 4.8 L 21.1 4.8 L 21.1 4.8 L 21.1 4.8 L 21.2 4.8 L 21.2 4.8 L 21.2 4.7 L 21.2 4.7 L 21.3 4.7 L 21.3 4.7 L 21.3 4.7 L 21.3 4.7 L 21.3 4.7 L 21.2 4.7 L 21.3 4.7 L 21.2 4.7 L 21.2 4.7 L 21.2 4.7 L 21.2 4.7 L 21.2 4.7 L 21.3 4.6 L 21.3 4.6 L 21.3 4.6 L 21.3 4.7 L 21.4 4.6 L 21.4 4.6 L 21.5 4.6 L 21.5 4.6 L 21.5 4.6 L 21.6 4.5 L 21.6 4.5 L 21.6 4.5 L 21.7 4.5 L 21.6 4.5 L 21.6 4.5 L 21.6 4.5 L 21.7 4.5 L 21.7 4.5 L 21.7 4.5 L 21.7 4.5 L 21.8 4.4 L 21.8 4.4 L 21.9 4.4 L 22.0 4.4 L 22.0 4.4 L 22.0 4.3 L 22.0 4.3 L 22.1 4.3 L 22.1 4.3 L 22.2 4.3 L 22.1 4.3 L 22.1 4.3 L 22.0 4.3 L 22.0 4.3 L 21.9 4.3 L 21.9 4.4 L 21.8 4.4 L 21.8 4.3 L 21.9 4.3 L 21.9 4.3 L 21.9 4.3 L 22.0 4.2 L 22.0 4.2 L 22.0 4.2 L 21.9 4.3 L 21.8 4.3 L 21.8 4.3 L 21.9 4.2 L 21.9 4.2 L 22.0 4.2 L 22.0 4.2 L 22.0 4.1 L 22.1 4.1 L 22.1 4.1 L 22.2 4.0 L 22.2 4.0 L 22.2 4.0 L 22.3 4.0 L 22.4 4.0 L 22.4 4.0 L 22.4 3.9 L 22.4 3.9 L 22.4 3.9 L 22.3 3.9 L 22.4 3.9 L 22.4 3.9 L 22.4 3.9 L 22.5 3.9 L 22.5 3.9 L 22.7 3.8 L 22.8 3.8 L 22.8 3.8 L 22.8 3.8 L 22.8 3.8 L 22.7 3.8 L 22.7 3.8 L 22.7 3.9 L 22.7 3.8 L 22.8 3.8 L 22.9 3.8 L 23.0 3.7 L 23.0 3.7 L 23.1 3.7 L 23.2 3.6 L 23.3 3.6 L 23.3 3.6 L 23.4 3.6 L 23.4 3.6 L 23.5 3.6 L 23.5 3.6 L 23.6 3.6 L 23.6 3.6 L 23.7 3.5 L 23.8 3.5 L 23.8 3.5 L 23.9 3.5 L 23.9 3.5 L 23.9 3.5 L 24.0 3.5 L 24.0 3.5 L 24.0 3.6 L 23.9 3.6 L 23.9 3.6 L 23.8 3.6 L 23.8 3.6 L 23.7 3.6 L 23.6 3.7 L 23.5 3.7 L 23.4 3.7 L 23.3 3.7 L 23.2 3.7 L 23.2 3.8 L 23.1 3.8 L 22.9 3.8 L 22.8 3.9 L 22.7 3.9 L 22.7 3.9 L 22.7 3.9 L 22.7 3.9 L 22.6 3.9 Z M 28.4 3.2 L 28.3 3.3 L 28.3 3.3 L 28.3 3.3 L 28.3 3.3 L 28.3 3.3 L 28.2 3.3 L 28.2 3.3 L 28.2 3.3 L 28.2 3.3 L 28.3 3.3 L 28.3 3.3 L 28.3 3.3 L 28.3 3.3 L 28.3 3.3 L 28.3 3.3 L 28.2 3.3 L 28.3 3.3 L 28.3 3.4 L 28.2 3.4 L 28.2 3.4 L 28.2 3.4 L 28.1 3.4 L 28.1 3.4 L 28.1 3.4 L 28.1 3.4 L 28.1 3.4 L 28.0 3.4 L 27.9 3.4 L 27.9 3.4 L 27.7 3.4 L 27.7 3.4 L 27.7 3.4 L 27.7 3.4 L 27.6 3.4 L 27.6 3.4 L 27.6 3.4 L 27.4 3.4 L 27.4 3.4 L 27.6 3.4 L 27.6 3.4 L 27.4 3.4 L 27.2 3.4 L 27.1 3.4 L 27.0 3.4 L 27.0 3.4 L 27.0 3.4 L 27.1 3.4 L 26.9 3.4 L 26.9 3.4 L 26.9 3.4 L 26.9 3.4 L 26.8 3.4 L 26.8 3.4 L 26.9 3.4 L 26.8 3.4 L 26.7 3.4 L 26.7 3.4 L 26.7 3.5 L 26.6 3.4 L 26.6 3.4 L 26.7 3.4 L 26.7 3.4 L 26.7 3.4 L 26.7 3.4 L 26.7 3.4 L 26.6 3.4 L 26.6 3.4 L 26.5 3.4 L 26.5 3.4 L 26.5 3.4 L 26.5 3.4 L 26.5 3.4 L 26.6 3.4 L 26.6 3.3 L 26.5 3.4 L 26.5 3.4 L 26.4 3.4 L 26.4 3.4 L 26.3 3.4 L 26.3 3.4 L 26.3 3.4 L 26.4 3.4 L 26.4 3.4 L 26.4 3.4 L 26.4 3.3 L 26.4 3.3 L 26.4 3.3 L 26.3 3.4 L 26.3 3.4 L 26.3 3.4 L 26.3 3.4 L 26.3 3.4 L 26.2 3.4 L 26.2 3.5 L 26.2 3.5 L 26.1 3.5 L 26.1 3.5 L 26.1 3.4 L 26.0 3.4 L 26.0 3.5 L 25.9 3.5 L 25.8 3.5 L 25.8 3.5 L 25.8 3.5 L 25.8 3.4 L 25.7 3.4 L 25.6 3.5 L 25.6 3.5 L 25.5 3.5 L 25.5 3.5 L 25.5 3.4 L 25.5 3.4 L 25.6 3.4 L 25.7 3.4 L 25.6 3.4 L 25.6 3.4 L 25.5 3.4 L 25.5 3.4 L 25.5 3.4 L 25.5 3.4 L 25.5 3.4 L 25.5 3.4 L 25.4 3.4 L 25.4 3.4 L 25.4 3.5 L 25.4 3.5 L 25.3 3.5 L 25.3 3.5 L 25.3 3.5 L 25.3 3.5 L 25.2 3.5 L 25.1 3.6 L 25.1 3.5 L 25.0 3.5 L 25.0 3.5 L 25.0 3.5 L 25.0 3.5 L 25.0 3.5 L 25.1 3.5 L 25.1 3.5 L 25.1 3.5 L 25.1 3.5 L 25.1 3.5 L 25.2 3.4 L 25.2 3.4 L 25.3 3.4 L 25.3 3.4 L 25.2 3.4 L 25.1 3.4 L 25.2 3.4 L 25.3 3.4 L 25.1 3.4 L 25.2 3.3 L 25.3 3.3 L 25.3 3.3 L 25.3 3.3 L 25.3 3.3 L 25.4 3.3 L 25.3 3.3 L 25.4 3.2 L 25.4 3.2 L 25.3 3.3 L 25.4 3.2 L 25.5 3.2 L 25.6 3.2 L 25.6 3.2 L 25.6 3.2 L 25.6 3.2 L 25.6 3.2 L 25.6 3.2 L 25.7 3.2 L 25.7 3.2 L 25.8 3.2 L 25.9 3.2 L 26.0 3.2 L 26.0 3.2 L 26.0 3.2 L 25.9 3.2 L 25.8 3.2 L 25.7 3.3 L 25.7 3.3 L 25.6 3.3 L 25.7 3.3 L 25.7 3.3 L 25.8 3.3 L 25.9 3.3 L 25.9 3.3 L 25.8 3.3 L 25.7 3.3 L 25.7 3.3 L 25.7 3.3 L 25.8 3.3 L 26.0 3.2 L 26.0 3.2 L 26.1 3.2 L 26.1 3.2 L 26.1 3.2 L 26.1 3.2 L 26.1 3.2 L 26.1 3.2 L 26.2 3.2 L 26.1 3.2 L 26.1 3.2 L 26.1 3.2 L 26.3 3.1 L 26.3 3.1 L 26.4 3.1 L 26.4 3.2 L 26.4 3.2 L 26.4 3.2 L 26.3 3.2 L 26.3 3.2 L 26.3 3.2 L 26.3 3.3 L 26.4 3.3 L 26.4 3.3 L 26.4 3.2 L 26.4 3.2 L 26.4 3.2 L 26.4 3.2 L 26.5 3.2 L 26.5 3.2 L 26.5 3.2 L 26.5 3.2 L 26.5 3.2 L 26.6 3.2 L 26.6 3.2 L 26.8 3.1 L 26.8 3.1 L 26.9 3.1 L 27.0 3.1 L 27.1 3.1 L 27.1 3.1 L 27.1 3.1 L 27.0 3.1 L 26.9 3.2 L 26.8 3.2 L 26.7 3.2 L 26.7 3.2 L 26.7 3.2 L 26.7 3.2 L 26.7 3.2 L 26.8 3.2 L 26.8 3.2 L 26.9 3.2 L 27.1 3.1 L 27.1 3.1 L 27.1 3.2 L 27.2 3.2 L 27.2 3.2 L 27.3 3.2 L 27.3 3.2 L 27.3 3.2 L 27.3 3.2 L 27.4 3.2 L 27.4 3.2 L 27.5 3.2 L 27.6 3.2 L 27.5 3.2 L 27.4 3.2 L 27.4 3.2 L 27.4 3.2 L 27.3 3.2 L 27.3 3.2 L 27.2 3.2 L 27.2 3.2 L 27.2 3.1 L 27.2 3.1 L 27.3 3.1 L 27.3 3.1 L 27.3 3.1 L 27.2 3.1 L 27.2 3.1 L 27.2 3.1 L 27.3 3.1 L 27.3 3.1 L 27.3 3.0 L 27.4 3.0 L 27.5 3.1 L 27.5 3.1 L 27.5 3.1 L 27.5 3.0 L 27.4 3.0 L 27.4 3.0 L 27.4 3.0 L 27.5 3.0 L 27.5 3.0 L 27.5 3.0 L 27.5 3.0 L 27.5 3.0 L 27.5 3.0 L 27.6 3.1 L 27.6 3.0 L 27.6 3.0 L 27.6 3.0 L 27.6 3.0 L 27.6 3.0 L 27.7 3.0 L 27.7 3.0 L 27.7 3.0 L 27.8 3.0 L 27.8 3.0 L 27.8 3.0 L 27.8 3.0 L 27.8 2.9 L 27.8 2.9 L 27.9 2.9 L 27.9 2.9 L 27.9 2.9 L 27.9 2.9 L 27.9 2.9 L 28.0 2.9 L 28.0 2.9 L 28.0 2.9 L 28.0 2.9 L 28.0 3.0 L 28.1 3.0 L 28.1 3.0 L 28.0 3.0 L 28.0 3.0 L 28.0 3.0 L 28.0 3.0 L 28.0 3.0 L 28.0 3.0 L 28.0 3.0 L 28.0 3.0 L 28.1 3.0 L 28.1 3.0 L 28.2 3.0 L 28.2 3.0 L 28.2 3.0 L 28.1 3.0 L 28.0 3.1 L 28.0 3.1 L 28.0 3.1 L 28.0 3.1 L 28.0 3.1 L 28.0 3.1 L 28.0 3.1 L 27.9 3.1 L 27.8 3.1 L 27.8 3.1 L 27.9 3.1 L 28.1 3.1 L 28.1 3.1 L 28.2 3.1 L 28.2 3.1 L 28.2 3.1 L 28.2 3.1 L 28.2 3.1 L 28.2 3.1 L 28.3 3.1 L 28.3 3.1 L 28.3 3.1 L 28.2 3.1 L 28.2 3.1 L 28.3 3.1 L 28.3 3.1 L 28.4 3.1 L 28.4 3.1 L 28.3 3.1 L 28.3 3.1 L 28.2 3.1 L 28.2 3.2 L 28.1 3.2 L 28.2 3.2 L 28.2 3.2 L 28.3 3.1 L 28.4 3.1 L 28.4 3.1 L 28.3 3.2 L 28.3 3.2 L 28.2 3.2 L 28.2 3.2 L 28.3 3.2 L 28.3 3.2 L 28.4 3.2 L 28.4 3.2 L 28.3 3.2 L 28.3 3.2 L 28.3 3.2 L 28.4 3.2 L 28.4 3.2 L 28.4 3.2 L 28.4 3.2 L 28.4 3.2 Z M 23.4 3.5 L 22.9 3.6 L 22.6 3.8 L 22.5 3.8 L 22.3 3.9 L 22.1 3.9 L 21.6 4.1 L 22.0 4.0 L 21.4 4.2 L 20.9 4.4 L 21.4 4.3 L 21.6 4.2 L 21.9 4.1 L 21.8 4.2 L 21.5 4.4 L 21.2 4.5 L 21.1 4.5 L 20.5 4.7 L 20.4 4.7 L 20.6 4.6 L 20.3 4.7 L 20.5 4.5 L 20.1 4.7 L 20.5 4.5 L 20.4 4.5 L 19.6 4.9 L 19.7 4.8 L 19.5 4.8 L 19.7 4.7 L 19.9 4.6 L 19.4 4.9 L 19.3 4.9 L 19.2 4.9 L 19.1 5.0 L 19.0 5.0 L 18.6 5.2 L 17.9 5.5 L 17.6 5.7 L 16.9 6.1 L 16.4 6.4 L 15.5 7.0 L 15.3 7.2 L 14.7 7.6 L 14.0 8.1 L 13.6 8.5 L 13.5 8.6 L 13.5 8.6 L 13.8 8.4 L 14.5 7.9 L 14.7 7.7 L 15.2 7.5 L 16.3 6.8 L 16.9 6.5 L 17.1 6.4 L 17.5 6.2 L 17.9 6.0 L 18.1 6.0 L 18.1 6.1 L 17.9 6.3 L 17.7 6.4 L 17.5 6.6 L 17.4 6.7 L 17.0 6.9 L 16.6 7.2 L 16.5 7.2 L 16.4 7.4 L 16.3 7.4 L 16.2 7.6 L 16.4 7.5 L 16.6 7.5 L 16.8 7.4 L 17.0 7.3 L 17.2 7.2 L 16.9 7.5 L 16.7 7.6 L 16.4 7.8 L 16.2 7.9 L 16.0 8.1 L 15.9 8.2 L 15.6 8.4 L 15.4 8.6 L 15.3 8.8 L 15.2 9.0 L 15.0 9.2 L 14.9 9.4 L 14.5 9.4 L 14.3 9.6 L 14.8 9.4 L 14.7 9.7 L 14.4 10.0 L 14.2 10.2 L 13.6 10.4 L 13.0 10.5 L 12.9 10.2 L 12.5 10.2 L 12.1 10.3 L 11.5 10.8 L 11.0 10.9 L 11.2 10.9 L 11.7 10.6 L 12.5 10.5 L 12.0 10.9 L 11.9 11.0 L 11.6 11.3 L 11.2 11.8 L 11.3 12.0 L 11.1 12.3 L 10.8 12.3 L 10.6 12.3 L 10.4 12.4 L 10.7 12.0 L 10.9 12.1 L 11.2 11.8 L 11.0 11.7 L 10.8 11.8 L 10.6 11.9 L 10.5 11.9 L 10.4 11.9 L 10.3 12.0 L 10.0 12.2 L 9.7 12.5 L 9.7 12.6 L 9.6 12.6 L 9.5 12.6 L 9.4 12.6 L 9.0 13.0 L 8.8 13.3 L 9.1 12.9 L 8.6 13.4 L 8.3 13.7 L 8.5 13.5 L 8.7 13.3 L 8.8 13.1 L 9.0 12.9 L 8.9 13.0 L 8.7 13.3 L 8.7 13.3 L 8.7 13.3 L 8.6 13.3 L 8.4 13.6 L 8.3 13.7 L 7.8 14.4 L 8.0 14.2 L 7.9 14.3 L 7.7 14.5 L 7.7 14.6 L 7.5 14.7 L 7.4 14.9 L 7.2 15.1 L 7.8 15.8 L 7.8 15.9 L 7.7 16.0 L 7.5 16.3 L 6.8 17.4 L 6.8 17.4 L 6.1 18.8 L 6.4 18.2 L 6.6 17.8 L 6.9 17.3 L 7.4 16.4 L 7.5 16.2 L 7.8 15.9 L 7.9 15.7 L 7.9 15.7 L 8.0 15.5 L 8.0 15.5 L 7.9 15.7 L 7.7 16.0 L 7.9 15.7 L 8.0 15.6 L 8.1 15.3 L 8.4 15.0 L 8.5 14.9 L 8.3 15.1 L 8.3 15.1 L 8.3 15.2 L 7.9 15.7 L 7.0 17.2 L 6.8 17.4 L 5.9 19.0 L 5.6 19.7 L 5.5 20.0 L 5.5 19.9 L 5.9 19.2 L 5.8 19.4 L 5.5 19.9 L 5.4 20.3 L 5.2 20.6 L 5.0 21.1 L 4.8 21.7 L 4.6 22.1 L 4.5 22.4 L 4.4 22.8 L 4.3 23.1 L 4.0 24.0 L 3.9 24.4 L 3.7 25.3 L 3.5 26.0 L 3.5 26.1 L 3.4 26.8 L 3.4 26.9 L 3.5 26.3 L 3.5 26.2 L 2.7 25.6 L 2.6 26.1 L 2.4 27.1 L 2.5 26.4 L 2.6 26.0 L 2.6 26.6 L 2.6 27.5 L 2.7 27.5 L 2.7 27.9 L 2.7 28.0 L 2.8 28.3 L 2.7 28.9 L 2.8 29.7 L 2.9 30.4 L 3.1 31.0 L 3.4 31.4 L 3.6 32.1 L 3.7 33.3 L 3.8 34.1 L 3.5 35.0 L 3.7 35.0 L 3.8 35.6 L 4.1 35.6 L 4.2 35.3 L 4.4 35.4 L 4.7 35.9 L 4.9 36.4 L 4.9 36.9 L 5.2 36.7 L 6.0 37.3 L 7.0 38.7 L 7.7 40.2 L 7.5 41.3 L 7.2 41.8 L 7.0 42.5 L 7.2 43.5 L 7.6 45.3 L 7.7 46.3 L 7.3 46.5 L 7.2 46.4 L 7.0 46.6 L 6.8 47.0 L 6.9 47.3 L 7.4 48.2 L 7.8 49.4 L 7.7 49.0 L 7.5 48.8 L 7.7 49.3 L 8.3 50.2 L 7.8 49.7 L 7.4 49.1 L 7.8 49.8 L 8.8 51.0 L 9.5 50.5 L 10.1 51.2 L 10.0 51.1 L 10.5 51.6 L 10.6 51.7 L 10.9 52.0 L 11.3 52.5 L 12.3 53.4 L 12.7 53.8 L 13.0 54.0 L 13.5 54.4 L 13.8 54.7 L 14.4 55.2 L 14.2 55.1 L 14.1 55.0 L 13.9 54.8 L 14.0 54.9 L 13.8 54.7 L 13.6 54.6 L 13.8 54.7 L 13.4 54.4 L 13.4 54.4 L 13.0 54.0 L 13.0 54.0 L 12.8 53.8 L 12.5 53.6 L 12.4 53.5 L 12.0 53.2 L 11.9 53.1 L 11.7 52.9 L 11.4 52.6 L 11.4 52.5 L 11.1 52.2 L 11.2 52.4 L 11.2 52.3 L 10.9 52.1 L 10.3 51.4 L 9.9 51.0 L 9.8 50.8 L 9.3 50.2 L 8.4 49.0 L 7.8 48.2 L 7.2 47.2 L 6.2 45.5 L 5.6 44.3 L 5.1 43.2 L 4.6 41.7 L 4.1 40.2 L 3.7 38.8 L 3.4 37.5 L 3.1 35.7 L 2.9 33.6 L 2.9 32.5 L 2.9 31.8 L 2.9 31.6 L 2.9 30.7 L 3.0 30.0 L 3.0 29.6 L 3.0 29.1 L 3.1 28.7 L 3.2 27.7 L 3.4 26.9 L 3.4 26.8 L 3.4 26.4 L 3.3 27.0 L 3.4 26.7 L 3.5 26.2 L 3.6 25.8 L 3.7 25.1 L 3.9 24.6 L 4.3 23.2 L 4.3 23.0 L 4.5 22.5 L 5.2 20.6 L 5.3 20.5 L 5.3 20.4 L 6.2 18.6 L 7.0 17.1 L 7.4 16.4 L 8.4 15.0 L 9.1 14.1 L 9.3 13.8 L 9.6 13.4 L 10.3 12.6 L 11.1 11.8 L 11.8 11.0 L 12.4 10.5 L 11.7 11.1 L 10.9 11.9 L 10.1 12.8 L 9.6 13.4 L 9.2 13.9 L 8.8 14.5 L 9.7 13.3 L 10.5 12.3 L 11.2 11.6 L 11.1 11.7 L 12.3 10.6 L 13.1 9.8 L 13.9 9.2 L 14.8 8.5 L 15.7 7.9 L 16.2 7.5 L 16.2 7.6 L 16.4 7.4 L 17.3 6.9 L 17.8 6.6 L 18.6 6.2 L 19.2 5.9 L 19.3 5.8 L 19.6 5.7 L 19.7 5.6 L 19.5 5.7 L 19.5 5.7 L 19.3 5.8 L 19.3 5.8 L 19.5 5.7 L 19.7 5.6 L 19.9 5.5 L 20.0 5.5 L 20.1 5.4 L 20.3 5.4 L 20.4 5.3 L 20.9 5.1 L 21.0 5.0 L 21.3 4.9 L 21.6 4.8 L 21.8 4.7 L 21.9 4.7 L 22.0 4.7 L 22.1 4.6 L 22.4 4.5 L 22.5 4.5 L 22.7 4.4 L 22.9 4.3 L 23.3 4.2 L 23.4 4.2 L 23.6 4.2 L 23.6 4.1 L 24.0 4.0 L 24.0 4.0 L 24.5 3.9 L 24.9 3.8 L 25.1 3.7 L 25.6 3.6 L 25.4 3.7 L 25.7 3.6 L 26.0 3.5 L 25.7 3.6 L 26.1 3.5 L 26.8 3.4 L 26.6 3.4 L 27.2 3.3 L 27.9 3.2 L 28.2 3.2 L 28.5 3.1 L 28.7 3.1 L 29.0 3.1 L 29.1 3.0 L 29.0 3.1 L 29.0 3.1 L 29.3 3.0 L 29.5 3.0 L 29.7 3.0 L 29.7 3.0 L 29.6 3.0 L 29.5 3.0 L 29.7 3.0 L 30.0 3.0 L 30.2 3.0 L 30.3 2.9 L 30.3 2.9 L 30.7 2.9 L 31.0 2.9 L 31.2 2.9 L 31.5 2.9 L 31.6 2.9 L 32.0 2.9 L 32.5 2.9 L 32.6 2.9 L 32.9 2.9 L 32.9 2.9 L 32.3 2.9 L 32.1 2.9 L 31.6 2.9 L 31.3 2.9 L 31.3 2.9 L 31.6 2.9 L 31.7 2.9 L 32.4 2.9 L 32.5 2.9 L 32.7 2.9 L 33.3 2.9 L 33.0 2.9 L 33.2 2.9 L 33.4 2.9 L 33.5 2.9 L 33.1 2.9 L 32.9 2.9 L 32.5 2.9 L 32.2 2.9 L 32.7 2.9 L 33.1 2.9 L 33.3 2.9 L 33.4 2.9 L 32.8 2.9 L 32.4 2.9 L 32.5 2.9 L 32.2 2.9 L 32.7 2.9 L 33.1 2.9 L 32.3 2.9 L 32.0 2.9 L 31.9 2.9 L 31.4 2.9 L 31.1 2.9 L 30.7 2.9 L 30.2 3.0 L 29.5 3.0 L 28.7 3.1 L 27.6 3.2 L 27.7 3.2 L 27.5 3.2 L 27.3 3.3 L 27.1 3.3 L 27.1 3.3 L 27.3 3.3 L 27.2 3.3 L 27.1 3.3 L 26.8 3.4 L 26.8 3.4 L 26.3 3.5 L 26.3 3.5 L 26.1 3.5 L 25.9 3.5 L 25.1 3.7 L 24.7 3.8 L 24.4 3.9 L 24.0 4.0 L 23.4 3.2 L 23.0 3.4 L 22.9 3.4 L 22.7 3.5 L 22.9 3.4 L 23.1 3.4 L 23.1 3.4 L 23.2 3.3 L 23.3 3.3 L 22.9 3.4 L 22.4 3.6 L 22.0 3.8 L 21.9 3.8 L 22.2 3.7 L 22.2 3.7 L 22.0 3.8 L 21.5 4.0 L 21.5 4.0 L 21.5 4.0 L 21.9 3.9 L 22.1 3.8 L 22.3 3.8 L 22.4 3.7 L 22.9 3.6 L 23.2 3.5 L 23.4 3.5 L 23.4 3.5 Z M 24.8 3.1 L 24.7 3.1 L 24.6 3.1 L 24.6 3.2 L 24.6 3.2 L 24.6 3.2 L 24.6 3.2 L 24.5 3.2 L 24.5 3.2 L 24.5 3.2 L 24.5 3.2 L 24.5 3.2 L 24.4 3.2 L 24.4 3.2 L 24.4 3.2 L 24.4 3.2 L 24.4 3.2 L 24.3 3.2 L 24.3 3.2 L 24.3 3.2 L 24.3 3.2 L 24.3 3.2 L 24.3 3.2 L 24.2 3.2 L 24.2 3.3 L 24.2 3.3 L 24.1 3.3 L 24.1 3.3 L 24.0 3.3 L 24.0 3.3 L 24.0 3.3 L 24.0 3.3 L 23.9 3.3 L 23.9 3.3 L 23.9 3.3 L 23.9 3.3 L 23.8 3.3 L 23.8 3.3 L 23.8 3.4 L 23.7 3.4 L 23.7 3.4 L 23.6 3.4 L 23.6 3.4 L 23.6 3.4 L 23.7 3.3 L 23.7 3.3 L 23.8 3.3 L 23.8 3.3 L 23.8 3.3 L 23.7 3.3 L 23.6 3.4 L 23.6 3.4 L 23.6 3.4 L 23.6 3.4 L 23.6 3.3 L 23.6 3.3 L 23.7 3.3 L 23.8 3.3 L 24.0 3.2 L 24.1 3.2 L 24.1 3.2 L 24.2 3.2 L 24.2 3.2 L 24.2 3.2 L 24.3 3.1 L 24.3 3.1 L 24.3 3.1 L 24.5 3.1 L 24.5 3.1 L 24.6 3.1 L 24.6 3.1 L 24.6 3.1 L 24.6 3.1 L 24.5 3.1 L 24.5 3.1 L 24.4 3.1 L 24.4 3.1 L 24.4 3.1 L 24.3 3.2 L 24.4 3.1 L 24.4 3.2 L 24.4 3.2 L 24.4 3.2 L 24.5 3.1 L 24.5 3.1 L 24.5 3.1 L 24.5 3.1 L 24.5 3.1 L 24.5 3.1 L 24.5 3.1 L 24.5 3.1 L 24.6 3.1 L 24.6 3.1 L 24.6 3.1 L 24.7 3.1 L 24.7 3.1 L 24.8 3.1 L 24.7 3.1 L 24.7 3.1 L 24.6 3.1 L 24.7 3.1 L 24.7 3.1 L 24.8 3.1 L 24.8 3.1 L 24.8 3.1 L 24.8 3.1 L 24.8 3.1 L 24.8 3.1 L 24.8 3.1 L 24.8 3.1 L 24.8 3.1 Z M 27.7 2.9 L 27.6 2.9 L 27.5 3.0 L 27.4 3.0 L 27.4 3.0 L 27.3 3.0 L 27.4 3.0 L 27.3 3.0 L 27.3 3.0 L 27.3 3.0 L 27.3 3.0 L 27.3 3.0 L 27.2 3.0 L 27.2 3.0 L 27.1 3.0 L 27.1 3.0 L 27.2 3.0 L 27.2 3.0 L 27.3 3.0 L 27.3 3.0 L 27.2 3.0 L 27.2 3.0 L 27.1 3.0 L 27.1 3.0 L 27.1 3.0 L 27.0 3.1 L 27.0 3.1 L 26.9 3.1 L 26.8 3.1 L 26.8 3.1 L 26.8 3.1 L 26.8 3.1 L 26.8 3.1 L 26.7 3.1 L 26.8 3.1 L 26.8 3.1 L 26.7 3.1 L 26.6 3.1 L 26.6 3.2 L 26.5 3.1 L 26.5 3.1 L 26.5 3.1 L 26.5 3.1 L 26.4 3.1 L 26.4 3.1 L 26.4 3.1 L 26.5 3.1 L 26.5 3.1 L 26.6 3.1 L 26.6 3.1 L 26.5 3.1 L 26.4 3.1 L 26.4 3.1 L 26.4 3.1 L 26.4 3.1 L 26.3 3.1 L 26.3 3.1 L 26.4 3.1 L 26.4 3.1 L 26.3 3.1 L 26.3 3.1 L 26.2 3.1 L 26.2 3.1 L 26.3 3.1 L 26.4 3.1 L 26.4 3.1 L 26.4 3.1 L 26.3 3.1 L 26.2 3.1 L 26.2 3.1 L 26.2 3.1 L 26.3 3.1 L 26.3 3.1 L 26.3 3.1 L 26.3 3.1 L 26.3 3.1 L 26.2 3.1 L 26.2 3.1 L 26.3 3.0 L 26.4 3.0 L 26.5 3.0 L 26.5 3.0 L 26.5 3.0 L 26.5 3.0 L 26.6 3.0 L 26.6 3.0 L 26.6 3.0 L 26.6 3.0 L 26.7 3.0 L 26.7 3.0 L 26.8 2.9 L 26.8 3.0 L 26.8 3.0 L 26.8 3.0 L 26.8 3.0 L 26.8 3.0 L 26.9 3.0 L 26.9 3.0 L 26.9 3.0 L 26.9 2.9 L 26.9 2.9 L 26.9 2.9 L 26.9 2.9 L 27.0 2.9 L 27.0 2.9 L 27.0 2.9 L 27.0 2.9 L 27.0 2.9 L 27.1 2.9 L 27.1 2.9 L 27.1 2.9 L 27.1 2.9 L 27.1 2.9 L 27.2 2.9 L 27.3 2.9 L 27.3 2.9 L 27.4 2.9 L 27.3 2.9 L 27.3 2.9 L 27.3 2.9 L 27.3 2.9 L 27.3 2.9 L 27.3 2.9 L 27.4 2.9 L 27.4 2.9 L 27.5 2.9 L 27.5 2.9 L 27.5 2.9 L 27.5 2.9 L 27.5 2.9 L 27.5 2.9 L 27.6 2.9 L 27.6 2.9 L 27.6 2.9 L 27.5 2.9 L 27.5 2.9 L 27.5 2.9 L 27.6 2.9 L 27.7 2.9 L 27.7 2.9 L 27.8 2.9 L 27.7 2.9 L 27.7 2.9 L 27.7 2.9 L 27.8 2.9 L 27.8 2.9 L 27.8 2.9 L 27.8 2.9 L 27.9 2.9 L 27.9 2.9 L 27.9 2.9 L 27.8 2.9 L 27.8 2.9 L 27.7 2.9 L 27.7 2.9 Z M 25.8 3.1 L 25.8 3.1 L 25.8 3.1 L 25.7 3.1 L 25.7 3.1 L 25.6 3.1 L 25.6 3.1 L 25.6 3.1 L 25.6 3.1 L 25.6 3.1 L 25.6 3.1 L 25.6 3.1 L 25.5 3.2 L 25.5 3.2 L 25.4 3.2 L 25.4 3.2 L 25.5 3.2 L 25.5 3.2 L 25.5 3.2 L 25.3 3.2 L 25.3 3.2 L 25.2 3.2 L 25.3 3.2 L 25.3 3.2 L 25.3 3.2 L 25.2 3.2 L 25.2 3.2 L 25.2 3.2 L 25.1 3.3 L 25.1 3.3 L 25.0 3.3 L 25.0 3.3 L 25.0 3.3 L 24.9 3.3 L 24.9 3.3 L 24.9 3.3 L 24.9 3.3 L 25.0 3.3 L 25.0 3.3 L 24.9 3.3 L 24.9 3.3 L 24.8 3.4 L 24.9 3.4 L 24.8 3.4 L 24.8 3.4 L 24.7 3.4 L 24.8 3.4 L 24.8 3.4 L 24.8 3.4 L 24.8 3.4 L 24.9 3.4 L 24.9 3.5 L 24.8 3.5 L 24.8 3.5 L 24.8 3.5 L 24.7 3.5 L 24.7 3.6 L 24.7 3.6 L 24.7 3.6 L 24.6 3.6 L 24.6 3.6 L 24.6 3.6 L 24.6 3.6 L 24.5 3.6 L 24.4 3.7 L 24.4 3.6 L 24.4 3.7 L 24.3 3.7 L 24.4 3.7 L 24.3 3.7 L 24.3 3.7 L 24.3 3.7 L 24.3 3.7 L 24.3 3.7 L 24.2 3.7 L 24.2 3.7 L 24.2 3.7 L 24.2 3.7 L 24.1 3.7 L 24.1 3.6 L 24.2 3.6 L 24.2 3.6 L 24.2 3.6 L 24.3 3.6 L 24.3 3.6 L 24.3 3.6 L 24.4 3.6 L 24.4 3.5 L 24.4 3.6 L 24.3 3.6 L 24.3 3.6 L 24.2 3.6 L 24.2 3.6 L 24.3 3.5 L 24.3 3.5 L 24.3 3.5 L 24.3 3.5 L 24.3 3.5 L 24.3 3.5 L 24.3 3.5 L 24.3 3.5 L 24.3 3.5 L 24.3 3.5 L 24.3 3.5 L 24.3 3.5 L 24.3 3.5 L 24.4 3.4 L 24.4 3.4 L 24.4 3.4 L 24.5 3.4 L 24.5 3.4 L 24.6 3.4 L 24.5 3.4 L 24.5 3.4 L 24.5 3.4 L 24.6 3.4 L 24.5 3.4 L 24.5 3.4 L 24.5 3.4 L 24.5 3.4 L 24.5 3.4 L 24.5 3.4 L 24.5 3.3 L 24.6 3.3 L 24.6 3.3 L 24.7 3.3 L 24.6 3.3 L 24.6 3.3 L 24.6 3.3 L 24.6 3.3 L 24.7 3.3 L 24.8 3.2 L 24.9 3.2 L 24.9 3.2 L 24.9 3.2 L 25.0 3.2 L 25.0 3.2 L 25.1 3.2 L 25.1 3.2 L 25.2 3.2 L 25.2 3.2 L 25.4 3.1 L 25.5 3.1 L 25.5 3.1 L 25.5 3.1 L 25.5 3.1 L 25.5 3.1 L 25.5 3.1 L 25.6 3.1 L 25.7 3.0 L 25.7 3.0 L 25.7 3.0 L 25.7 3.0 L 25.8 3.0 L 25.9 3.0 L 25.9 3.0 L 25.9 3.0 L 25.9 3.0 L 25.9 3.0 L 25.9 3.0 L 26.0 3.0 L 26.0 3.0 L 26.0 3.0 L 26.0 3.0 L 25.9 3.0 L 25.8 3.1 L 25.8 3.1 Z M 26.3 2.7 L 26.3 2.7 L 26.3 2.7 L 26.2 2.7 L 26.2 2.7 L 26.2 2.7 L 26.2 2.7 L 26.2 2.7 L 26.2 2.8 L 26.2 2.8 L 26.1 2.8 L 26.1 2.8 L 26.1 2.8 L 26.1 2.8 L 26.1 2.8 L 26.2 2.8 L 26.2 2.8 L 26.2 2.8 L 26.1 2.8 L 26.1 2.8 L 26.0 2.8 L 25.9 2.8 L 25.9 2.8 L 25.8 2.8 L 25.8 2.8 L 25.8 2.8 L 25.8 2.8 L 25.9 2.8 L 25.9 2.8 L 25.9 2.8 L 25.9 2.8 L 26.0 2.8 L 26.0 2.7 L 26.0 2.7 L 26.0 2.7 L 26.0 2.7 L 26.0 2.7 L 26.1 2.7 L 26.2 2.7 L 26.2 2.6 L 26.3 2.6 L 26.3 2.6 L 26.3 2.6 L 26.3 2.6 L 26.3 2.7 L 26.2 2.7 L 26.2 2.7 L 26.2 2.7 L 26.2 2.7 L 26.3 2.7 L 26.3 2.7 L 26.3 2.7 L 26.3 2.6 L 26.4 2.6 L 26.4 2.6 L 26.4 2.6 L 26.4 2.6 L 26.4 2.6 L 26.5 2.6 L 26.5 2.6 L 26.5 2.6 L 26.5 2.6 L 26.5 2.6 L 26.6 2.6 L 26.6 2.6 L 26.5 2.6 L 26.5 2.6 L 26.6 2.6 L 26.6 2.6 L 26.5 2.6 L 26.5 2.6 L 26.5 2.6 L 26.5 2.6 L 26.6 2.6 L 26.6 2.6 L 26.6 2.6 L 26.6 2.6 L 26.6 2.6 L 26.7 2.5 L 26.8 2.5 L 26.9 2.5 L 26.9 2.5 L 26.9 2.5 L 26.9 2.5 L 26.9 2.5 L 26.8 2.5 L 26.8 2.6 L 26.8 2.6 L 26.8 2.5 L 26.9 2.5 L 26.9 2.5 L 27.0 2.5 L 26.9 2.5 L 26.9 2.5 L 26.8 2.6 L 26.9 2.5 L 27.0 2.5 L 27.0 2.5 L 27.0 2.5 L 27.1 2.5 L 27.0 2.5 L 26.9 2.6 L 26.9 2.6 L 27.0 2.5 L 27.0 2.5 L 27.1 2.5 L 27.1 2.5 L 27.0 2.5 L 27.0 2.6 L 26.9 2.6 L 26.9 2.6 L 26.9 2.6 L 26.8 2.6 L 26.8 2.6 L 26.7 2.6 L 26.6 2.6 L 26.6 2.6 L 26.5 2.6 L 26.5 2.6 L 26.5 2.6 L 26.4 2.7 L 26.4 2.7 L 26.3 2.7 L 26.3 2.7 L 26.2 2.7 L 26.2 2.7 L 26.2 2.7 L 26.4 2.7 L 26.4 2.7 L 26.4 2.7 L 26.5 2.7 L 26.5 2.7 L 26.6 2.7 L 26.6 2.7 L 26.6 2.7 L 26.6 2.7 L 26.7 2.7 L 26.7 2.7 L 26.6 2.7 L 26.6 2.7 L 26.6 2.7 L 26.6 2.7 L 26.5 2.7 L 26.5 2.7 L 26.5 2.7 L 26.4 2.7 L 26.4 2.7 L 26.3 2.7 L 26.3 2.7 L 26.3 2.7 Z M 25.6 2.7 L 25.6 2.7 L 25.6 2.7 L 25.5 2.7 L 25.5 2.7 L 25.5 2.7 L 25.6 2.7 L 25.6 2.7 L 25.6 2.7 L 25.4 2.8 L 25.3 2.8 L 25.3 2.8 L 25.2 2.8 L 25.2 2.8 L 25.2 2.8 L 25.2 2.8 L 25.2 2.8 L 25.2 2.8 L 25.2 2.8 L 25.2 2.8 L 25.2 2.8 L 25.2 2.8 L 25.2 2.8 L 25.2 2.8 L 25.3 2.8 L 25.3 2.8 L 25.3 2.8 L 25.2 2.9 L 25.1 2.9 L 25.1 2.9 L 25.0 2.9 L 25.0 2.9 L 25.0 2.9 L 24.9 2.9 L 24.8 2.9 L 24.6 3.0 L 24.6 3.0 L 24.5 3.0 L 24.5 3.0 L 24.6 3.0 L 24.6 3.0 L 24.6 3.0 L 24.6 3.0 L 24.7 3.0 L 24.8 2.9 L 24.9 2.9 L 24.9 2.9 L 24.9 2.9 L 25.2 2.9 L 25.2 2.9 L 25.2 2.9 L 25.2 2.9 L 25.2 2.9 L 25.2 2.9 L 25.1 2.9 L 25.1 2.9 L 25.1 2.9 L 24.9 2.9 L 24.8 3.0 L 24.8 3.0 L 24.7 3.0 L 24.7 3.0 L 24.7 3.0 L 24.6 3.0 L 24.3 3.1 L 24.2 3.1 L 24.1 3.1 L 24.1 3.1 L 24.1 3.1 L 24.1 3.1 L 24.0 3.2 L 23.9 3.2 L 23.8 3.2 L 23.7 3.3 L 23.6 3.3 L 23.6 3.3 L 23.6 3.3 L 23.7 3.3 L 23.6 3.3 L 23.5 3.3 L 23.4 3.3 L 23.4 3.3 L 23.4 3.4 L 23.3 3.4 L 23.3 3.4 L 23.3 3.4 L 23.1 3.4 L 23.1 3.4 L 23.1 3.4 L 23.1 3.4 L 23.2 3.4 L 23.2 3.4 L 23.1 3.4 L 23.1 3.4 L 23.2 3.4 L 23.3 3.4 L 23.2 3.4 L 23.2 3.4 L 23.2 3.4 L 23.2 3.4 L 23.2 3.4 L 23.2 3.4 L 23.3 3.3 L 23.3 3.3 L 23.2 3.4 L 23.2 3.4 L 23.2 3.4 L 23.1 3.4 L 23.1 3.4 L 23.1 3.4 L 23.1 3.4 L 23.1 3.4 L 23.1 3.4 L 23.0 3.4 L 23.0 3.4 L 23.0 3.4 L 23.0 3.4 L 23.0 3.5 L 22.9 3.5 L 22.9 3.5 L 22.9 3.5 L 22.9 3.5 L 22.9 3.4 L 23.0 3.4 L 23.1 3.4 L 23.1 3.4 L 23.2 3.3 L 23.2 3.3 L 23.2 3.3 L 23.3 3.3 L 23.4 3.3 L 23.4 3.3 L 23.4 3.3 L 23.5 3.3 L 23.5 3.3 L 23.5 3.2 L 23.5 3.2 L 23.5 3.3 L 23.5 3.3 L 23.5 3.2 L 23.5 3.2 L 23.6 3.2 L 23.7 3.2 L 23.7 3.2 L 23.8 3.2 L 23.9 3.1 L 24.2 4.0 L 24.2 4.0 L 24.3 3.9 L 24.2 3.0 L 24.2 3.0 L 24.3 3.0 L 24.4 3.0 L 24.7 3.8 L 24.8 3.8 L 25.0 3.8 L 25.0 3.8 L 25.0 3.7 L 25.2 3.7 L 25.2 3.7 L 25.0 2.8 L 25.1 2.8 L 24.9 2.9 L 24.7 2.9 L 24.7 2.9 L 24.5 3.0 L 24.5 3.0 L 24.4 3.0 L 24.4 3.0 L 24.6 3.0 L 24.8 2.9 L 24.9 2.9 L 24.9 2.9 L 24.9 2.8 L 25.1 2.8 L 25.1 2.8 L 25.2 2.8 L 25.5 2.7 L 25.5 2.7 L 25.5 2.7 L 25.4 2.7 L 25.4 2.7 L 25.3 2.8 L 25.3 2.8 L 25.4 2.7 L 25.4 2.8 L 25.3 2.8 L 25.3 2.8 L 25.5 2.7 L 25.6 2.7 L 25.6 2.7 L 25.6 2.7 L 25.6 2.7 L 25.7 2.7 L 25.8 2.7 L 25.8 2.6 L 25.9 2.6 L 25.9 2.6 L 25.9 2.6 L 25.9 2.6 L 25.9 2.6 L 26.0 2.6 L 26.0 2.6 L 26.0 2.6 L 26.0 2.6 L 26.0 2.6 L 25.9 2.7 L 25.8 2.7 L 25.8 2.7 L 25.7 2.7 L 25.7 2.7 L 25.7 2.7 L 25.6 2.7 L 25.6 2.7 L 25.6 2.7 Z M 13.9 10.5 L 13.9 10.6 L 13.8 10.6 L 13.8 10.5 L 13.8 10.6 L 13.8 10.6 L 13.8 10.6 L 13.8 10.6 L 13.7 10.6 L 13.7 10.7 L 13.6 10.7 L 13.6 10.7 L 13.5 10.8 L 13.4 10.8 L 13.4 10.9 L 13.3 10.9 L 13.2 11.0 L 13.2 11.0 L 13.1 11.0 L 13.1 11.0 L 13.1 11.1 L 13.1 11.1 L 13.2 11.0 L 13.2 11.0 L 13.3 11.0 L 13.3 11.0 L 13.3 11.0 L 13.3 11.0 L 13.3 11.0 L 13.3 11.0 L 13.3 11.0 L 13.3 11.1 L 13.2 11.1 L 13.1 11.1 L 13.2 11.1 L 13.2 11.1 L 13.2 11.1 L 13.1 11.2 L 13.1 11.2 L 13.1 11.2 L 13.1 11.2 L 13.1 11.3 L 13.1 11.3 L 13.2 11.2 L 13.2 11.2 L 13.1 11.3 L 13.1 11.3 L 13.0 11.4 L 13.0 11.4 L 13.0 11.4 L 13.0 11.4 L 13.1 11.3 L 13.1 11.3 L 13.1 11.4 L 13.1 11.3 L 13.2 11.3 L 13.2 11.3 L 13.2 11.3 L 13.2 11.4 L 13.2 11.4 L 13.2 11.4 L 13.2 11.4 L 13.3 11.4 L 13.2 11.5 L 13.2 11.5 L 13.1 11.5 L 13.1 11.6 L 13.1 11.6 L 13.0 11.6 L 13.0 11.6 L 13.0 11.6 L 13.0 11.6 L 13.0 11.6 L 13.0 11.7 L 13.0 11.7 L 12.9 11.7 L 12.9 11.7 L 12.8 11.7 L 12.9 11.7 L 12.9 11.7 L 12.9 11.8 L 13.0 11.7 L 13.0 11.8 L 13.0 11.7 L 13.0 11.7 L 13.0 11.8 L 12.9 11.8 L 12.9 11.8 L 12.9 11.8 L 12.8 11.9 L 12.8 11.9 L 12.8 11.9 L 12.8 11.9 L 12.7 11.9 L 12.7 11.9 L 12.7 11.9 L 12.6 12.0 L 12.6 12.0 L 12.6 12.0 L 12.6 12.1 L 12.8 12.0 L 12.9 11.9 L 12.9 12.0 L 12.8 12.0 L 12.7 12.0 L 12.7 12.1 L 12.6 12.2 L 12.6 12.2 L 12.7 12.1 L 12.7 12.1 L 12.7 12.1 L 12.7 12.2 L 12.6 12.2 L 12.5 12.3 L 12.5 12.4 L 12.4 12.4 L 12.3 12.5 L 12.3 12.5 L 12.3 12.4 L 12.3 12.4 L 12.2 12.4 L 12.2 12.4 L 12.3 12.3 L 12.4 12.3 L 12.4 12.3 L 12.4 12.2 L 12.4 12.3 L 12.3 12.3 L 12.3 12.3 L 12.3 12.3 L 12.3 12.3 L 12.4 12.2 L 12.5 12.1 L 12.5 12.1 L 12.6 12.0 L 12.6 11.9 L 12.6 12.0 L 12.5 12.1 L 12.4 12.1 L 12.4 12.1 L 12.5 12.0 L 12.4 12.1 L 12.4 12.0 L 12.3 12.1 L 12.2 12.1 L 12.2 12.2 L 12.2 12.2 L 12.1 12.2 L 12.1 12.1 L 12.1 12.1 L 12.1 12.1 L 12.2 12.1 L 12.2 12.1 L 12.3 12.1 L 12.4 12.0 L 12.5 12.0 L 12.5 12.0 L 12.5 12.0 L 12.5 11.9 L 12.4 11.9 L 12.4 11.9 L 12.4 12.0 L 12.4 12.0 L 12.4 11.9 L 12.3 11.9 L 12.3 11.9 L 12.5 11.8 L 12.5 11.8 L 12.4 11.8 L 12.4 11.8 L 12.4 11.8 L 12.3 11.8 L 12.3 11.8 L 12.3 11.7 L 12.2 11.7 L 12.2 11.6 L 12.2 11.6 L 12.2 11.6 L 12.2 11.6 L 12.1 11.6 L 12.1 11.6 L 12.2 11.5 L 12.2 11.5 L 12.4 11.4 L 12.5 11.3 L 12.5 11.3 L 12.5 11.3 L 12.5 11.3 L 12.5 11.3 L 12.5 11.2 L 12.6 11.2 L 12.6 11.2 L 12.5 11.3 L 12.6 11.3 L 12.7 11.2 L 12.8 11.1 L 12.8 11.1 L 12.7 11.2 L 12.7 11.2 L 12.8 11.2 L 12.8 11.1 L 12.8 11.1 L 12.8 11.1 L 12.9 11.0 L 12.9 11.0 L 13.0 11.0 L 13.0 11.0 L 13.0 11.0 L 13.0 10.9 L 13.2 10.8 L 13.4 10.7 L 13.4 10.7 L 13.4 10.7 L 13.5 10.7 L 13.5 10.7 L 13.5 10.6 L 13.6 10.6 L 13.6 10.6 L 13.6 10.6 L 13.7 10.5 L 13.8 10.5 L 13.8 10.5 L 13.9 10.5 L 13.9 10.5 L 13.9 10.5 L 13.9 10.5 L 14.0 10.5 L 13.9 10.5 L 13.9 10.5 Z M 29.4 3.8 L 29.4 3.8 L 29.5 3.9 L 29.4 3.9 L 29.2 3.8 L 29.1 3.8 L 29.2 3.8 L 29.3 3.9 L 29.5 3.9 L 29.4 3.9 L 29.4 4.0 L 29.5 4.0 L 29.4 4.0 L 29.3 4.0 L 28.9 4.0 L 28.8 4.0 L 28.9 4.0 L 29.0 4.1 L 29.0 4.1 L 29.1 4.1 L 29.2 4.1 L 29.3 4.1 L 29.2 4.1 L 29.1 4.2 L 29.0 4.2 L 28.8 4.3 L 28.7 4.3 L 28.8 4.3 L 29.0 4.3 L 29.0 4.2 L 29.2 4.2 L 29.2 4.2 L 29.3 4.3 L 29.3 4.3 L 29.4 4.2 L 29.5 4.2 L 29.5 4.2 L 29.6 4.3 L 29.7 4.3 L 29.7 4.3 L 29.5 4.4 L 29.4 4.4 L 29.3 4.4 L 29.3 4.4 L 29.2 4.4 L 29.1 4.4 L 29.1 4.5 L 29.0 4.5 L 28.9 4.5 L 28.9 4.5 L 28.8 4.5 L 28.8 4.5 L 28.6 4.5 L 28.6 4.5 L 28.6 4.5 L 28.6 4.6 L 28.6 4.6 L 28.5 4.6 L 28.5 4.6 L 28.5 4.7 L 28.4 4.7 L 28.3 4.7 L 28.3 4.7 L 28.2 4.7 L 28.1 4.7 L 28.0 4.8 L 27.9 4.9 L 27.8 4.9 L 27.8 4.9 L 27.9 4.9 L 27.9 4.9 L 27.9 5.0 L 27.9 5.0 L 27.8 5.0 L 27.8 5.0 L 27.8 5.1 L 27.9 5.1 L 27.9 5.1 L 27.8 5.2 L 27.7 5.2 L 27.7 5.2 L 27.6 5.1 L 27.5 5.1 L 27.4 5.1 L 27.4 5.1 L 27.3 5.1 L 27.3 5.1 L 27.3 5.2 L 27.3 5.2 L 27.4 5.2 L 27.4 5.3 L 27.3 5.3 L 27.3 5.4 L 27.3 5.4 L 27.2 5.5 L 27.1 5.5 L 27.1 5.5 L 27.1 5.5 L 26.9 5.5 L 26.8 5.5 L 26.8 5.5 L 26.8 5.5 L 26.9 5.5 L 26.9 5.5 L 26.8 5.6 L 26.8 5.6 L 26.9 5.6 L 27.0 5.6 L 26.9 5.7 L 26.9 5.7 L 26.8 5.7 L 26.8 5.7 L 26.7 5.7 L 26.6 5.7 L 26.7 5.6 L 26.6 5.6 L 26.5 5.7 L 26.5 5.7 L 26.5 5.7 L 26.4 5.7 L 26.6 5.8 L 26.5 5.9 L 26.4 5.9 L 26.2 5.9 L 26.1 5.8 L 26.1 5.8 L 26.0 5.8 L 26.0 5.7 L 26.0 5.7 L 26.0 5.8 L 26.0 5.8 L 25.8 5.8 L 25.8 5.8 L 25.7 5.7 L 25.7 5.8 L 25.7 5.8 L 25.6 5.8 L 25.6 5.8 L 25.6 5.8 L 25.7 5.8 L 25.8 5.8 L 25.9 5.8 L 26.1 5.8 L 26.1 5.9 L 26.1 6.0 L 26.0 6.0 L 25.9 6.1 L 25.8 6.2 L 25.7 6.1 L 25.8 6.0 L 25.8 5.9 L 25.7 5.9 L 25.6 5.9 L 25.5 5.9 L 25.7 5.9 L 25.8 5.9 L 25.8 5.9 L 25.6 6.0 L 25.6 6.0 L 25.6 6.0 L 25.7 6.1 L 25.7 6.2 L 25.7 6.2 L 25.7 6.3 L 25.6 6.3 L 25.5 6.4 L 25.6 6.4 L 25.6 6.3 L 25.6 6.4 L 25.5 6.5 L 25.4 6.6 L 25.3 6.6 L 25.3 6.6 L 25.4 6.5 L 25.3 6.5 L 25.2 6.6 L 25.1 6.5 L 25.2 6.4 L 25.2 6.3 L 25.2 6.3 L 25.2 6.2 L 25.1 6.2 L 25.0 6.2 L 25.1 6.2 L 25.1 6.3 L 25.0 6.3 L 24.9 6.3 L 24.8 6.3 L 24.7 6.3 L 24.7 6.3 L 24.6 6.4 L 24.5 6.4 L 24.4 6.4 L 24.5 6.4 L 24.7 6.5 L 24.7 6.5 L 24.6 6.5 L 24.5 6.5 L 24.5 6.6 L 24.6 6.5 L 24.8 6.5 L 24.9 6.6 L 25.1 6.7 L 25.1 6.7 L 25.0 6.7 L 25.0 6.7 L 24.9 6.8 L 24.8 6.8 L 24.8 6.8 L 24.7 6.8 L 24.7 6.8 L 24.6 6.8 L 24.5 6.8 L 24.5 6.9 L 24.3 6.9 L 24.3 6.9 L 24.2 6.9 L 24.1 7.0 L 24.0 6.9 L 23.8 6.9 L 23.6 6.9 L 23.5 6.9 L 23.5 6.9 L 23.4 6.9 L 23.4 6.9 L 23.3 6.9 L 23.3 6.8 L 23.2 6.8 L 23.2 6.9 L 23.2 6.9 L 23.1 6.9 L 23.0 6.9 L 22.9 7.0 L 22.8 7.0 L 22.7 7.0 L 22.6 7.1 L 22.4 7.2 L 22.3 7.2 L 22.2 7.2 L 22.1 7.3 L 22.1 7.2 L 22.1 7.2 L 22.0 7.2 L 21.9 7.3 L 21.8 7.3 L 21.8 7.3 L 21.7 7.3 L 21.7 7.3 L 21.7 7.3 L 21.6 7.3 L 21.5 7.3 L 21.5 7.3 L 21.6 7.2 L 21.9 7.2 L 21.8 7.1 L 21.8 7.1 L 21.7 7.2 L 21.6 7.2 L 21.6 7.2 L 21.4 7.3 L 21.3 7.2 L 21.2 7.3 L 21.2 7.3 L 21.0 7.4 L 20.9 7.3 L 20.9 7.4 L 20.9 7.4 L 20.8 7.5 L 20.7 7.5 L 20.6 7.6 L 20.6 7.5 L 20.5 7.6 L 20.6 7.6 L 20.4 7.7 L 20.3 7.7 L 20.2 7.8 L 20.2 7.8 L 20.1 7.8 L 20.0 7.8 L 20.0 7.8 L 20.0 7.9 L 19.9 7.9 L 19.8 7.9 L 19.8 7.9 L 19.8 7.9 L 19.8 8.0 L 19.7 8.0 L 19.6 8.1 L 19.5 8.2 L 19.4 8.2 L 19.4 8.2 L 19.1 8.4 L 18.8 8.5 L 18.8 8.5 L 18.8 8.4 L 18.8 8.5 L 18.8 8.6 L 18.6 8.6 L 18.5 8.6 L 18.5 8.6 L 18.5 8.7 L 18.4 8.7 L 18.5 8.6 L 18.4 8.6 L 18.5 8.6 L 18.6 8.5 L 18.5 8.6 L 18.4 8.5 L 18.5 8.4 L 18.6 8.4 L 18.6 8.4 L 18.6 8.4 L 18.5 8.3 L 18.6 8.2 L 18.8 8.2 L 18.8 8.1 L 18.8 8.2 L 18.6 8.2 L 18.5 8.2 L 18.5 8.2 L 18.5 8.1 L 18.4 8.2 L 18.4 8.1 L 18.4 8.1 L 18.5 8.1 L 18.5 8.0 L 18.6 8.0 L 18.6 8.0 L 18.6 7.9 L 18.6 7.8 L 18.7 7.8 L 18.8 7.7 L 18.8 7.7 L 18.9 7.7 L 18.9 7.7 L 18.8 7.7 L 18.9 7.6 L 18.9 7.6 L 18.9 7.5 L 19.0 7.5 L 19.1 7.4 L 19.2 7.4 L 19.1 7.4 L 19.1 7.4 L 19.2 7.3 L 19.3 7.2 L 19.5 7.1 L 19.6 7.0 L 19.7 7.1 L 19.7 7.0 L 19.7 7.0 L 19.6 7.0 L 19.6 7.0 L 19.6 7.0 L 19.7 6.9 L 19.8 6.9 L 19.9 6.9 L 19.9 6.9 L 19.8 7.0 L 19.9 6.9 L 19.9 6.9 L 20.0 6.8 L 20.1 6.8 L 20.0 6.8 L 19.9 6.9 L 19.8 6.9 L 19.9 6.9 L 19.8 6.9 L 19.6 7.0 L 19.6 6.9 L 19.8 6.8 L 20.0 6.7 L 20.0 6.7 L 20.1 6.6 L 20.3 6.6 L 20.3 6.6 L 20.3 6.6 L 20.2 6.6 L 20.1 6.6 L 20.1 6.5 L 20.3 6.5 L 20.3 6.4 L 20.4 6.4 L 20.6 6.4 L 20.7 6.4 L 20.8 6.4 L 20.8 6.3 L 20.7 6.3 L 20.5 6.4 L 20.4 6.4 L 20.4 6.4 L 20.5 6.3 L 20.6 6.3 L 20.7 6.3 L 20.8 6.3 L 20.8 6.3 L 20.7 6.2 L 20.7 6.2 L 20.9 6.1 L 21.0 6.1 L 21.2 6.1 L 21.2 6.1 L 21.2 6.2 L 21.2 6.2 L 21.3 6.1 L 21.3 6.1 L 21.2 6.1 L 21.2 6.0 L 21.1 6.0 L 21.0 6.0 L 21.1 6.0 L 21.3 5.9 L 21.4 5.9 L 21.4 6.0 L 21.4 6.0 L 21.4 6.0 L 21.5 6.0 L 21.5 6.0 L 21.5 6.0 L 21.4 6.0 L 21.4 5.9 L 21.4 5.9 L 21.5 5.8 L 21.6 5.9 L 21.6 5.9 L 21.7 5.9 L 21.7 5.9 L 21.8 5.9 L 21.9 5.8 L 22.0 5.8 L 22.0 5.8 L 22.0 5.8 L 22.1 5.7 L 22.2 5.7 L 22.3 5.7 L 22.3 5.7 L 22.3 5.6 L 22.3 5.6 L 22.3 5.6 L 22.3 5.6 L 22.3 5.5 L 22.3 5.4 L 22.4 5.3 L 22.5 5.3 L 22.5 5.4 L 22.5 5.4 L 22.5 5.4 L 22.5 5.5 L 22.5 5.6 L 22.5 5.5 L 22.6 5.5 L 22.7 5.4 L 22.7 5.4 L 22.7 5.4 L 22.8 5.4 L 22.8 5.4 L 22.8 5.3 L 22.8 5.3 L 22.8 5.3 L 22.9 5.3 L 23.0 5.3 L 23.0 5.3 L 23.0 5.2 L 22.9 5.2 L 22.9 5.2 L 23.0 5.2 L 23.0 5.2 L 23.1 5.1 L 23.2 5.1 L 23.3 5.0 L 23.3 5.0 L 23.2 5.1 L 23.1 5.1 L 23.1 5.1 L 23.0 5.2 L 22.9 5.2 L 22.9 5.2 L 22.8 5.2 L 22.8 5.2 L 22.8 5.2 L 22.8 5.1 L 22.9 5.1 L 23.2 5.0 L 23.2 5.0 L 23.1 5.0 L 23.2 5.0 L 23.2 5.0 L 23.3 4.9 L 23.3 5.0 L 23.4 4.9 L 23.5 4.9 L 23.5 4.9 L 23.5 4.9 L 23.5 4.9 L 23.5 4.8 L 23.6 4.8 L 23.7 4.8 L 23.7 4.8 L 23.7 4.8 L 23.8 4.7 L 23.8 4.7 L 23.9 4.7 L 23.9 4.7 L 24.0 4.7 L 24.0 4.6 L 24.0 4.6 L 24.0 4.6 L 24.1 4.6 L 24.1 4.6 L 24.2 4.6 L 24.3 4.5 L 24.3 4.5 L 24.4 4.5 L 24.5 4.4 L 24.5 4.4 L 24.6 4.3 L 24.7 4.3 L 24.8 4.3 L 24.8 4.2 L 24.9 4.1 L 24.9 4.1 L 24.9 4.1 L 25.0 4.1 L 24.9 4.1 L 24.9 4.0 L 24.9 4.0 L 24.8 4.0 L 24.8 4.0 L 24.9 4.0 L 24.8 4.0 L 24.8 4.0 L 24.9 4.0 L 24.7 4.0 L 24.8 3.9 L 24.9 3.9 L 24.9 3.9 L 25.0 3.9 L 25.1 3.9 L 25.1 3.8 L 25.1 3.8 L 25.2 3.8 L 25.2 3.8 L 25.2 3.8 L 25.2 3.8 L 25.3 3.7 L 25.3 3.7 L 25.4 3.7 L 25.4 3.8 L 25.4 3.8 L 25.4 3.8 L 25.5 3.8 L 25.6 3.8 L 25.6 3.8 L 25.5 3.8 L 25.5 3.8 L 25.5 3.7 L 25.5 3.7 L 25.5 3.7 L 25.6 3.7 L 25.7 3.7 L 25.7 3.7 L 25.7 3.6 L 25.7 3.6 L 25.7 3.6 L 25.8 3.6 L 25.9 3.6 L 26.0 3.5 L 26.0 3.5 L 26.1 3.6 L 26.1 3.6 L 26.2 3.6 L 26.2 3.6 L 26.3 3.6 L 26.3 3.6 L 26.4 3.6 L 26.4 3.6 L 26.5 3.6 L 26.7 3.6 L 26.8 3.6 L 26.9 3.6 L 26.9 3.6 L 26.9 3.6 L 26.8 3.6 L 26.8 3.5 L 26.8 3.5 L 26.9 3.5 L 27.0 3.5 L 27.1 3.5 L 27.2 3.5 L 27.3 3.5 L 27.4 3.5 L 27.3 3.5 L 27.4 3.5 L 27.5 3.5 L 27.4 3.5 L 27.4 3.5 L 27.5 3.5 L 27.7 3.5 L 27.8 3.5 L 27.9 3.5 L 27.8 3.5 L 27.7 3.6 L 27.6 3.6 L 27.6 3.6 L 27.7 3.6 L 27.8 3.5 L 27.9 3.5 L 28.1 3.5 L 28.1 3.5 L 28.2 3.6 L 28.1 3.6 L 27.9 3.6 L 27.8 3.6 L 27.9 3.6 L 28.1 3.6 L 28.2 3.6 L 28.0 3.7 L 28.0 3.7 L 28.1 3.7 L 28.3 3.6 L 28.3 3.6 L 28.1 3.8 L 28.1 3.8 L 28.2 3.8 L 28.4 3.7 L 28.5 3.7 L 28.6 3.7 L 28.6 3.7 L 28.6 3.7 L 28.7 3.7 L 28.6 3.7 L 28.6 3.6 L 28.7 3.6 L 28.7 3.6 L 28.9 3.6 L 28.9 3.7 L 28.8 3.7 L 28.9 3.7 L 29.0 3.7 L 28.9 3.7 L 28.9 3.7 L 29.0 3.7 L 29.0 3.7 L 29.1 3.7 L 29.1 3.7 L 29.1 3.7 L 29.1 3.7 L 29.2 3.7 L 29.2 3.7 L 29.3 3.7 L 29.3 3.7 L 29.4 3.8 L 29.4 3.8 Z M 33.0 61.1 L 32.8 61.1 L 32.8 61.1 L 32.3 61.1 L 31.9 61.1 L 31.9 61.1 L 32.2 61.1 L 32.3 61.1 L 32.2 61.1 L 32.2 61.1 L 32.2 61.1 L 32.4 61.1 L 32.5 61.1 L 32.9 61.1 L 32.8 61.1 L 32.6 61.1 L 32.5 61.1 L 32.3 61.1 L 32.2 61.1 L 32.0 61.1 L 31.8 61.1 L 31.7 61.1 L 31.5 61.1 L 31.5 61.1 L 31.7 61.1 L 31.3 61.1 L 31.0 61.1 L 31.1 61.1 L 31.1 61.1 L 30.9 61.1 L 30.8 61.1 L 31.0 61.1 L 31.2 61.1 L 31.3 61.1 L 31.6 61.1 L 31.4 61.1 L 31.7 61.1 L 31.8 61.1 L 31.7 61.1 L 31.5 61.1 L 31.2 61.1 L 31.0 61.1 L 30.8 61.1 L 30.5 61.1 L 30.6 61.1 L 30.5 61.1 L 30.3 61.1 L 30.2 61.0 L 30.2 61.0 L 30.2 61.0 L 30.2 61.0 L 30.6 61.1 L 30.4 61.1 L 30.1 61.0 L 30.1 61.0 L 29.8 61.0 L 29.4 61.0 L 29.3 61.0 L 29.0 60.9 L 28.6 60.9 L 28.2 60.9 L 28.0 60.8 L 27.7 60.8 L 27.2 60.7 L 26.4 60.6 L 26.2 60.5 L 25.9 60.5 L 25.6 60.4 L 25.7 60.4 L 25.9 60.4 L 26.0 60.5 L 25.7 60.4 L 25.6 60.4 L 25.4 60.3 L 25.6 60.4 L 25.8 60.4 L 25.6 60.4 L 25.3 60.3 L 25.2 60.3 L 25.2 60.3 L 25.1 60.3 L 25.0 60.2 L 24.9 60.2 L 24.8 60.2 L 24.6 60.2 L 24.6 60.1 L 24.4 60.1 L 24.3 60.1 L 24.2 60.0 L 24.2 60.0 L 24.3 60.1 L 24.1 60.0 L 24.1 60.0 L 24.1 60.0 L 23.9 60.0 L 23.9 60.0 L 23.9 59.9 L 23.8 59.9 L 23.7 59.9 L 23.5 59.8 L 23.3 59.8 L 23.4 59.8 L 23.5 59.8 L 23.5 59.8 L 23.6 59.9 L 23.6 59.9 L 23.5 59.8 L 23.4 59.8 L 23.2 59.7 L 23.5 59.8 L 23.4 59.8 L 23.6 59.9 L 23.5 59.8 L 23.5 59.8 L 23.4 59.8 L 23.3 59.8 L 23.1 59.7 L 22.6 59.6 L 22.1 59.4 L 21.6 59.2 L 21.5 59.1 L 21.3 59.1 L 21.2 59.0 L 20.9 58.9 L 20.7 58.8 L 20.6 58.8 L 20.4 58.7 L 20.4 58.7 L 20.5 58.7 L 20.4 58.7 L 20.3 58.6 L 20.2 58.6 L 20.1 58.6 L 20.0 58.5 L 19.9 58.5 L 19.9 58.5 L 19.8 58.4 L 19.8 58.4 L 19.8 58.4 L 19.6 58.3 L 19.6 58.3 L 19.5 58.3 L 19.5 58.3 L 19.4 58.3 L 19.3 58.2 L 19.2 58.1 L 19.1 58.1 L 19.2 58.1 L 19.3 58.2 L 19.2 58.1 L 19.3 58.2 L 19.5 58.3 L 19.5 58.3 L 19.5 58.3 L 19.5 58.3 L 19.5 58.3 L 19.6 58.3 L 19.6 58.3 L 19.7 58.4 L 19.8 58.4 L 19.9 58.5 L 20.1 58.6 L 20.1 58.6 L 20.1 58.6 L 20.2 58.6 L 20.2 58.6 L 20.2 58.6 L 20.3 58.6 L 20.2 58.6 L 20.3 58.6 L 20.4 58.7 L 20.1 58.6 L 20.2 58.6 L 20.3 58.6 L 20.4 58.7 L 20.4 58.7 L 20.5 58.7 L 20.6 58.8 L 20.6 58.8 L 20.7 58.8 L 20.9 58.9 L 21.0 58.9 L 21.0 58.9 L 21.1 59.0 L 21.2 59.0 L 21.2 59.0 L 21.2 59.0 L 21.3 59.1 L 21.5 59.1 L 21.7 59.2 L 22.1 59.4 L 22.2 59.4 L 22.3 59.4 L 22.4 59.5 L 22.6 59.5 L 22.7 59.6 L 22.7 59.6 L 22.8 59.6 L 23.0 59.7 L 23.0 59.7 L 23.2 59.7 L 23.3 59.8 L 23.4 59.8 L 23.5 59.8 L 23.5 59.8 L 23.6 59.9 L 23.8 59.9 L 23.8 59.9 L 23.9 60.0 L 24.0 60.0 L 24.1 60.0 L 24.1 60.0 L 24.3 60.1 L 24.2 60.0 L 24.3 60.1 L 24.3 60.1 L 24.4 60.1 L 24.5 60.1 L 24.7 60.2 L 24.8 60.2 L 25.1 60.3 L 25.1 60.3 L 25.0 60.3 L 25.2 60.3 L 25.5 60.4 L 25.7 60.4 L 25.7 60.4 L 25.7 60.4 L 26.0 60.5 L 26.2 60.5 L 26.0 60.5 L 25.9 60.5 L 26.0 60.5 L 26.2 60.5 L 26.5 60.6 L 26.5 60.6 L 26.4 60.6 L 26.7 60.6 L 26.8 60.6 L 26.8 60.6 L 27.1 60.7 L 27.2 60.7 L 27.2 60.7 L 27.1 60.7 L 27.3 60.7 L 27.3 60.7 L 27.6 60.8 L 27.7 60.8 L 27.7 60.8 L 27.7 60.8 L 27.8 60.8 L 27.9 60.8 L 28.0 60.8 L 28.0 60.8 L 28.1 60.8 L 28.3 60.9 L 28.4 60.9 L 28.6 60.9 L 28.5 60.9 L 28.3 60.9 L 28.1 60.8 L 28.1 60.8 L 28.1 60.8 L 28.2 60.9 L 28.5 60.9 L 28.4 60.9 L 28.1 60.8 L 28.0 60.8 L 28.1 60.8 L 28.1 60.8 L 28.1 60.8 L 28.2 60.8 L 28.5 60.9 L 28.3 60.9 L 27.9 60.8 L 27.7 60.8 L 27.3 60.7 L 27.0 60.7 L 26.8 60.6 L 26.9 60.6 L 26.8 60.6 L 26.9 60.6 L 27.2 60.7 L 27.4 60.7 L 27.4 60.7 L 27.3 60.7 L 27.3 60.7 L 27.4 60.7 L 27.3 60.7 L 27.2 60.7 L 27.1 60.7 L 27.1 60.7 L 27.1 60.7 L 27.3 60.7 L 27.2 61.6 L 27.1 61.6 L 26.9 61.6 L 27.1 61.6 L 27.1 61.6 L 27.1 61.6 L 27.2 61.6 L 27.5 61.7 L 27.5 61.6 L 27.4 61.6 L 27.6 61.7 L 27.7 61.7 L 28.0 61.7 L 28.3 61.7 L 28.5 61.8 L 28.6 61.8 L 28.8 61.8 L 29.2 61.8 L 29.8 61.8 L 30.1 61.8 L 30.5 61.9 L 30.7 61.9 L 30.7 61.9 L 30.9 61.9 L 31.3 61.9 L 31.7 61.9 L 31.8 61.9 L 31.9 61.9 L 32.0 61.9 L 32.3 61.9 L 32.4 61.9 L 32.6 61.9 L 32.8 61.9 L 33.0 61.9 L 33.2 61.9 L 33.7 61.9 L 34.2 61.8 L 34.3 61.8 L 34.4 61.8 L 34.7 61.7 L 34.6 61.8 L 34.7 61.8 L 35.0 61.8 L 35.1 61.7 L 35.3 61.7 L 35.6 61.7 L 35.8 61.6 L 36.2 61.6 L 36.6 61.5 L 36.9 61.5 L 37.1 61.4 L 37.3 61.4 L 37.2 61.4 L 37.4 61.4 L 37.5 61.4 L 37.6 61.4 L 37.8 61.3 L 38.0 61.3 L 38.1 61.2 L 38.7 61.1 L 39.1 61.0 L 39.2 61.1 L 39.0 61.1 L 38.8 61.2 L 39.0 61.1 L 39.2 61.1 L 39.5 61.0 L 39.8 61.0 L 40.1 60.9 L 40.4 60.8 L 40.4 59.9 L 40.2 59.9 L 40.0 60.0 L 39.8 60.0 L 39.7 60.1 L 39.5 60.1 L 39.3 60.2 L 39.3 60.2 L 39.3 60.2 L 39.0 60.2 L 38.6 60.3 L 38.2 60.4 L 38.2 60.4 L 38.5 60.4 L 38.8 60.3 L 39.0 60.2 L 39.3 60.2 L 39.6 60.1 L 39.9 60.0 L 40.2 59.9 L 40.4 59.9 L 40.7 59.8 L 41.1 59.7 L 41.5 59.5 L 41.9 59.4 L 42.2 59.2 L 42.4 59.2 L 42.7 59.1 L 42.9 59.0 L 43.1 58.9 L 43.2 58.9 L 43.2 58.9 L 43.3 58.8 L 43.4 58.8 L 43.5 58.7 L 43.7 58.7 L 43.9 58.5 L 44.0 58.5 L 44.0 58.5 L 43.8 58.6 L 43.7 58.6 L 44.2 58.4 L 44.3 58.4 L 44.0 58.5 L 43.8 58.6 L 43.6 58.7 L 43.6 58.7 L 43.7 58.6 L 43.7 58.6 L 43.7 58.6 L 43.8 58.6 L 43.6 58.7 L 43.8 58.6 L 43.9 58.6 L 43.9 58.6 L 43.9 58.6 L 43.6 58.7 L 43.5 58.7 L 43.8 58.6 L 43.8 58.6 L 43.7 58.7 L 43.6 58.7 L 43.5 58.7 L 43.3 58.8 L 43.2 58.9 L 42.9 59.0 L 42.7 59.1 L 42.5 59.1 L 42.4 59.2 L 42.1 59.3 L 42.1 59.3 L 41.7 59.4 L 41.4 59.5 L 41.2 59.6 L 41.0 59.7 L 40.9 59.7 L 40.7 59.8 L 40.8 59.7 L 40.5 59.8 L 40.0 60.0 L 39.8 60.0 L 39.4 60.1 L 38.8 60.3 L 38.7 60.3 L 38.8 60.3 L 38.5 60.4 L 38.0 60.5 L 37.8 60.5 L 37.3 60.6 L 37.2 60.6 L 37.2 60.6 L 37.0 60.7 L 37.2 60.6 L 37.2 60.6 L 36.9 60.7 L 37.1 60.6 L 37.2 60.6 L 37.1 60.6 L 37.2 60.6 L 37.2 60.6 L 37.4 60.6 L 37.2 60.6 L 37.0 60.7 L 37.1 60.7 L 37.3 60.6 L 37.2 60.6 L 37.1 60.6 L 37.0 60.7 L 36.8 60.7 L 36.7 60.7 L 36.5 60.8 L 36.4 60.8 L 36.1 60.8 L 35.9 60.8 L 35.8 60.9 L 35.7 60.9 L 35.5 60.9 L 35.5 60.9 L 35.7 60.9 L 35.9 60.8 L 35.7 60.9 L 35.8 60.9 L 35.7 60.9 L 35.6 60.9 L 35.5 60.9 L 35.5 60.9 L 35.3 60.9 L 35.2 60.9 L 35.2 60.9 L 35.0 60.9 L 34.8 61.0 L 34.7 61.0 L 34.6 61.0 L 34.4 61.0 L 34.2 61.0 L 34.1 61.0 L 34.0 61.0 L 33.9 61.0 L 33.9 61.0 L 33.7 61.0 L 33.6 61.1 L 33.5 61.1 L 33.3 61.1 L 33.1 61.1 L 33.0 61.1 Z" />
    </g>

    <g stroke="#22d3ee" stroke-width="0.5" fill="#22d3ee" filter="url(#glow)" opacity="0.9">
      <g fill="none">
        <path d="M 32.0 34.6 L 28.7 14.7" />
        <path d="M 28.7 14.7 L 51.9 13.4" />
        <path d="M 51.9 13.4 L 55.5 23.3" />
        <path d="M 51.9 13.4 L 56.5 15.9" />
        <path d="M 55.5 23.3 L 56.5 15.9" />
        <path d="M 32.0 34.6 L 55.5 23.3" />
        <path d="M 56.5 15.9 L 60.1 39.5" />
        <path d="M 32.0 34.6 L 60.1 39.5" />
      </g>
      <g>
        <circle cx="32.0" cy="34.6" r="0.8" />
        <circle cx="28.7" cy="14.7" r="0.8" />
        <circle cx="51.9" cy="13.4" r="0.8" />
        <circle cx="55.5" cy="23.3" r="0.8" />
        <circle cx="56.5" cy="15.9" r="0.8" />
        <circle cx="60.1" cy="39.5" r="0.8" />
      </g>
    </g>
    </g>
</svg>